<!DOCTYPE svg PUBLIC "-//W3C//DTD SVG 1.1//EN" "http://www.w3.org/Graphics/SVG/1.1/DTD/svg11.dtd">
<svg xmlns="http://www.w3.org/2000/svg" xmlns:xlink="http://www.w3.org/1999/xlink" width="448px" height="263px" version="1.1" style="background-color: rgb(255, 255, 255);"><defs/><g transform="translate(0.5,0.5)"><path d="M 31 91 L 131 31" fill="none" stroke="#b85450" stroke-width="4" stroke-miterlimit="10" pointer-events="none"/><path d="M 52 100 L 280 52" fill="none" stroke="#6c8ebf" stroke-width="4" stroke-miterlimit="10" pointer-events="none"/><path d="M 61 121 L 386 121" fill="none" stroke="#6c8ebf" stroke-width="4" stroke-miterlimit="10" pointer-events="none"/><path d="M 52 142 L 280 210" fill="none" stroke="#b85450" stroke-width="4" stroke-miterlimit="10" pointer-events="none"/><path d="M 301 201 L 182 52" fill="none" stroke="#b85450" stroke-width="4" stroke-miterlimit="10" pointer-events="none"/><path d="M 161 61 L 161 201" fill="none" stroke="#d6b656" stroke-width="4" stroke-miterlimit="10" pointer-events="none"/><path d="M 191 231 L 271 231" fill="none" stroke="#d6b656" stroke-width="4" stroke-miterlimit="10" pointer-events="none"/><path d="M 322 52 L 395 100" fill="none" stroke="#6c8ebf" stroke-width="4" stroke-miterlimit="10" pointer-events="none"/><path d="M 301 61 L 301 201" fill="none" stroke="#82b366" stroke-width="4" stroke-miterlimit="10" pointer-events="none"/><path d="M 280 52 L 51 101" fill="none" stroke="#82b366" stroke-width="4" stroke-miterlimit="10" stroke-dasharray="12 12" pointer-events="none"/><path d="M 280 210 L 52 142" fill="none" stroke="#82b366" stroke-width="4" stroke-miterlimit="10" stroke-dasharray="12 12" pointer-events="none"/><path d="M 182 52 L 301 201" fill="none" stroke="#d6b656" stroke-width="4" stroke-miterlimit="10" stroke-dasharray="12 12" pointer-events="none"/><ellipse cx="31" cy="121" rx="30" ry="30" fill="#ffffff" stroke="#000000" stroke-width="3" pointer-events="none"/><ellipse cx="161" cy="231" rx="30" ry="30" fill="#ffffff" stroke="#000000" stroke-width="3" pointer-events="none"/><ellipse cx="161" cy="31" rx="30" ry="30" fill="#ffffff" stroke="#000000" stroke-width="3" pointer-events="none"/><ellipse cx="301" cy="31" rx="30" ry="30" fill="#ffffff" stroke="#000000" stroke-width="3" pointer-events="none"/><ellipse cx="301" cy="231" rx="30" ry="30" fill="#ffffff" stroke="#000000" stroke-width="3" pointer-events="none"/><ellipse cx="416" cy="121" rx="30" ry="30" fill="#ffffff" stroke="#000000" stroke-width="3" pointer-events="none"/></g></svg>