<?xml version="1.0" encoding="utf-8" standalone="no"?>
<!DOCTYPE svg PUBLIC "-//W3C//DTD SVG 1.1//EN"
  "http://www.w3.org/Graphics/SVG/1.1/DTD/svg11.dtd">
<!-- Created with matplotlib (http://matplotlib.org/) -->
<svg height="425pt" version="1.1" viewBox="0 0 425 425" width="425pt" xmlns="http://www.w3.org/2000/svg" xmlns:xlink="http://www.w3.org/1999/xlink">
 <defs>
  <style type="text/css">
*{stroke-linecap:butt;stroke-linejoin:round;}
  </style>
 </defs>
 <g id="figure_1">
  <g id="patch_1">
   <path d="M -0 425.378125 
L 425.852812 425.378125 
L 425.852812 0 
L -0 0 
z
" style="fill:none;"/>
  </g>
  <g id="axes_1">
   <g id="patch_2">
    <path clip-path="url(#pf05aca32dc)" d="M 226.817812 223.138392 
C 231.173068 223.138392 235.35053 221.343119 238.430161 218.147962 
C 241.509792 214.952805 243.240154 210.618634 243.240154 206.1 
C 243.240154 201.581366 241.509792 197.247195 238.430161 194.052038 
C 235.35053 190.856881 231.173068 189.061608 226.817812 189.061608 
C 222.462557 189.061608 218.285095 190.856881 215.205464 194.052038 
C 212.125833 197.247195 210.395471 201.581366 210.395471 206.1 
C 210.395471 210.618634 212.125833 214.952805 215.205464 218.147962 
C 218.285095 221.343119 222.462557 223.138392 226.817812 223.138392 
z
" style="fill:none;stroke:#000000;stroke-linejoin:miter;stroke-width:2;"/>
   </g>
   <g id="patch_3">
    <path clip-path="url(#pf05aca32dc)" d="M 226.817812 222.768283 
C 231.078463 222.768283 235.165182 221.012008 238.177918 217.886256 
C 241.190653 214.760504 242.883427 210.52048 242.883427 206.1 
C 242.883427 201.67952 241.190653 197.439496 238.177918 194.313744 
C 235.165182 191.187992 231.078463 189.431717 226.817812 189.431717 
C 222.557162 189.431717 218.470443 191.187992 215.457707 194.313744 
C 212.444972 197.439496 210.752198 201.67952 210.752198 206.1 
C 210.752198 210.52048 212.444972 214.760504 215.457707 217.886256 
C 218.470443 221.012008 222.557162 222.768283 226.817812 222.768283 
z
" style="fill:none;stroke:#ff0000;stroke-linejoin:miter;stroke-width:2;"/>
   </g>
   <g id="patch_4">
    <path clip-path="url(#pf05aca32dc)" d="M 226.817812 392.195238 
C 274.386409 392.195238 320.013122 372.58707 353.649199 337.689205 
C 387.285276 302.79134 406.184479 255.453034 406.184479 206.1 
C 406.184479 156.746966 387.285276 109.40866 353.649199 74.510795 
C 320.013122 39.61293 274.386409 20.004762 226.817812 20.004762 
C 179.249216 20.004762 133.622503 39.61293 99.986426 74.510795 
C 66.350349 109.40866 47.451146 156.746966 47.451146 206.1 
C 47.451146 255.453034 66.350349 302.79134 99.986426 337.689205 
C 133.622503 372.58707 179.249216 392.195238 226.817812 392.195238 
z
" style="fill:none;stroke:#0000ff;stroke-linejoin:miter;stroke-width:2;"/>
   </g>
  </g>
 </g>
 <defs>
  <clipPath id="pf05aca32dc">
   <rect height="390.8" width="376.67" x="38.482813" y="10.7"/>
  </clipPath>
 </defs>
</svg>
