<?xml version="1.0" encoding="utf-8" standalone="no"?>
<!DOCTYPE svg PUBLIC "-//W3C//DTD SVG 1.1//EN"
  "http://www.w3.org/Graphics/SVG/1.1/DTD/svg11.dtd">
<!-- Created with matplotlib (http://matplotlib.org/) -->
<svg height="425pt" version="1.1" viewBox="0 0 425 425" width="425pt" xmlns="http://www.w3.org/2000/svg" xmlns:xlink="http://www.w3.org/1999/xlink">
 <defs>
  <style type="text/css">
*{stroke-linecap:butt;stroke-linejoin:round;}
  </style>
 </defs>
 <g id="figure_1">
  <g id="patch_1">
   <path d="M -0 425.378125 
L 425.852812 425.378125 
L 425.852812 0 
L -0 0 
z
" style="fill:none;"/>
  </g>
  <g id="axes_1">
   <g id="patch_2">
    <path clip-path="url(#pc1431bf847)" d="M 226.817812 217.52148 
C 229.737306 217.52148 232.537617 216.318041 234.60201 214.176206 
C 236.666403 212.034371 237.82633 209.129012 237.82633 206.1 
C 237.82633 203.070988 236.666403 200.165629 234.60201 198.023794 
C 232.537617 195.881959 229.737306 194.67852 226.817812 194.67852 
C 223.898319 194.67852 221.098008 195.881959 219.033615 198.023794 
C 216.969222 200.165629 215.809295 203.070988 215.809295 206.1 
C 215.809295 209.129012 216.969222 212.034371 219.033615 214.176206 
C 221.098008 216.318041 223.898319 217.52148 226.817812 217.52148 
z
" style="fill:none;stroke:#000000;stroke-linejoin:miter;stroke-width:2;"/>
   </g>
   <g id="patch_3">
    <path clip-path="url(#pc1431bf847)" d="M 226.817812 230.314711 
C 233.007438 230.314711 238.944385 227.763296 243.321111 223.222386 
C 247.697837 218.681476 250.157002 212.521816 250.157002 206.1 
C 250.157002 199.678184 247.697837 193.518524 243.321111 188.977614 
C 238.944385 184.436704 233.007438 181.885289 226.817812 181.885289 
C 220.628187 181.885289 214.69124 184.436704 210.314514 188.977614 
C 205.937788 193.518524 203.478623 199.678184 203.478623 206.1 
C 203.478623 212.521816 205.937788 218.681476 210.314514 223.222386 
C 214.69124 227.763296 220.628187 230.314711 226.817812 230.314711 
z
" style="fill:none;stroke:#ff0000;stroke-linejoin:miter;stroke-width:2;"/>
   </g>
   <g id="patch_4">
    <path clip-path="url(#pc1431bf847)" d="M 226.817812 392.195238 
C 274.386409 392.195238 320.013122 372.58707 353.649199 337.689205 
C 387.285276 302.79134 406.184479 255.453034 406.184479 206.1 
C 406.184479 156.746966 387.285276 109.40866 353.649199 74.510795 
C 320.013122 39.61293 274.386409 20.004762 226.817812 20.004762 
C 179.249216 20.004762 133.622503 39.61293 99.986426 74.510795 
C 66.350349 109.40866 47.451146 156.746966 47.451146 206.1 
C 47.451146 255.453034 66.350349 302.79134 99.986426 337.689205 
C 133.622503 372.58707 179.249216 392.195238 226.817812 392.195238 
z
" style="fill:none;stroke:#0000ff;stroke-linejoin:miter;stroke-width:2;"/>
   </g>
  </g>
 </g>
 <defs>
  <clipPath id="pc1431bf847">
   <rect height="390.8" width="376.67" x="38.482813" y="10.7"/>
  </clipPath>
 </defs>
</svg>
