<?xml version="1.0" encoding="utf-8" standalone="no"?>
<!DOCTYPE svg PUBLIC "-//W3C//DTD SVG 1.1//EN"
  "http://www.w3.org/Graphics/SVG/1.1/DTD/svg11.dtd">
<!-- Created with matplotlib (http://matplotlib.org/) -->
<svg height="413pt" version="1.1" viewBox="0 0 561 413" width="561pt" xmlns="http://www.w3.org/2000/svg" xmlns:xlink="http://www.w3.org/1999/xlink">
 <defs>
  <style type="text/css">
*{stroke-linecap:butt;stroke-linejoin:round;}
  </style>
 </defs>
 <g id="figure_1">
  <g id="patch_1">
   <path d="M 0 413.44 
L 561.88 413.44 
L 561.88 0 
L 0 0 
z
" style="fill:none;"/>
  </g>
  <g id="axes_1">
   <g id="patch_2">
    <path d="M 10.7 402.74 
L 551.18 402.74 
L 551.18 10.7 
L 10.7 10.7 
z
" style="fill:none;"/>
   </g>
   <g id="matplotlib.axis_1">
    <g id="xtick_1">
     <g id="line2d_1">
      <path clip-path="url(#p2ccdbebebb)" d="M 10.7 402.74 
L 10.7 10.7 
" style="fill:none;stroke:#000000;stroke-linecap:square;"/>
     </g>
    </g>
    <g id="xtick_2">
     <g id="line2d_2">
      <path clip-path="url(#p2ccdbebebb)" d="M 145.82 402.74 
L 145.82 10.7 
" style="fill:none;stroke:#000000;stroke-linecap:square;"/>
     </g>
    </g>
    <g id="xtick_3">
     <g id="line2d_3">
      <path clip-path="url(#p2ccdbebebb)" d="M 280.94 402.74 
L 280.94 10.7 
" style="fill:none;stroke:#000000;stroke-linecap:square;"/>
     </g>
    </g>
    <g id="xtick_4">
     <g id="line2d_4">
      <path clip-path="url(#p2ccdbebebb)" d="M 416.06 402.74 
L 416.06 10.7 
" style="fill:none;stroke:#000000;stroke-linecap:square;"/>
     </g>
    </g>
    <g id="xtick_5">
     <g id="line2d_5">
      <path clip-path="url(#p2ccdbebebb)" d="M 551.18 402.74 
L 551.18 10.7 
" style="fill:none;stroke:#000000;stroke-linecap:square;"/>
     </g>
    </g>
    <g id="xtick_6"/>
    <g id="xtick_7"/>
    <g id="xtick_8"/>
    <g id="xtick_9"/>
    <g id="xtick_10"/>
    <g id="xtick_11"/>
    <g id="xtick_12"/>
    <g id="xtick_13"/>
    <g id="xtick_14"/>
    <g id="xtick_15"/>
    <g id="xtick_16"/>
    <g id="xtick_17"/>
    <g id="xtick_18"/>
    <g id="xtick_19"/>
    <g id="xtick_20"/>
    <g id="xtick_21"/>
    <g id="xtick_22"/>
    <g id="xtick_23"/>
    <g id="xtick_24"/>
    <g id="xtick_25"/>
    <g id="xtick_26"/>
    <g id="xtick_27"/>
    <g id="xtick_28"/>
    <g id="xtick_29"/>
    <g id="xtick_30"/>
    <g id="xtick_31"/>
    <g id="xtick_32"/>
    <g id="xtick_33"/>
    <g id="xtick_34"/>
    <g id="xtick_35"/>
    <g id="xtick_36"/>
    <g id="xtick_37"/>
    <g id="xtick_38"/>
    <g id="xtick_39"/>
    <g id="xtick_40"/>
    <g id="xtick_41"/>
   </g>
   <g id="matplotlib.axis_2">
    <g id="ytick_1">
     <g id="line2d_6">
      <path clip-path="url(#p2ccdbebebb)" d="M 10.7 402.74 
L 551.18 402.74 
" style="fill:none;stroke:#000000;stroke-linecap:square;"/>
     </g>
    </g>
    <g id="ytick_2">
     <g id="line2d_7">
      <path clip-path="url(#p2ccdbebebb)" d="M 10.7 272.06 
L 551.18 272.06 
" style="fill:none;stroke:#000000;stroke-linecap:square;"/>
     </g>
    </g>
    <g id="ytick_3">
     <g id="line2d_8">
      <path clip-path="url(#p2ccdbebebb)" d="M 10.7 141.38 
L 551.18 141.38 
" style="fill:none;stroke:#000000;stroke-linecap:square;"/>
     </g>
    </g>
    <g id="ytick_4">
     <g id="line2d_9">
      <path clip-path="url(#p2ccdbebebb)" d="M 10.7 10.7 
L 551.18 10.7 
" style="fill:none;stroke:#000000;stroke-linecap:square;"/>
     </g>
    </g>
    <g id="ytick_5"/>
    <g id="ytick_6"/>
    <g id="ytick_7"/>
    <g id="ytick_8"/>
    <g id="ytick_9"/>
    <g id="ytick_10"/>
    <g id="ytick_11"/>
    <g id="ytick_12"/>
    <g id="ytick_13"/>
    <g id="ytick_14"/>
    <g id="ytick_15"/>
    <g id="ytick_16"/>
    <g id="ytick_17"/>
    <g id="ytick_18"/>
    <g id="ytick_19"/>
    <g id="ytick_20"/>
    <g id="ytick_21"/>
    <g id="ytick_22"/>
    <g id="ytick_23"/>
    <g id="ytick_24"/>
    <g id="ytick_25"/>
    <g id="ytick_26"/>
    <g id="ytick_27"/>
    <g id="ytick_28"/>
    <g id="ytick_29"/>
    <g id="ytick_30"/>
    <g id="ytick_31"/>
   </g>
   <g id="patch_3">
    <path clip-path="url(#p2ccdbebebb)" d="M 78.26 84.5342 
C 80.589226 84.5342 82.823366 83.639198 84.470377 82.046306 
C 86.117389 80.453415 87.0428 78.292688 87.0428 76.04 
C 87.0428 73.787312 86.117389 71.626585 84.470377 70.033694 
C 82.823366 68.440802 80.589226 67.5458 78.26 67.5458 
C 75.930774 67.5458 73.696634 68.440802 72.049623 70.033694 
C 70.402611 71.626585 69.4772 73.787312 69.4772 76.04 
C 69.4772 78.292688 70.402611 80.453415 72.049623 82.046306 
C 73.696634 83.639198 75.930774 84.5342 78.26 84.5342 
z
" style="fill:none;stroke:#000000;stroke-linejoin:miter;"/>
   </g>
   <g id="patch_4">
    <path clip-path="url(#p2ccdbebebb)" d="M 78.26 87.396784 
C 81.374186 87.396784 84.361241 86.200162 86.563303 84.070459 
C 88.765365 81.940757 90.002644 79.051854 90.002644 76.04 
C 90.002644 73.028146 88.765365 70.139243 86.563303 68.009541 
C 84.361241 65.879838 81.374186 64.683216 78.26 64.683216 
C 75.145814 64.683216 72.158759 65.879838 69.956697 68.009541 
C 67.754635 70.139243 66.517356 73.028146 66.517356 76.04 
C 66.517356 79.051854 67.754635 81.940757 69.956697 84.070459 
C 72.158759 86.200162 75.145814 87.396784 78.26 87.396784 
z
" style="fill:none;stroke:#ff0000;stroke-linejoin:miter;"/>
   </g>
   <g id="patch_5">
    <path clip-path="url(#p2ccdbebebb)" d="M 213.38 84.5342 
C 215.709226 84.5342 217.943366 83.639198 219.590377 82.046306 
C 221.237389 80.453415 222.1628 78.292688 222.1628 76.04 
C 222.1628 73.787312 221.237389 71.626585 219.590377 70.033694 
C 217.943366 68.440802 215.709226 67.5458 213.38 67.5458 
C 211.050774 67.5458 208.816634 68.440802 207.169623 70.033694 
C 205.522611 71.626585 204.5972 73.787312 204.5972 76.04 
C 204.5972 78.292688 205.522611 80.453415 207.169623 82.046306 
C 208.816634 83.639198 211.050774 84.5342 213.38 84.5342 
z
" style="fill:none;stroke:#000000;stroke-linejoin:miter;"/>
   </g>
   <g id="patch_6">
    <path clip-path="url(#p2ccdbebebb)" d="M 213.38 84.534006 
C 215.709173 84.534006 217.943262 83.639024 219.590236 82.04617 
C 221.23721 80.453315 222.1626 78.292637 222.1626 76.04 
C 222.1626 73.787363 221.23721 71.626685 219.590236 70.03383 
C 217.943262 68.440976 215.709173 67.545994 213.38 67.545994 
C 211.050827 67.545994 208.816738 68.440976 207.169764 70.03383 
C 205.52279 71.626685 204.5974 73.787363 204.5974 76.04 
C 204.5974 78.292637 205.52279 80.453315 207.169764 82.04617 
C 208.816738 83.639024 211.050827 84.534006 213.38 84.534006 
z
" style="fill:none;stroke:#ff0000;stroke-linejoin:miter;"/>
   </g>
   <g id="patch_7">
    <path clip-path="url(#p2ccdbebebb)" d="M 348.5 84.5342 
C 350.829226 84.5342 353.063366 83.639198 354.710377 82.046306 
C 356.357389 80.453415 357.2828 78.292688 357.2828 76.04 
C 357.2828 73.787312 356.357389 71.626585 354.710377 70.033694 
C 353.063366 68.440802 350.829226 67.5458 348.5 67.5458 
C 346.170774 67.5458 343.936634 68.440802 342.289623 70.033694 
C 340.642611 71.626585 339.7172 73.787312 339.7172 76.04 
C 339.7172 78.292688 340.642611 80.453415 342.289623 82.046306 
C 343.936634 83.639198 346.170774 84.5342 348.5 84.5342 
z
" style="fill:none;stroke:#000000;stroke-linejoin:miter;"/>
   </g>
   <g id="patch_8">
    <path clip-path="url(#p2ccdbebebb)" d="M 348.5 86.847828 
C 351.463654 86.847828 354.306324 85.709047 356.401944 83.682288 
C 358.497564 81.65553 359.675036 78.906269 359.675036 76.04 
C 359.675036 73.173731 358.497564 70.42447 356.401944 68.397712 
C 354.306324 66.370953 351.463654 65.232172 348.5 65.232172 
C 345.536346 65.232172 342.693676 66.370953 340.598056 68.397712 
C 338.502436 70.42447 337.324964 73.173731 337.324964 76.04 
C 337.324964 78.906269 338.502436 81.65553 340.598056 83.682288 
C 342.693676 85.709047 345.536346 86.847828 348.5 86.847828 
z
" style="fill:none;stroke:#ff0000;stroke-linejoin:miter;"/>
   </g>
   <g id="patch_9">
    <path clip-path="url(#p2ccdbebebb)" d="M 483.62 84.5342 
C 485.949226 84.5342 488.183366 83.639198 489.830377 82.046306 
C 491.477389 80.453415 492.4028 78.292688 492.4028 76.04 
C 492.4028 73.787312 491.477389 71.626585 489.830377 70.033694 
C 488.183366 68.440802 485.949226 67.5458 483.62 67.5458 
C 481.290774 67.5458 479.056634 68.440802 477.409623 70.033694 
C 475.762611 71.626585 474.8372 73.787312 474.8372 76.04 
C 474.8372 78.292688 475.762611 80.453415 477.409623 82.046306 
C 479.056634 83.639198 481.290774 84.5342 483.62 84.5342 
z
" style="fill:none;stroke:#000000;stroke-linejoin:miter;"/>
   </g>
   <g id="patch_10">
    <path clip-path="url(#p2ccdbebebb)" d="M 483.62 83.094356 
C 485.554401 83.094356 487.409834 82.351065 488.777662 81.028183 
C 490.14549 79.705301 490.914036 77.910837 490.914036 76.04 
C 490.914036 74.169163 490.14549 72.374699 488.777662 71.051817 
C 487.409834 69.728935 485.554401 68.985644 483.62 68.985644 
C 481.685599 68.985644 479.830166 69.728935 478.462338 71.051817 
C 477.09451 72.374699 476.325964 74.169163 476.325964 76.04 
C 476.325964 77.910837 477.09451 79.705301 478.462338 81.028183 
C 479.830166 82.351065 481.685599 83.094356 483.62 83.094356 
z
" style="fill:none;stroke:#ff0000;stroke-linejoin:miter;"/>
   </g>
   <g id="patch_11">
    <path clip-path="url(#p2ccdbebebb)" d="M 78.26 215.2142 
C 80.589226 215.2142 82.823366 214.319198 84.470377 212.726306 
C 86.117389 211.133415 87.0428 208.972688 87.0428 206.72 
C 87.0428 204.467312 86.117389 202.306585 84.470377 200.713694 
C 82.823366 199.120802 80.589226 198.2258 78.26 198.2258 
C 75.930774 198.2258 73.696634 199.120802 72.049623 200.713694 
C 70.402611 202.306585 69.4772 204.467312 69.4772 206.72 
C 69.4772 208.972688 70.402611 211.133415 72.049623 212.726306 
C 73.696634 214.319198 75.930774 215.2142 78.26 215.2142 
z
" style="fill:none;stroke:#000000;stroke-linejoin:miter;"/>
   </g>
   <g id="patch_12">
    <path clip-path="url(#p2ccdbebebb)" d="M 78.26 213.420005 
C 80.097233 213.420005 81.859465 212.71405 83.158585 211.457619 
C 84.457705 210.201188 85.187645 208.496862 85.187645 206.72 
C 85.187645 204.943138 84.457705 203.238812 83.158585 201.982381 
C 81.859465 200.72595 80.097233 200.019995 78.26 200.019995 
C 76.422767 200.019995 74.660535 200.72595 73.361415 201.982381 
C 72.062295 203.238812 71.332355 204.943138 71.332355 206.72 
C 71.332355 208.496862 72.062295 210.201188 73.361415 211.457619 
C 74.660535 212.71405 76.422767 213.420005 78.26 213.420005 
z
" style="fill:none;stroke:#ff0000;stroke-linejoin:miter;"/>
   </g>
   <g id="patch_13">
    <path clip-path="url(#p2ccdbebebb)" d="M 213.38 215.2142 
C 215.709226 215.2142 217.943366 214.319198 219.590377 212.726306 
C 221.237389 211.133415 222.1628 208.972688 222.1628 206.72 
C 222.1628 204.467312 221.237389 202.306585 219.590377 200.713694 
C 217.943366 199.120802 215.709226 198.2258 213.38 198.2258 
C 211.050774 198.2258 208.816634 199.120802 207.169623 200.713694 
C 205.522611 202.306585 204.5972 204.467312 204.5972 206.72 
C 204.5972 208.972688 205.522611 211.133415 207.169623 212.726306 
C 208.816634 214.319198 211.050774 215.2142 213.38 215.2142 
z
" style="fill:none;stroke:#000000;stroke-linejoin:miter;"/>
   </g>
   <g id="patch_14">
    <path clip-path="url(#p2ccdbebebb)" d="M 213.38 214.139213 
C 215.41445 214.139213 217.365847 213.357478 218.80442 211.966176 
C 220.242993 210.574874 221.051289 208.687598 221.051289 206.72 
C 221.051289 204.752402 220.242993 202.865126 218.80442 201.473824 
C 217.365847 200.082522 215.41445 199.300787 213.38 199.300787 
C 211.34555 199.300787 209.394153 200.082522 207.95558 201.473824 
C 206.517007 202.865126 205.708711 204.752402 205.708711 206.72 
C 205.708711 208.687598 206.517007 210.574874 207.95558 211.966176 
C 209.394153 213.357478 211.34555 214.139213 213.38 214.139213 
z
" style="fill:none;stroke:#ff0000;stroke-linejoin:miter;"/>
   </g>
   <g id="patch_15">
    <path clip-path="url(#p2ccdbebebb)" d="M 348.5 215.2142 
C 350.829226 215.2142 353.063366 214.319198 354.710377 212.726306 
C 356.357389 211.133415 357.2828 208.972688 357.2828 206.72 
C 357.2828 204.467312 356.357389 202.306585 354.710377 200.713694 
C 353.063366 199.120802 350.829226 198.2258 348.5 198.2258 
C 346.170774 198.2258 343.936634 199.120802 342.289623 200.713694 
C 340.642611 202.306585 339.7172 204.467312 339.7172 206.72 
C 339.7172 208.972688 340.642611 211.133415 342.289623 212.726306 
C 343.936634 214.319198 346.170774 215.2142 348.5 215.2142 
z
" style="fill:none;stroke:#000000;stroke-linejoin:miter;"/>
   </g>
   <g id="patch_16">
    <path clip-path="url(#p2ccdbebebb)" d="M 348.5 228.417589 
C 354.449776 228.417589 360.156665 226.131394 364.363792 222.062512 
C 368.570918 217.993631 370.934789 212.474268 370.934789 206.72 
C 370.934789 200.965732 368.570918 195.446369 364.363792 191.377488 
C 360.156665 187.308606 354.449776 185.022411 348.5 185.022411 
C 342.550224 185.022411 336.843335 187.308606 332.636208 191.377488 
C 328.429082 195.446369 326.065211 200.965732 326.065211 206.72 
C 326.065211 212.474268 328.429082 217.993631 332.636208 222.062512 
C 336.843335 226.131394 342.550224 228.417589 348.5 228.417589 
z
" style="fill:none;stroke:#ff0000;stroke-linejoin:miter;"/>
   </g>
   <g id="patch_17">
    <path clip-path="url(#p2ccdbebebb)" d="M 483.62 215.2142 
C 485.949226 215.2142 488.183366 214.319198 489.830377 212.726306 
C 491.477389 211.133415 492.4028 208.972688 492.4028 206.72 
C 492.4028 204.467312 491.477389 202.306585 489.830377 200.713694 
C 488.183366 199.120802 485.949226 198.2258 483.62 198.2258 
C 481.290774 198.2258 479.056634 199.120802 477.409623 200.713694 
C 475.762611 202.306585 474.8372 204.467312 474.8372 206.72 
C 474.8372 208.972688 475.762611 211.133415 477.409623 212.726306 
C 479.056634 214.319198 481.290774 215.2142 483.62 215.2142 
z
" style="fill:none;stroke:#000000;stroke-linejoin:miter;"/>
   </g>
   <g id="patch_18">
    <path clip-path="url(#p2ccdbebebb)" d="M 483.62 216.458517 
C 486.290435 216.458517 488.851855 215.432406 490.740137 213.606172 
C 492.62842 211.779938 493.689394 209.302685 493.689394 206.72 
C 493.689394 204.137315 492.62842 201.660062 490.740137 199.833828 
C 488.851855 198.007594 486.290435 196.981483 483.62 196.981483 
C 480.949565 196.981483 478.388145 198.007594 476.499863 199.833828 
C 474.61158 201.660062 473.550606 204.137315 473.550606 206.72 
C 473.550606 209.302685 474.61158 211.779938 476.499863 213.606172 
C 478.388145 215.432406 480.949565 216.458517 483.62 216.458517 
z
" style="fill:none;stroke:#ff0000;stroke-linejoin:miter;"/>
   </g>
   <g id="patch_19">
    <path clip-path="url(#p2ccdbebebb)" d="M 78.26 345.8942 
C 80.589226 345.8942 82.823366 344.999198 84.470377 343.406306 
C 86.117389 341.813415 87.0428 339.652688 87.0428 337.4 
C 87.0428 335.147312 86.117389 332.986585 84.470377 331.393694 
C 82.823366 329.800802 80.589226 328.9058 78.26 328.9058 
C 75.930774 328.9058 73.696634 329.800802 72.049623 331.393694 
C 70.402611 332.986585 69.4772 335.147312 69.4772 337.4 
C 69.4772 339.652688 70.402611 341.813415 72.049623 343.406306 
C 73.696634 344.999198 75.930774 345.8942 78.26 345.8942 
z
" style="fill:none;stroke:#000000;stroke-linejoin:miter;"/>
   </g>
   <g id="patch_20">
    <path clip-path="url(#p2ccdbebebb)" d="M 78.26 348.513733 
C 81.307538 348.513733 84.230666 347.34272 86.385601 345.258596 
C 88.540535 343.174472 89.751335 340.347396 89.751335 337.4 
C 89.751335 334.452604 88.540535 331.625528 86.385601 329.541404 
C 84.230666 327.45728 81.307538 326.286267 78.26 326.286267 
C 75.212462 326.286267 72.289334 327.45728 70.134399 329.541404 
C 67.979465 331.625528 66.768665 334.452604 66.768665 337.4 
C 66.768665 340.347396 67.979465 343.174472 70.134399 345.258596 
C 72.289334 347.34272 75.212462 348.513733 78.26 348.513733 
z
" style="fill:none;stroke:#ff0000;stroke-linejoin:miter;"/>
   </g>
   <g id="patch_21">
    <path clip-path="url(#p2ccdbebebb)" d="M 213.38 345.8942 
C 215.709226 345.8942 217.943366 344.999198 219.590377 343.406306 
C 221.237389 341.813415 222.1628 339.652688 222.1628 337.4 
C 222.1628 335.147312 221.237389 332.986585 219.590377 331.393694 
C 217.943366 329.800802 215.709226 328.9058 213.38 328.9058 
C 211.050774 328.9058 208.816634 329.800802 207.169623 331.393694 
C 205.522611 332.986585 204.5972 335.147312 204.5972 337.4 
C 204.5972 339.652688 205.522611 341.813415 207.169623 343.406306 
C 208.816634 344.999198 211.050774 345.8942 213.38 345.8942 
z
" style="fill:none;stroke:#000000;stroke-linejoin:miter;"/>
   </g>
   <g id="patch_22">
    <path clip-path="url(#p2ccdbebebb)" d="M 213.38 393.765516 
C 228.836195 393.765516 243.661426 387.82649 254.590606 377.256439 
C 265.519787 366.686388 271.660598 352.34831 271.660598 337.4 
C 271.660598 322.45169 265.519787 308.113612 254.590606 297.543561 
C 243.661426 286.97351 228.836195 281.034484 213.38 281.034484 
C 197.923805 281.034484 183.098574 286.97351 172.169394 297.543561 
C 161.240213 308.113612 155.099402 322.45169 155.099402 337.4 
C 155.099402 352.34831 161.240213 366.686388 172.169394 377.256439 
C 183.098574 387.82649 197.923805 393.765516 213.38 393.765516 
z
" style="fill:none;stroke:#ff0000;stroke-linejoin:miter;"/>
   </g>
   <g id="patch_23">
    <path clip-path="url(#p2ccdbebebb)" d="M 348.5 345.8942 
C 350.829226 345.8942 353.063366 344.999198 354.710377 343.406306 
C 356.357389 341.813415 357.2828 339.652688 357.2828 337.4 
C 357.2828 335.147312 356.357389 332.986585 354.710377 331.393694 
C 353.063366 329.800802 350.829226 328.9058 348.5 328.9058 
C 346.170774 328.9058 343.936634 329.800802 342.289623 331.393694 
C 340.642611 332.986585 339.7172 335.147312 339.7172 337.4 
C 339.7172 339.652688 340.642611 341.813415 342.289623 343.406306 
C 343.936634 344.999198 346.170774 345.8942 348.5 345.8942 
z
" style="fill:none;stroke:#000000;stroke-linejoin:miter;"/>
   </g>
   <g id="patch_24">
    <path clip-path="url(#p2ccdbebebb)" d="M 348.5 367.016901 
C 356.621359 367.016901 364.411182 363.896278 370.15385 358.342312 
C 375.896519 352.788346 379.123169 345.254494 379.123169 337.4 
C 379.123169 329.545506 375.896519 322.011654 370.15385 316.457688 
C 364.411182 310.903722 356.621359 307.783099 348.5 307.783099 
C 340.378641 307.783099 332.588818 310.903722 326.84615 316.457688 
C 321.103481 322.011654 317.876831 329.545506 317.876831 337.4 
C 317.876831 345.254494 321.103481 352.788346 326.84615 358.342312 
C 332.588818 363.896278 340.378641 367.016901 348.5 367.016901 
z
" style="fill:none;stroke:#ff0000;stroke-linejoin:miter;"/>
   </g>
   <g id="patch_25">
    <path clip-path="url(#p2ccdbebebb)" d="M 483.62 345.8942 
C 485.949226 345.8942 488.183366 344.999198 489.830377 343.406306 
C 491.477389 341.813415 492.4028 339.652688 492.4028 337.4 
C 492.4028 335.147312 491.477389 332.986585 489.830377 331.393694 
C 488.183366 329.800802 485.949226 328.9058 483.62 328.9058 
C 481.290774 328.9058 479.056634 329.800802 477.409623 331.393694 
C 475.762611 332.986585 474.8372 335.147312 474.8372 337.4 
C 474.8372 339.652688 475.762611 341.813415 477.409623 343.406306 
C 479.056634 344.999198 481.290774 345.8942 483.62 345.8942 
z
" style="fill:none;stroke:#000000;stroke-linejoin:miter;"/>
   </g>
   <g id="patch_26">
    <path clip-path="url(#p2ccdbebebb)" d="M 483.62 357.577594 
C 489.152972 357.577594 494.460073 355.451556 498.372475 351.667714 
C 502.284878 347.883872 504.483151 342.751161 504.483151 337.4 
C 504.483151 332.048839 502.284878 326.916128 498.372475 323.132286 
C 494.460073 319.348444 489.152972 317.222406 483.62 317.222406 
C 478.087028 317.222406 472.779927 319.348444 468.867525 323.132286 
C 464.955122 326.916128 462.756849 332.048839 462.756849 337.4 
C 462.756849 342.751161 464.955122 347.883872 468.867525 351.667714 
C 472.779927 355.451556 478.087028 357.577594 483.62 357.577594 
z
" style="fill:none;stroke:#ff0000;stroke-linejoin:miter;"/>
   </g>
   <g id="patch_27">
    <path d="M 10.7 402.74 
L 10.7 10.7 
" style="fill:none;stroke:#000000;stroke-linecap:square;stroke-linejoin:miter;stroke-width:0.8;"/>
   </g>
   <g id="patch_28">
    <path d="M 551.18 402.74 
L 551.18 10.7 
" style="fill:none;stroke:#000000;stroke-linecap:square;stroke-linejoin:miter;stroke-width:0.8;"/>
   </g>
   <g id="patch_29">
    <path d="M 10.7 402.74 
L 551.18 402.74 
" style="fill:none;stroke:#000000;stroke-linecap:square;stroke-linejoin:miter;stroke-width:0.8;"/>
   </g>
   <g id="patch_30">
    <path d="M 10.7 10.7 
L 551.18 10.7 
" style="fill:none;stroke:#000000;stroke-linecap:square;stroke-linejoin:miter;stroke-width:0.8;"/>
   </g>
   <g id="text_1">
    <!-- ca-netscience -->
    <defs>
     <path d="M 48.78125 52.59375 
L 48.78125 44.1875 
Q 44.96875 46.296875 41.140625 47.34375 
Q 37.3125 48.390625 33.40625 48.390625 
Q 24.65625 48.390625 19.8125 42.84375 
Q 14.984375 37.3125 14.984375 27.296875 
Q 14.984375 17.28125 19.8125 11.734375 
Q 24.65625 6.203125 33.40625 6.203125 
Q 37.3125 6.203125 41.140625 7.25 
Q 44.96875 8.296875 48.78125 10.40625 
L 48.78125 2.09375 
Q 45.015625 0.34375 40.984375 -0.53125 
Q 36.96875 -1.421875 32.421875 -1.421875 
Q 20.0625 -1.421875 12.78125 6.34375 
Q 5.515625 14.109375 5.515625 27.296875 
Q 5.515625 40.671875 12.859375 48.328125 
Q 20.21875 56 33.015625 56 
Q 37.15625 56 41.109375 55.140625 
Q 45.0625 54.296875 48.78125 52.59375 
" id="DejaVuSans-63"/>
     <path d="M 34.28125 27.484375 
Q 23.390625 27.484375 19.1875 25 
Q 14.984375 22.515625 14.984375 16.5 
Q 14.984375 11.71875 18.140625 8.90625 
Q 21.296875 6.109375 26.703125 6.109375 
Q 34.1875 6.109375 38.703125 11.40625 
Q 43.21875 16.703125 43.21875 25.484375 
L 43.21875 27.484375 
z
M 52.203125 31.203125 
L 52.203125 0 
L 43.21875 0 
L 43.21875 8.296875 
Q 40.140625 3.328125 35.546875 0.953125 
Q 30.953125 -1.421875 24.3125 -1.421875 
Q 15.921875 -1.421875 10.953125 3.296875 
Q 6 8.015625 6 15.921875 
Q 6 25.140625 12.171875 29.828125 
Q 18.359375 34.515625 30.609375 34.515625 
L 43.21875 34.515625 
L 43.21875 35.40625 
Q 43.21875 41.609375 39.140625 45 
Q 35.0625 48.390625 27.6875 48.390625 
Q 23 48.390625 18.546875 47.265625 
Q 14.109375 46.140625 10.015625 43.890625 
L 10.015625 52.203125 
Q 14.9375 54.109375 19.578125 55.046875 
Q 24.21875 56 28.609375 56 
Q 40.484375 56 46.34375 49.84375 
Q 52.203125 43.703125 52.203125 31.203125 
" id="DejaVuSans-61"/>
     <path d="M 4.890625 31.390625 
L 31.203125 31.390625 
L 31.203125 23.390625 
L 4.890625 23.390625 
z
" id="DejaVuSans-2d"/>
     <path d="M 54.890625 33.015625 
L 54.890625 0 
L 45.90625 0 
L 45.90625 32.71875 
Q 45.90625 40.484375 42.875 44.328125 
Q 39.84375 48.1875 33.796875 48.1875 
Q 26.515625 48.1875 22.3125 43.546875 
Q 18.109375 38.921875 18.109375 30.90625 
L 18.109375 0 
L 9.078125 0 
L 9.078125 54.6875 
L 18.109375 54.6875 
L 18.109375 46.1875 
Q 21.34375 51.125 25.703125 53.5625 
Q 30.078125 56 35.796875 56 
Q 45.21875 56 50.046875 50.171875 
Q 54.890625 44.34375 54.890625 33.015625 
" id="DejaVuSans-6e"/>
     <path d="M 56.203125 29.59375 
L 56.203125 25.203125 
L 14.890625 25.203125 
Q 15.484375 15.921875 20.484375 11.0625 
Q 25.484375 6.203125 34.421875 6.203125 
Q 39.59375 6.203125 44.453125 7.46875 
Q 49.3125 8.734375 54.109375 11.28125 
L 54.109375 2.78125 
Q 49.265625 0.734375 44.1875 -0.34375 
Q 39.109375 -1.421875 33.890625 -1.421875 
Q 20.796875 -1.421875 13.15625 6.1875 
Q 5.515625 13.8125 5.515625 26.8125 
Q 5.515625 40.234375 12.765625 48.109375 
Q 20.015625 56 32.328125 56 
Q 43.359375 56 49.78125 48.890625 
Q 56.203125 41.796875 56.203125 29.59375 
M 47.21875 32.234375 
Q 47.125 39.59375 43.09375 43.984375 
Q 39.0625 48.390625 32.421875 48.390625 
Q 24.90625 48.390625 20.390625 44.140625 
Q 15.875 39.890625 15.1875 32.171875 
z
" id="DejaVuSans-65"/>
     <path d="M 18.3125 70.21875 
L 18.3125 54.6875 
L 36.8125 54.6875 
L 36.8125 47.703125 
L 18.3125 47.703125 
L 18.3125 18.015625 
Q 18.3125 11.328125 20.140625 9.421875 
Q 21.96875 7.515625 27.59375 7.515625 
L 36.8125 7.515625 
L 36.8125 0 
L 27.59375 0 
Q 17.1875 0 13.234375 3.875 
Q 9.28125 7.765625 9.28125 18.015625 
L 9.28125 47.703125 
L 2.6875 47.703125 
L 2.6875 54.6875 
L 9.28125 54.6875 
L 9.28125 70.21875 
z
" id="DejaVuSans-74"/>
     <path d="M 44.28125 53.078125 
L 44.28125 44.578125 
Q 40.484375 46.53125 36.375 47.5 
Q 32.28125 48.484375 27.875 48.484375 
Q 21.1875 48.484375 17.84375 46.4375 
Q 14.5 44.390625 14.5 40.28125 
Q 14.5 37.15625 16.890625 35.375 
Q 19.28125 33.59375 26.515625 31.984375 
L 29.59375 31.296875 
Q 39.15625 29.25 43.1875 25.515625 
Q 47.21875 21.78125 47.21875 15.09375 
Q 47.21875 7.46875 41.1875 3.015625 
Q 35.15625 -1.421875 24.609375 -1.421875 
Q 20.21875 -1.421875 15.453125 -0.5625 
Q 10.6875 0.296875 5.421875 2 
L 5.421875 11.28125 
Q 10.40625 8.6875 15.234375 7.390625 
Q 20.0625 6.109375 24.8125 6.109375 
Q 31.15625 6.109375 34.5625 8.28125 
Q 37.984375 10.453125 37.984375 14.40625 
Q 37.984375 18.0625 35.515625 20.015625 
Q 33.0625 21.96875 24.703125 23.78125 
L 21.578125 24.515625 
Q 13.234375 26.265625 9.515625 29.90625 
Q 5.8125 33.546875 5.8125 39.890625 
Q 5.8125 47.609375 11.28125 51.796875 
Q 16.75 56 26.8125 56 
Q 31.78125 56 36.171875 55.265625 
Q 40.578125 54.546875 44.28125 53.078125 
" id="DejaVuSans-73"/>
     <path d="M 9.421875 54.6875 
L 18.40625 54.6875 
L 18.40625 0 
L 9.421875 0 
z
M 9.421875 75.984375 
L 18.40625 75.984375 
L 18.40625 64.59375 
L 9.421875 64.59375 
z
" id="DejaVuSans-69"/>
    </defs>
    <g transform="translate(12.7 20.298437)scale(0.1 -0.1)">
     <use xlink:href="#DejaVuSans-63"/>
     <use x="54.980469" xlink:href="#DejaVuSans-61"/>
     <use x="116.259766" xlink:href="#DejaVuSans-2d"/>
     <use x="152.34375" xlink:href="#DejaVuSans-6e"/>
     <use x="215.722656" xlink:href="#DejaVuSans-65"/>
     <use x="277.246094" xlink:href="#DejaVuSans-74"/>
     <use x="316.455078" xlink:href="#DejaVuSans-73"/>
     <use x="368.554688" xlink:href="#DejaVuSans-63"/>
     <use x="423.535156" xlink:href="#DejaVuSans-69"/>
     <use x="451.318359" xlink:href="#DejaVuSans-65"/>
     <use x="512.841797" xlink:href="#DejaVuSans-6e"/>
     <use x="576.220703" xlink:href="#DejaVuSans-63"/>
     <use x="631.201172" xlink:href="#DejaVuSans-65"/>
    </g>
   </g>
   <g id="text_2">
    <!-- $\rho = 17$ -->
    <defs>
     <path d="M 18.796875 44.921875 
Q 22.703125 49.90625 30.953125 54.296875 
Q 34.1875 56 43.0625 56 
Q 53.03125 56 57.71875 48.09375 
Q 62.40625 40.1875 59.90625 27.296875 
Q 57.375 14.40625 49.609375 6.484375 
Q 41.84375 -1.421875 31.890625 -1.421875 
Q 25.875 -1.421875 22.015625 0.984375 
Q 18.171875 3.328125 16.3125 8.203125 
L 10.640625 -20.796875 
L 1.609375 -20.796875 
L 10.890625 26.8125 
Q 13.09375 38.09375 18.796875 44.921875 
M 50.59375 27.296875 
Q 52.484375 37.203125 49.515625 42.875 
Q 46.53125 48.484375 39.40625 48.484375 
Q 32.28125 48.484375 27.09375 42.875 
Q 21.921875 37.203125 20.015625 27.296875 
Q 18.0625 17.390625 21.046875 11.71875 
Q 24.03125 6.109375 31.15625 6.109375 
Q 38.28125 6.109375 43.453125 11.71875 
Q 48.640625 17.390625 50.59375 27.296875 
" id="DejaVuSans-Oblique-3c1"/>
     <path d="M 10.59375 45.40625 
L 73.1875 45.40625 
L 73.1875 37.203125 
L 10.59375 37.203125 
z
M 10.59375 25.484375 
L 73.1875 25.484375 
L 73.1875 17.1875 
L 10.59375 17.1875 
z
" id="DejaVuSans-3d"/>
     <path d="M 12.40625 8.296875 
L 28.515625 8.296875 
L 28.515625 63.921875 
L 10.984375 60.40625 
L 10.984375 69.390625 
L 28.421875 72.90625 
L 38.28125 72.90625 
L 38.28125 8.296875 
L 54.390625 8.296875 
L 54.390625 0 
L 12.40625 0 
z
" id="DejaVuSans-31"/>
     <path d="M 8.203125 72.90625 
L 55.078125 72.90625 
L 55.078125 68.703125 
L 28.609375 0 
L 18.3125 0 
L 43.21875 64.59375 
L 8.203125 64.59375 
z
" id="DejaVuSans-37"/>
    </defs>
    <g transform="translate(112.42 20.278125)scale(0.1 -0.1)">
     <use transform="translate(0 0.09375)" xlink:href="#DejaVuSans-Oblique-3c1"/>
     <use transform="translate(82.958984 0.09375)" xlink:href="#DejaVuSans-3d"/>
     <use transform="translate(186.230469 0.09375)" xlink:href="#DejaVuSans-31"/>
     <use transform="translate(249.853516 0.09375)" xlink:href="#DejaVuSans-37"/>
    </g>
   </g>
   <g id="text_3">
    <!-- $\hat{\rho} = 23$ -->
    <defs>
     <path d="M -28.609375 79.984375 
L -21.390625 79.984375 
L -9.421875 61.625 
L -16.21875 61.625 
L -25 73.578125 
L -33.796875 61.625 
L -40.578125 61.625 
z
M -25 56 
z
" id="DejaVuSans-302"/>
     <path d="M 19.1875 8.296875 
L 53.609375 8.296875 
L 53.609375 0 
L 7.328125 0 
L 7.328125 8.296875 
Q 12.9375 14.109375 22.625 23.890625 
Q 32.328125 33.6875 34.8125 36.53125 
Q 39.546875 41.84375 41.421875 45.53125 
Q 43.3125 49.21875 43.3125 52.78125 
Q 43.3125 58.59375 39.234375 62.25 
Q 35.15625 65.921875 28.609375 65.921875 
Q 23.96875 65.921875 18.8125 64.3125 
Q 13.671875 62.703125 7.8125 59.421875 
L 7.8125 69.390625 
Q 13.765625 71.78125 18.9375 73 
Q 24.125 74.21875 28.421875 74.21875 
Q 39.75 74.21875 46.484375 68.546875 
Q 53.21875 62.890625 53.21875 53.421875 
Q 53.21875 48.921875 51.53125 44.890625 
Q 49.859375 40.875 45.40625 35.40625 
Q 44.1875 33.984375 37.640625 27.21875 
Q 31.109375 20.453125 19.1875 8.296875 
" id="DejaVuSans-32"/>
     <path d="M 40.578125 39.3125 
Q 47.65625 37.796875 51.625 33 
Q 55.609375 28.21875 55.609375 21.1875 
Q 55.609375 10.40625 48.1875 4.484375 
Q 40.765625 -1.421875 27.09375 -1.421875 
Q 22.515625 -1.421875 17.65625 -0.515625 
Q 12.796875 0.390625 7.625 2.203125 
L 7.625 11.71875 
Q 11.71875 9.328125 16.59375 8.109375 
Q 21.484375 6.890625 26.8125 6.890625 
Q 36.078125 6.890625 40.9375 10.546875 
Q 45.796875 14.203125 45.796875 21.1875 
Q 45.796875 27.640625 41.28125 31.265625 
Q 36.765625 34.90625 28.71875 34.90625 
L 20.21875 34.90625 
L 20.21875 43.015625 
L 29.109375 43.015625 
Q 36.375 43.015625 40.234375 45.921875 
Q 44.09375 48.828125 44.09375 54.296875 
Q 44.09375 59.90625 40.109375 62.90625 
Q 36.140625 65.921875 28.71875 65.921875 
Q 24.65625 65.921875 20.015625 65.03125 
Q 15.375 64.15625 9.8125 62.3125 
L 9.8125 71.09375 
Q 15.4375 72.65625 20.34375 73.4375 
Q 25.25 74.21875 29.59375 74.21875 
Q 40.828125 74.21875 47.359375 69.109375 
Q 53.90625 64.015625 53.90625 55.328125 
Q 53.90625 49.265625 50.4375 45.09375 
Q 46.96875 40.921875 40.578125 39.3125 
" id="DejaVuSans-33"/>
    </defs>
    <g style="fill:#ff0000;" transform="translate(112.42 35)scale(0.1 -0.1)">
     <use transform="translate(64.447266 13.015625)" xlink:href="#DejaVuSans-302"/>
     <use transform="translate(0 0.515625)" xlink:href="#DejaVuSans-Oblique-3c1"/>
     <use transform="translate(82.958984 0.515625)" xlink:href="#DejaVuSans-3d"/>
     <use transform="translate(186.230469 0.515625)" xlink:href="#DejaVuSans-32"/>
     <use transform="translate(249.853516 0.515625)" xlink:href="#DejaVuSans-33"/>
    </g>
   </g>
   <g id="text_4">
    <!-- $ub = 45$ -->
    <defs>
     <path d="M 6.6875 21.6875 
L 13.09375 54.6875 
L 22.125 54.6875 
L 15.71875 22.015625 
Q 15.234375 19.625 15.015625 17.921875 
Q 14.796875 16.21875 14.796875 15.09375 
Q 14.796875 10.9375 17.328125 8.65625 
Q 19.875 6.390625 24.515625 6.390625 
Q 31.734375 6.390625 37 11.265625 
Q 42.28125 16.15625 43.890625 24.421875 
L 49.90625 54.6875 
L 58.890625 54.6875 
L 48.296875 0 
L 39.3125 0 
L 41.109375 8.59375 
Q 37.3125 3.8125 32.0625 1.1875 
Q 26.8125 -1.421875 20.90625 -1.421875 
Q 13.71875 -1.421875 9.71875 2.515625 
Q 5.71875 6.453125 5.71875 13.484375 
Q 5.71875 14.9375 5.953125 17.140625 
Q 6.203125 19.34375 6.6875 21.6875 
" id="DejaVuSans-Oblique-75"/>
     <path d="M 49.515625 33.40625 
Q 49.515625 40.484375 46.265625 44.484375 
Q 43.015625 48.484375 37.3125 48.484375 
Q 33.15625 48.484375 29.515625 46.453125 
Q 25.875 44.4375 23.1875 40.578125 
Q 20.359375 36.53125 18.71875 31.171875 
Q 17.09375 25.828125 17.09375 20.515625 
Q 17.09375 13.765625 20.28125 9.9375 
Q 23.484375 6.109375 29.109375 6.109375 
Q 33.34375 6.109375 36.953125 8.078125 
Q 40.578125 10.0625 43.3125 13.921875 
Q 46.09375 17.921875 47.796875 23.234375 
Q 49.515625 28.5625 49.515625 33.40625 
M 21.578125 46.390625 
Q 24.90625 50.875 29.90625 53.4375 
Q 34.90625 56 40.375 56 
Q 48.78125 56 53.734375 50.328125 
Q 58.6875 44.671875 58.6875 35.015625 
Q 58.6875 27.09375 55.78125 19.671875 
Q 52.875 12.25 47.515625 6.5 
Q 44 2.6875 39.40625 0.625 
Q 34.8125 -1.421875 29.78125 -1.421875 
Q 24.46875 -1.421875 20.5625 1.015625 
Q 16.65625 3.46875 14.203125 8.296875 
L 12.59375 0 
L 3.609375 0 
L 18.40625 75.984375 
L 27.390625 75.984375 
z
" id="DejaVuSans-Oblique-62"/>
     <path d="M 37.796875 64.3125 
L 12.890625 25.390625 
L 37.796875 25.390625 
z
M 35.203125 72.90625 
L 47.609375 72.90625 
L 47.609375 25.390625 
L 58.015625 25.390625 
L 58.015625 17.1875 
L 47.609375 17.1875 
L 47.609375 0 
L 37.796875 0 
L 37.796875 17.1875 
L 4.890625 17.1875 
L 4.890625 26.703125 
z
" id="DejaVuSans-34"/>
     <path d="M 10.796875 72.90625 
L 49.515625 72.90625 
L 49.515625 64.59375 
L 19.828125 64.59375 
L 19.828125 46.734375 
Q 21.96875 47.46875 24.109375 47.828125 
Q 26.265625 48.1875 28.421875 48.1875 
Q 40.625 48.1875 47.75 41.5 
Q 54.890625 34.8125 54.890625 23.390625 
Q 54.890625 11.625 47.5625 5.09375 
Q 40.234375 -1.421875 26.90625 -1.421875 
Q 22.3125 -1.421875 17.546875 -0.640625 
Q 12.796875 0.140625 7.71875 1.703125 
L 7.71875 11.625 
Q 12.109375 9.234375 16.796875 8.0625 
Q 21.484375 6.890625 26.703125 6.890625 
Q 35.15625 6.890625 40.078125 11.328125 
Q 45.015625 15.765625 45.015625 23.390625 
Q 45.015625 31 40.078125 35.4375 
Q 35.15625 39.890625 26.703125 39.890625 
Q 22.75 39.890625 18.8125 39.015625 
Q 14.890625 38.140625 10.796875 36.28125 
z
" id="DejaVuSans-35"/>
    </defs>
    <g style="fill:#0000ff;" transform="translate(106.12 48.298437)scale(0.1 -0.1)">
     <use transform="translate(0 0.015625)" xlink:href="#DejaVuSans-Oblique-75"/>
     <use transform="translate(63.378906 0.015625)" xlink:href="#DejaVuSans-Oblique-62"/>
     <use transform="translate(146.337891 0.015625)" xlink:href="#DejaVuSans-3d"/>
     <use transform="translate(249.609375 0.015625)" xlink:href="#DejaVuSans-34"/>
     <use transform="translate(313.232422 0.015625)" xlink:href="#DejaVuSans-35"/>
    </g>
   </g>
   <g id="text_5">
    <!-- bio-celegans -->
    <defs>
     <path d="M 48.6875 27.296875 
Q 48.6875 37.203125 44.609375 42.84375 
Q 40.53125 48.484375 33.40625 48.484375 
Q 26.265625 48.484375 22.1875 42.84375 
Q 18.109375 37.203125 18.109375 27.296875 
Q 18.109375 17.390625 22.1875 11.75 
Q 26.265625 6.109375 33.40625 6.109375 
Q 40.53125 6.109375 44.609375 11.75 
Q 48.6875 17.390625 48.6875 27.296875 
M 18.109375 46.390625 
Q 20.953125 51.265625 25.265625 53.625 
Q 29.59375 56 35.59375 56 
Q 45.5625 56 51.78125 48.09375 
Q 58.015625 40.1875 58.015625 27.296875 
Q 58.015625 14.40625 51.78125 6.484375 
Q 45.5625 -1.421875 35.59375 -1.421875 
Q 29.59375 -1.421875 25.265625 0.953125 
Q 20.953125 3.328125 18.109375 8.203125 
L 18.109375 0 
L 9.078125 0 
L 9.078125 75.984375 
L 18.109375 75.984375 
z
" id="DejaVuSans-62"/>
     <path d="M 30.609375 48.390625 
Q 23.390625 48.390625 19.1875 42.75 
Q 14.984375 37.109375 14.984375 27.296875 
Q 14.984375 17.484375 19.15625 11.84375 
Q 23.34375 6.203125 30.609375 6.203125 
Q 37.796875 6.203125 41.984375 11.859375 
Q 46.1875 17.53125 46.1875 27.296875 
Q 46.1875 37.015625 41.984375 42.703125 
Q 37.796875 48.390625 30.609375 48.390625 
M 30.609375 56 
Q 42.328125 56 49.015625 48.375 
Q 55.71875 40.765625 55.71875 27.296875 
Q 55.71875 13.875 49.015625 6.21875 
Q 42.328125 -1.421875 30.609375 -1.421875 
Q 18.84375 -1.421875 12.171875 6.21875 
Q 5.515625 13.875 5.515625 27.296875 
Q 5.515625 40.765625 12.171875 48.375 
Q 18.84375 56 30.609375 56 
" id="DejaVuSans-6f"/>
     <path d="M 9.421875 75.984375 
L 18.40625 75.984375 
L 18.40625 0 
L 9.421875 0 
z
" id="DejaVuSans-6c"/>
     <path d="M 45.40625 27.984375 
Q 45.40625 37.75 41.375 43.109375 
Q 37.359375 48.484375 30.078125 48.484375 
Q 22.859375 48.484375 18.828125 43.109375 
Q 14.796875 37.75 14.796875 27.984375 
Q 14.796875 18.265625 18.828125 12.890625 
Q 22.859375 7.515625 30.078125 7.515625 
Q 37.359375 7.515625 41.375 12.890625 
Q 45.40625 18.265625 45.40625 27.984375 
M 54.390625 6.78125 
Q 54.390625 -7.171875 48.1875 -13.984375 
Q 42 -20.796875 29.203125 -20.796875 
Q 24.46875 -20.796875 20.265625 -20.09375 
Q 16.0625 -19.390625 12.109375 -17.921875 
L 12.109375 -9.1875 
Q 16.0625 -11.328125 19.921875 -12.34375 
Q 23.78125 -13.375 27.78125 -13.375 
Q 36.625 -13.375 41.015625 -8.765625 
Q 45.40625 -4.15625 45.40625 5.171875 
L 45.40625 9.625 
Q 42.625 4.78125 38.28125 2.390625 
Q 33.9375 0 27.875 0 
Q 17.828125 0 11.671875 7.65625 
Q 5.515625 15.328125 5.515625 27.984375 
Q 5.515625 40.671875 11.671875 48.328125 
Q 17.828125 56 27.875 56 
Q 33.9375 56 38.28125 53.609375 
Q 42.625 51.21875 45.40625 46.390625 
L 45.40625 54.6875 
L 54.390625 54.6875 
z
" id="DejaVuSans-67"/>
    </defs>
    <g transform="translate(147.82 20.298437)scale(0.1 -0.1)">
     <use xlink:href="#DejaVuSans-62"/>
     <use x="63.476562" xlink:href="#DejaVuSans-69"/>
     <use x="91.259766" xlink:href="#DejaVuSans-6f"/>
     <use x="152.457031" xlink:href="#DejaVuSans-2d"/>
     <use x="188.541016" xlink:href="#DejaVuSans-63"/>
     <use x="243.521484" xlink:href="#DejaVuSans-65"/>
     <use x="305.044922" xlink:href="#DejaVuSans-6c"/>
     <use x="332.828125" xlink:href="#DejaVuSans-65"/>
     <use x="394.351562" xlink:href="#DejaVuSans-67"/>
     <use x="457.828125" xlink:href="#DejaVuSans-61"/>
     <use x="519.107422" xlink:href="#DejaVuSans-6e"/>
     <use x="582.486328" xlink:href="#DejaVuSans-73"/>
    </g>
   </g>
   <g id="text_6">
    <!-- $\rho = 7$ -->
    <g transform="translate(253.94 20.278125)scale(0.1 -0.1)">
     <use transform="translate(0 0.09375)" xlink:href="#DejaVuSans-Oblique-3c1"/>
     <use transform="translate(82.958984 0.09375)" xlink:href="#DejaVuSans-3d"/>
     <use transform="translate(186.230469 0.09375)" xlink:href="#DejaVuSans-37"/>
    </g>
   </g>
   <g id="text_7">
    <!-- $\hat{\rho} = 7$ -->
    <g style="fill:#ff0000;" transform="translate(253.94 35)scale(0.1 -0.1)">
     <use transform="translate(64.447266 13.015625)" xlink:href="#DejaVuSans-302"/>
     <use transform="translate(0 0.515625)" xlink:href="#DejaVuSans-Oblique-3c1"/>
     <use transform="translate(82.958984 0.515625)" xlink:href="#DejaVuSans-3d"/>
     <use transform="translate(186.230469 0.515625)" xlink:href="#DejaVuSans-37"/>
    </g>
   </g>
   <g id="text_8">
    <!-- $ub = 14$ -->
    <g style="fill:#0000ff;" transform="translate(241.24 48.298437)scale(0.1 -0.1)">
     <use transform="translate(0 0.015625)" xlink:href="#DejaVuSans-Oblique-75"/>
     <use transform="translate(63.378906 0.015625)" xlink:href="#DejaVuSans-Oblique-62"/>
     <use transform="translate(146.337891 0.015625)" xlink:href="#DejaVuSans-3d"/>
     <use transform="translate(249.609375 0.015625)" xlink:href="#DejaVuSans-31"/>
     <use transform="translate(313.232422 0.015625)" xlink:href="#DejaVuSans-34"/>
    </g>
   </g>
   <g id="text_9">
    <!-- rt-twitter-copen -->
    <defs>
     <path d="M 41.109375 46.296875 
Q 39.59375 47.171875 37.8125 47.578125 
Q 36.03125 48 33.890625 48 
Q 26.265625 48 22.1875 43.046875 
Q 18.109375 38.09375 18.109375 28.8125 
L 18.109375 0 
L 9.078125 0 
L 9.078125 54.6875 
L 18.109375 54.6875 
L 18.109375 46.1875 
Q 20.953125 51.171875 25.484375 53.578125 
Q 30.03125 56 36.53125 56 
Q 37.453125 56 38.578125 55.875 
Q 39.703125 55.765625 41.0625 55.515625 
z
" id="DejaVuSans-72"/>
     <path d="M 4.203125 54.6875 
L 13.1875 54.6875 
L 24.421875 12.015625 
L 35.59375 54.6875 
L 46.1875 54.6875 
L 57.421875 12.015625 
L 68.609375 54.6875 
L 77.59375 54.6875 
L 63.28125 0 
L 52.6875 0 
L 40.921875 44.828125 
L 29.109375 0 
L 18.5 0 
z
" id="DejaVuSans-77"/>
     <path d="M 18.109375 8.203125 
L 18.109375 -20.796875 
L 9.078125 -20.796875 
L 9.078125 54.6875 
L 18.109375 54.6875 
L 18.109375 46.390625 
Q 20.953125 51.265625 25.265625 53.625 
Q 29.59375 56 35.59375 56 
Q 45.5625 56 51.78125 48.09375 
Q 58.015625 40.1875 58.015625 27.296875 
Q 58.015625 14.40625 51.78125 6.484375 
Q 45.5625 -1.421875 35.59375 -1.421875 
Q 29.59375 -1.421875 25.265625 0.953125 
Q 20.953125 3.328125 18.109375 8.203125 
M 48.6875 27.296875 
Q 48.6875 37.203125 44.609375 42.84375 
Q 40.53125 48.484375 33.40625 48.484375 
Q 26.265625 48.484375 22.1875 42.84375 
Q 18.109375 37.203125 18.109375 27.296875 
Q 18.109375 17.390625 22.1875 11.75 
Q 26.265625 6.109375 33.40625 6.109375 
Q 40.53125 6.109375 44.609375 11.75 
Q 48.6875 17.390625 48.6875 27.296875 
" id="DejaVuSans-70"/>
    </defs>
    <g transform="translate(282.94 20.298437)scale(0.1 -0.1)">
     <use xlink:href="#DejaVuSans-72"/>
     <use x="41.113281" xlink:href="#DejaVuSans-74"/>
     <use x="80.322266" xlink:href="#DejaVuSans-2d"/>
     <use x="116.40625" xlink:href="#DejaVuSans-74"/>
     <use x="155.615234" xlink:href="#DejaVuSans-77"/>
     <use x="237.402344" xlink:href="#DejaVuSans-69"/>
     <use x="265.185547" xlink:href="#DejaVuSans-74"/>
     <use x="304.394531" xlink:href="#DejaVuSans-74"/>
     <use x="343.603516" xlink:href="#DejaVuSans-65"/>
     <use x="405.126953" xlink:href="#DejaVuSans-72"/>
     <use x="446.146484" xlink:href="#DejaVuSans-2d"/>
     <use x="482.230469" xlink:href="#DejaVuSans-63"/>
     <use x="537.210938" xlink:href="#DejaVuSans-6f"/>
     <use x="598.392578" xlink:href="#DejaVuSans-70"/>
     <use x="661.869141" xlink:href="#DejaVuSans-65"/>
     <use x="723.392578" xlink:href="#DejaVuSans-6e"/>
    </g>
   </g>
   <g id="text_10">
    <!-- $\rho = 14$ -->
    <g transform="translate(382.66 20.278125)scale(0.1 -0.1)">
     <use transform="translate(0 0.09375)" xlink:href="#DejaVuSans-Oblique-3c1"/>
     <use transform="translate(82.958984 0.09375)" xlink:href="#DejaVuSans-3d"/>
     <use transform="translate(186.230469 0.09375)" xlink:href="#DejaVuSans-31"/>
     <use transform="translate(249.853516 0.09375)" xlink:href="#DejaVuSans-34"/>
    </g>
   </g>
   <g id="text_11">
    <!-- $\hat{\rho} = 18$ -->
    <defs>
     <path d="M 31.78125 34.625 
Q 24.75 34.625 20.71875 30.859375 
Q 16.703125 27.09375 16.703125 20.515625 
Q 16.703125 13.921875 20.71875 10.15625 
Q 24.75 6.390625 31.78125 6.390625 
Q 38.8125 6.390625 42.859375 10.171875 
Q 46.921875 13.96875 46.921875 20.515625 
Q 46.921875 27.09375 42.890625 30.859375 
Q 38.875 34.625 31.78125 34.625 
M 21.921875 38.8125 
Q 15.578125 40.375 12.03125 44.71875 
Q 8.5 49.078125 8.5 55.328125 
Q 8.5 64.0625 14.71875 69.140625 
Q 20.953125 74.21875 31.78125 74.21875 
Q 42.671875 74.21875 48.875 69.140625 
Q 55.078125 64.0625 55.078125 55.328125 
Q 55.078125 49.078125 51.53125 44.71875 
Q 48 40.375 41.703125 38.8125 
Q 48.828125 37.15625 52.796875 32.3125 
Q 56.78125 27.484375 56.78125 20.515625 
Q 56.78125 9.90625 50.3125 4.234375 
Q 43.84375 -1.421875 31.78125 -1.421875 
Q 19.734375 -1.421875 13.25 4.234375 
Q 6.78125 9.90625 6.78125 20.515625 
Q 6.78125 27.484375 10.78125 32.3125 
Q 14.796875 37.15625 21.921875 38.8125 
M 18.3125 54.390625 
Q 18.3125 48.734375 21.84375 45.5625 
Q 25.390625 42.390625 31.78125 42.390625 
Q 38.140625 42.390625 41.71875 45.5625 
Q 45.3125 48.734375 45.3125 54.390625 
Q 45.3125 60.0625 41.71875 63.234375 
Q 38.140625 66.40625 31.78125 66.40625 
Q 25.390625 66.40625 21.84375 63.234375 
Q 18.3125 60.0625 18.3125 54.390625 
" id="DejaVuSans-38"/>
    </defs>
    <g style="fill:#ff0000;" transform="translate(382.66 35)scale(0.1 -0.1)">
     <use transform="translate(64.447266 13.015625)" xlink:href="#DejaVuSans-302"/>
     <use transform="translate(0 0.515625)" xlink:href="#DejaVuSans-Oblique-3c1"/>
     <use transform="translate(82.958984 0.515625)" xlink:href="#DejaVuSans-3d"/>
     <use transform="translate(186.230469 0.515625)" xlink:href="#DejaVuSans-31"/>
     <use transform="translate(249.853516 0.515625)" xlink:href="#DejaVuSans-38"/>
    </g>
   </g>
   <g id="text_12">
    <!-- $ub = 36$ -->
    <defs>
     <path d="M 33.015625 40.375 
Q 26.375 40.375 22.484375 35.828125 
Q 18.609375 31.296875 18.609375 23.390625 
Q 18.609375 15.53125 22.484375 10.953125 
Q 26.375 6.390625 33.015625 6.390625 
Q 39.65625 6.390625 43.53125 10.953125 
Q 47.40625 15.53125 47.40625 23.390625 
Q 47.40625 31.296875 43.53125 35.828125 
Q 39.65625 40.375 33.015625 40.375 
M 52.59375 71.296875 
L 52.59375 62.3125 
Q 48.875 64.0625 45.09375 64.984375 
Q 41.3125 65.921875 37.59375 65.921875 
Q 27.828125 65.921875 22.671875 59.328125 
Q 17.53125 52.734375 16.796875 39.40625 
Q 19.671875 43.65625 24.015625 45.921875 
Q 28.375 48.1875 33.59375 48.1875 
Q 44.578125 48.1875 50.953125 41.515625 
Q 57.328125 34.859375 57.328125 23.390625 
Q 57.328125 12.15625 50.6875 5.359375 
Q 44.046875 -1.421875 33.015625 -1.421875 
Q 20.359375 -1.421875 13.671875 8.265625 
Q 6.984375 17.96875 6.984375 36.375 
Q 6.984375 53.65625 15.1875 63.9375 
Q 23.390625 74.21875 37.203125 74.21875 
Q 40.921875 74.21875 44.703125 73.484375 
Q 48.484375 72.75 52.59375 71.296875 
" id="DejaVuSans-36"/>
    </defs>
    <g style="fill:#0000ff;" transform="translate(376.36 48.298437)scale(0.1 -0.1)">
     <use transform="translate(0 0.015625)" xlink:href="#DejaVuSans-Oblique-75"/>
     <use transform="translate(63.378906 0.015625)" xlink:href="#DejaVuSans-Oblique-62"/>
     <use transform="translate(146.337891 0.015625)" xlink:href="#DejaVuSans-3d"/>
     <use transform="translate(249.609375 0.015625)" xlink:href="#DejaVuSans-33"/>
     <use transform="translate(313.232422 0.015625)" xlink:href="#DejaVuSans-36"/>
    </g>
   </g>
   <g id="text_13">
    <!-- soc-wiki-Vote -->
    <defs>
     <path d="M 9.078125 75.984375 
L 18.109375 75.984375 
L 18.109375 31.109375 
L 44.921875 54.6875 
L 56.390625 54.6875 
L 27.390625 29.109375 
L 57.625 0 
L 45.90625 0 
L 18.109375 26.703125 
L 18.109375 0 
L 9.078125 0 
z
" id="DejaVuSans-6b"/>
     <path d="M 28.609375 0 
L 0.78125 72.90625 
L 11.078125 72.90625 
L 34.1875 11.53125 
L 57.328125 72.90625 
L 67.578125 72.90625 
L 39.796875 0 
z
" id="DejaVuSans-56"/>
    </defs>
    <g transform="translate(418.06 20.298437)scale(0.1 -0.1)">
     <use xlink:href="#DejaVuSans-73"/>
     <use x="52.099609" xlink:href="#DejaVuSans-6f"/>
     <use x="113.28125" xlink:href="#DejaVuSans-63"/>
     <use x="168.261719" xlink:href="#DejaVuSans-2d"/>
     <use x="204.345703" xlink:href="#DejaVuSans-77"/>
     <use x="286.132812" xlink:href="#DejaVuSans-69"/>
     <use x="313.916016" xlink:href="#DejaVuSans-6b"/>
     <use x="371.826172" xlink:href="#DejaVuSans-69"/>
     <use x="399.609375" xlink:href="#DejaVuSans-2d"/>
     <use x="435.615234" xlink:href="#DejaVuSans-56"/>
     <use x="503.914062" xlink:href="#DejaVuSans-6f"/>
     <use x="565.095703" xlink:href="#DejaVuSans-74"/>
     <use x="604.304688" xlink:href="#DejaVuSans-65"/>
    </g>
   </g>
   <g id="text_14">
    <!-- $\rho = 13$ -->
    <g transform="translate(517.78 20.278125)scale(0.1 -0.1)">
     <use transform="translate(0 0.78125)" xlink:href="#DejaVuSans-Oblique-3c1"/>
     <use transform="translate(82.958984 0.78125)" xlink:href="#DejaVuSans-3d"/>
     <use transform="translate(186.230469 0.78125)" xlink:href="#DejaVuSans-31"/>
     <use transform="translate(249.853516 0.78125)" xlink:href="#DejaVuSans-33"/>
    </g>
   </g>
   <g id="text_15">
    <!-- $\hat{\rho} = 11$ -->
    <g style="fill:#ff0000;" transform="translate(517.78 35)scale(0.1 -0.1)">
     <use transform="translate(64.447266 13.015625)" xlink:href="#DejaVuSans-302"/>
     <use transform="translate(0 0.515625)" xlink:href="#DejaVuSans-Oblique-3c1"/>
     <use transform="translate(82.958984 0.515625)" xlink:href="#DejaVuSans-3d"/>
     <use transform="translate(186.230469 0.515625)" xlink:href="#DejaVuSans-31"/>
     <use transform="translate(249.853516 0.515625)" xlink:href="#DejaVuSans-31"/>
    </g>
   </g>
   <g id="text_16">
    <!-- $ub = 22$ -->
    <g style="fill:#0000ff;" transform="translate(511.48 48.298437)scale(0.1 -0.1)">
     <use transform="translate(0 0.015625)" xlink:href="#DejaVuSans-Oblique-75"/>
     <use transform="translate(63.378906 0.015625)" xlink:href="#DejaVuSans-Oblique-62"/>
     <use transform="translate(146.337891 0.015625)" xlink:href="#DejaVuSans-3d"/>
     <use transform="translate(249.609375 0.015625)" xlink:href="#DejaVuSans-32"/>
     <use transform="translate(313.232422 0.015625)" xlink:href="#DejaVuSans-32"/>
    </g>
   </g>
   <g id="text_17">
    <!-- ia-email-univ -->
    <defs>
     <path d="M 52 44.1875 
Q 55.375 50.25 60.0625 53.125 
Q 64.75 56 71.09375 56 
Q 79.640625 56 84.28125 50.015625 
Q 88.921875 44.046875 88.921875 33.015625 
L 88.921875 0 
L 79.890625 0 
L 79.890625 32.71875 
Q 79.890625 40.578125 77.09375 44.375 
Q 74.3125 48.1875 68.609375 48.1875 
Q 61.625 48.1875 57.5625 43.546875 
Q 53.515625 38.921875 53.515625 30.90625 
L 53.515625 0 
L 44.484375 0 
L 44.484375 32.71875 
Q 44.484375 40.625 41.703125 44.40625 
Q 38.921875 48.1875 33.109375 48.1875 
Q 26.21875 48.1875 22.15625 43.53125 
Q 18.109375 38.875 18.109375 30.90625 
L 18.109375 0 
L 9.078125 0 
L 9.078125 54.6875 
L 18.109375 54.6875 
L 18.109375 46.1875 
Q 21.1875 51.21875 25.484375 53.609375 
Q 29.78125 56 35.6875 56 
Q 41.65625 56 45.828125 52.96875 
Q 50 49.953125 52 44.1875 
" id="DejaVuSans-6d"/>
     <path d="M 8.5 21.578125 
L 8.5 54.6875 
L 17.484375 54.6875 
L 17.484375 21.921875 
Q 17.484375 14.15625 20.5 10.265625 
Q 23.53125 6.390625 29.59375 6.390625 
Q 36.859375 6.390625 41.078125 11.03125 
Q 45.3125 15.671875 45.3125 23.6875 
L 45.3125 54.6875 
L 54.296875 54.6875 
L 54.296875 0 
L 45.3125 0 
L 45.3125 8.40625 
Q 42.046875 3.421875 37.71875 1 
Q 33.40625 -1.421875 27.6875 -1.421875 
Q 18.265625 -1.421875 13.375 4.4375 
Q 8.5 10.296875 8.5 21.578125 
M 31.109375 56 
z
" id="DejaVuSans-75"/>
     <path d="M 2.984375 54.6875 
L 12.5 54.6875 
L 29.59375 8.796875 
L 46.6875 54.6875 
L 56.203125 54.6875 
L 35.6875 0 
L 23.484375 0 
z
" id="DejaVuSans-76"/>
    </defs>
    <g transform="translate(12.7 150.978437)scale(0.1 -0.1)">
     <use xlink:href="#DejaVuSans-69"/>
     <use x="27.783203" xlink:href="#DejaVuSans-61"/>
     <use x="89.0625" xlink:href="#DejaVuSans-2d"/>
     <use x="125.146484" xlink:href="#DejaVuSans-65"/>
     <use x="186.669922" xlink:href="#DejaVuSans-6d"/>
     <use x="284.082031" xlink:href="#DejaVuSans-61"/>
     <use x="345.361328" xlink:href="#DejaVuSans-69"/>
     <use x="373.144531" xlink:href="#DejaVuSans-6c"/>
     <use x="400.927734" xlink:href="#DejaVuSans-2d"/>
     <use x="437.011719" xlink:href="#DejaVuSans-75"/>
     <use x="500.390625" xlink:href="#DejaVuSans-6e"/>
     <use x="563.769531" xlink:href="#DejaVuSans-69"/>
     <use x="591.552734" xlink:href="#DejaVuSans-76"/>
    </g>
   </g>
   <g id="text_18">
    <!-- $\rho = 8$ -->
    <g transform="translate(118.82 150.958125)scale(0.1 -0.1)">
     <use transform="translate(0 0.78125)" xlink:href="#DejaVuSans-Oblique-3c1"/>
     <use transform="translate(82.958984 0.78125)" xlink:href="#DejaVuSans-3d"/>
     <use transform="translate(186.230469 0.78125)" xlink:href="#DejaVuSans-38"/>
    </g>
   </g>
   <g id="text_19">
    <!-- $\hat{\rho} = 6$ -->
    <g style="fill:#ff0000;" transform="translate(118.82 165.68)scale(0.1 -0.1)">
     <use transform="translate(64.447266 13.015625)" xlink:href="#DejaVuSans-302"/>
     <use transform="translate(0 0.515625)" xlink:href="#DejaVuSans-Oblique-3c1"/>
     <use transform="translate(82.958984 0.515625)" xlink:href="#DejaVuSans-3d"/>
     <use transform="translate(186.230469 0.515625)" xlink:href="#DejaVuSans-36"/>
    </g>
   </g>
   <g id="text_20">
    <!-- $ub = 13$ -->
    <g style="fill:#0000ff;" transform="translate(106.12 178.978437)scale(0.1 -0.1)">
     <use transform="translate(0 0.015625)" xlink:href="#DejaVuSans-Oblique-75"/>
     <use transform="translate(63.378906 0.015625)" xlink:href="#DejaVuSans-Oblique-62"/>
     <use transform="translate(146.337891 0.015625)" xlink:href="#DejaVuSans-3d"/>
     <use transform="translate(249.609375 0.015625)" xlink:href="#DejaVuSans-31"/>
     <use transform="translate(313.232422 0.015625)" xlink:href="#DejaVuSans-33"/>
    </g>
   </g>
   <g id="text_21">
    <!-- ia-fb-messages -->
    <defs>
     <path d="M 37.109375 75.984375 
L 37.109375 68.5 
L 28.515625 68.5 
Q 23.6875 68.5 21.796875 66.546875 
Q 19.921875 64.59375 19.921875 59.515625 
L 19.921875 54.6875 
L 34.71875 54.6875 
L 34.71875 47.703125 
L 19.921875 47.703125 
L 19.921875 0 
L 10.890625 0 
L 10.890625 47.703125 
L 2.296875 47.703125 
L 2.296875 54.6875 
L 10.890625 54.6875 
L 10.890625 58.5 
Q 10.890625 67.625 15.140625 71.796875 
Q 19.390625 75.984375 28.609375 75.984375 
z
" id="DejaVuSans-66"/>
    </defs>
    <g transform="translate(147.82 150.978437)scale(0.1 -0.1)">
     <use xlink:href="#DejaVuSans-69"/>
     <use x="27.783203" xlink:href="#DejaVuSans-61"/>
     <use x="89.0625" xlink:href="#DejaVuSans-2d"/>
     <use x="125.146484" xlink:href="#DejaVuSans-66"/>
     <use x="160.351562" xlink:href="#DejaVuSans-62"/>
     <use x="223.828125" xlink:href="#DejaVuSans-2d"/>
     <use x="259.912109" xlink:href="#DejaVuSans-6d"/>
     <use x="357.324219" xlink:href="#DejaVuSans-65"/>
     <use x="418.847656" xlink:href="#DejaVuSans-73"/>
     <use x="470.947266" xlink:href="#DejaVuSans-73"/>
     <use x="523.046875" xlink:href="#DejaVuSans-61"/>
     <use x="584.326172" xlink:href="#DejaVuSans-67"/>
     <use x="647.802734" xlink:href="#DejaVuSans-65"/>
     <use x="709.326172" xlink:href="#DejaVuSans-73"/>
    </g>
   </g>
   <g id="text_22">
    <!-- $\rho = 9$ -->
    <defs>
     <path d="M 10.984375 1.515625 
L 10.984375 10.5 
Q 14.703125 8.734375 18.5 7.8125 
Q 22.3125 6.890625 25.984375 6.890625 
Q 35.75 6.890625 40.890625 13.453125 
Q 46.046875 20.015625 46.78125 33.40625 
Q 43.953125 29.203125 39.59375 26.953125 
Q 35.25 24.703125 29.984375 24.703125 
Q 19.046875 24.703125 12.671875 31.3125 
Q 6.296875 37.9375 6.296875 49.421875 
Q 6.296875 60.640625 12.9375 67.421875 
Q 19.578125 74.21875 30.609375 74.21875 
Q 43.265625 74.21875 49.921875 64.515625 
Q 56.59375 54.828125 56.59375 36.375 
Q 56.59375 19.140625 48.40625 8.859375 
Q 40.234375 -1.421875 26.421875 -1.421875 
Q 22.703125 -1.421875 18.890625 -0.6875 
Q 15.09375 0.046875 10.984375 1.515625 
M 30.609375 32.421875 
Q 37.25 32.421875 41.125 36.953125 
Q 45.015625 41.5 45.015625 49.421875 
Q 45.015625 57.28125 41.125 61.84375 
Q 37.25 66.40625 30.609375 66.40625 
Q 23.96875 66.40625 20.09375 61.84375 
Q 16.21875 57.28125 16.21875 49.421875 
Q 16.21875 41.5 20.09375 36.953125 
Q 23.96875 32.421875 30.609375 32.421875 
" id="DejaVuSans-39"/>
    </defs>
    <g transform="translate(253.94 150.958125)scale(0.1 -0.1)">
     <use transform="translate(0 0.78125)" xlink:href="#DejaVuSans-Oblique-3c1"/>
     <use transform="translate(82.958984 0.78125)" xlink:href="#DejaVuSans-3d"/>
     <use transform="translate(186.230469 0.78125)" xlink:href="#DejaVuSans-39"/>
    </g>
   </g>
   <g id="text_23">
    <!-- $\hat{\rho} = 8$ -->
    <g style="fill:#ff0000;" transform="translate(253.94 165.68)scale(0.1 -0.1)">
     <use transform="translate(64.447266 13.015625)" xlink:href="#DejaVuSans-302"/>
     <use transform="translate(0 0.515625)" xlink:href="#DejaVuSans-Oblique-3c1"/>
     <use transform="translate(82.958984 0.515625)" xlink:href="#DejaVuSans-3d"/>
     <use transform="translate(186.230469 0.515625)" xlink:href="#DejaVuSans-38"/>
    </g>
   </g>
   <g id="text_24">
    <!-- $ub = 16$ -->
    <g style="fill:#0000ff;" transform="translate(241.24 178.978437)scale(0.1 -0.1)">
     <use transform="translate(0 0.015625)" xlink:href="#DejaVuSans-Oblique-75"/>
     <use transform="translate(63.378906 0.015625)" xlink:href="#DejaVuSans-Oblique-62"/>
     <use transform="translate(146.337891 0.015625)" xlink:href="#DejaVuSans-3d"/>
     <use transform="translate(249.609375 0.015625)" xlink:href="#DejaVuSans-31"/>
     <use transform="translate(313.232422 0.015625)" xlink:href="#DejaVuSans-36"/>
    </g>
   </g>
   <g id="text_25">
    <!-- web-google -->
    <g transform="translate(282.94 150.978437)scale(0.1 -0.1)">
     <use xlink:href="#DejaVuSans-77"/>
     <use x="81.787109" xlink:href="#DejaVuSans-65"/>
     <use x="143.310547" xlink:href="#DejaVuSans-62"/>
     <use x="206.787109" xlink:href="#DejaVuSans-2d"/>
     <use x="242.871094" xlink:href="#DejaVuSans-67"/>
     <use x="306.347656" xlink:href="#DejaVuSans-6f"/>
     <use x="367.529297" xlink:href="#DejaVuSans-6f"/>
     <use x="428.710938" xlink:href="#DejaVuSans-67"/>
     <use x="492.1875" xlink:href="#DejaVuSans-6c"/>
     <use x="519.970703" xlink:href="#DejaVuSans-65"/>
    </g>
   </g>
   <g id="text_26">
    <!-- $\rho = 14$ -->
    <g transform="translate(382.66 150.958125)scale(0.1 -0.1)">
     <use transform="translate(0 0.09375)" xlink:href="#DejaVuSans-Oblique-3c1"/>
     <use transform="translate(82.958984 0.09375)" xlink:href="#DejaVuSans-3d"/>
     <use transform="translate(186.230469 0.09375)" xlink:href="#DejaVuSans-31"/>
     <use transform="translate(249.853516 0.09375)" xlink:href="#DejaVuSans-34"/>
    </g>
   </g>
   <g id="text_27">
    <!-- $\hat{\rho} = 36$ -->
    <g style="fill:#ff0000;" transform="translate(382.66 165.68)scale(0.1 -0.1)">
     <use transform="translate(64.447266 13.015625)" xlink:href="#DejaVuSans-302"/>
     <use transform="translate(0 0.515625)" xlink:href="#DejaVuSans-Oblique-3c1"/>
     <use transform="translate(82.958984 0.515625)" xlink:href="#DejaVuSans-3d"/>
     <use transform="translate(186.230469 0.515625)" xlink:href="#DejaVuSans-33"/>
     <use transform="translate(249.853516 0.515625)" xlink:href="#DejaVuSans-36"/>
    </g>
   </g>
   <g id="text_28">
    <!-- $ub = 72$ -->
    <g style="fill:#0000ff;" transform="translate(376.36 178.978437)scale(0.1 -0.1)">
     <use transform="translate(0 0.015625)" xlink:href="#DejaVuSans-Oblique-75"/>
     <use transform="translate(63.378906 0.015625)" xlink:href="#DejaVuSans-Oblique-62"/>
     <use transform="translate(146.337891 0.015625)" xlink:href="#DejaVuSans-3d"/>
     <use transform="translate(249.609375 0.015625)" xlink:href="#DejaVuSans-37"/>
     <use transform="translate(313.232422 0.015625)" xlink:href="#DejaVuSans-32"/>
    </g>
   </g>
   <g id="text_29">
    <!-- bio-yeast -->
    <defs>
     <path d="M 32.171875 -5.078125 
Q 28.375 -14.84375 24.75 -17.8125 
Q 21.140625 -20.796875 15.09375 -20.796875 
L 7.90625 -20.796875 
L 7.90625 -13.28125 
L 13.1875 -13.28125 
Q 16.890625 -13.28125 18.9375 -11.515625 
Q 21 -9.765625 23.484375 -3.21875 
L 25.09375 0.875 
L 2.984375 54.6875 
L 12.5 54.6875 
L 29.59375 11.921875 
L 46.6875 54.6875 
L 56.203125 54.6875 
z
" id="DejaVuSans-79"/>
    </defs>
    <g transform="translate(418.06 150.978437)scale(0.1 -0.1)">
     <use xlink:href="#DejaVuSans-62"/>
     <use x="63.476562" xlink:href="#DejaVuSans-69"/>
     <use x="91.259766" xlink:href="#DejaVuSans-6f"/>
     <use x="152.457031" xlink:href="#DejaVuSans-2d"/>
     <use x="188.525391" xlink:href="#DejaVuSans-79"/>
     <use x="247.705078" xlink:href="#DejaVuSans-65"/>
     <use x="309.228516" xlink:href="#DejaVuSans-61"/>
     <use x="370.507812" xlink:href="#DejaVuSans-73"/>
     <use x="422.607422" xlink:href="#DejaVuSans-74"/>
    </g>
   </g>
   <g id="text_30">
    <!-- $\rho = 19$ -->
    <g transform="translate(517.78 150.958125)scale(0.1 -0.1)">
     <use transform="translate(0 0.78125)" xlink:href="#DejaVuSans-Oblique-3c1"/>
     <use transform="translate(82.958984 0.78125)" xlink:href="#DejaVuSans-3d"/>
     <use transform="translate(186.230469 0.78125)" xlink:href="#DejaVuSans-31"/>
     <use transform="translate(249.853516 0.78125)" xlink:href="#DejaVuSans-39"/>
    </g>
   </g>
   <g id="text_31">
    <!-- $\hat{\rho} = 22$ -->
    <g style="fill:#ff0000;" transform="translate(517.78 165.68)scale(0.1 -0.1)">
     <use transform="translate(64.447266 13.015625)" xlink:href="#DejaVuSans-302"/>
     <use transform="translate(0 0.515625)" xlink:href="#DejaVuSans-Oblique-3c1"/>
     <use transform="translate(82.958984 0.515625)" xlink:href="#DejaVuSans-3d"/>
     <use transform="translate(186.230469 0.515625)" xlink:href="#DejaVuSans-32"/>
     <use transform="translate(249.853516 0.515625)" xlink:href="#DejaVuSans-32"/>
    </g>
   </g>
   <g id="text_32">
    <!-- $ub = 44$ -->
    <g style="fill:#0000ff;" transform="translate(511.48 178.978437)scale(0.1 -0.1)">
     <use transform="translate(0 0.015625)" xlink:href="#DejaVuSans-Oblique-75"/>
     <use transform="translate(63.378906 0.015625)" xlink:href="#DejaVuSans-Oblique-62"/>
     <use transform="translate(146.337891 0.015625)" xlink:href="#DejaVuSans-3d"/>
     <use transform="translate(249.609375 0.015625)" xlink:href="#DejaVuSans-34"/>
     <use transform="translate(313.232422 0.015625)" xlink:href="#DejaVuSans-34"/>
    </g>
   </g>
   <g id="text_33">
    <!-- tech-routers-rf -->
    <defs>
     <path d="M 54.890625 33.015625 
L 54.890625 0 
L 45.90625 0 
L 45.90625 32.71875 
Q 45.90625 40.484375 42.875 44.328125 
Q 39.84375 48.1875 33.796875 48.1875 
Q 26.515625 48.1875 22.3125 43.546875 
Q 18.109375 38.921875 18.109375 30.90625 
L 18.109375 0 
L 9.078125 0 
L 9.078125 75.984375 
L 18.109375 75.984375 
L 18.109375 46.1875 
Q 21.34375 51.125 25.703125 53.5625 
Q 30.078125 56 35.796875 56 
Q 45.21875 56 50.046875 50.171875 
Q 54.890625 44.34375 54.890625 33.015625 
" id="DejaVuSans-68"/>
    </defs>
    <g transform="translate(12.7 281.658437)scale(0.1 -0.1)">
     <use xlink:href="#DejaVuSans-74"/>
     <use x="39.208984" xlink:href="#DejaVuSans-65"/>
     <use x="100.732422" xlink:href="#DejaVuSans-63"/>
     <use x="155.712891" xlink:href="#DejaVuSans-68"/>
     <use x="219.091797" xlink:href="#DejaVuSans-2d"/>
     <use x="255.175781" xlink:href="#DejaVuSans-72"/>
     <use x="296.257812" xlink:href="#DejaVuSans-6f"/>
     <use x="357.439453" xlink:href="#DejaVuSans-75"/>
     <use x="420.818359" xlink:href="#DejaVuSans-74"/>
     <use x="460.027344" xlink:href="#DejaVuSans-65"/>
     <use x="521.550781" xlink:href="#DejaVuSans-72"/>
     <use x="562.664062" xlink:href="#DejaVuSans-73"/>
     <use x="614.763672" xlink:href="#DejaVuSans-2d"/>
     <use x="650.847656" xlink:href="#DejaVuSans-72"/>
     <use x="691.960938" xlink:href="#DejaVuSans-66"/>
    </g>
   </g>
   <g id="text_34">
    <!-- $\rho = 12$ -->
    <g transform="translate(112.42 281.638125)scale(0.1 -0.1)">
     <use transform="translate(0 0.78125)" xlink:href="#DejaVuSans-Oblique-3c1"/>
     <use transform="translate(82.958984 0.78125)" xlink:href="#DejaVuSans-3d"/>
     <use transform="translate(186.230469 0.78125)" xlink:href="#DejaVuSans-31"/>
     <use transform="translate(249.853516 0.78125)" xlink:href="#DejaVuSans-32"/>
    </g>
   </g>
   <g id="text_35">
    <!-- $\hat{\rho} = 16$ -->
    <g style="fill:#ff0000;" transform="translate(112.42 296.36)scale(0.1 -0.1)">
     <use transform="translate(64.447266 13.015625)" xlink:href="#DejaVuSans-302"/>
     <use transform="translate(0 0.515625)" xlink:href="#DejaVuSans-Oblique-3c1"/>
     <use transform="translate(82.958984 0.515625)" xlink:href="#DejaVuSans-3d"/>
     <use transform="translate(186.230469 0.515625)" xlink:href="#DejaVuSans-31"/>
     <use transform="translate(249.853516 0.515625)" xlink:href="#DejaVuSans-36"/>
    </g>
   </g>
   <g id="text_36">
    <!-- $ub = 31$ -->
    <g style="fill:#0000ff;" transform="translate(106.12 309.658437)scale(0.1 -0.1)">
     <use transform="translate(0 0.015625)" xlink:href="#DejaVuSans-Oblique-75"/>
     <use transform="translate(63.378906 0.015625)" xlink:href="#DejaVuSans-Oblique-62"/>
     <use transform="translate(146.337891 0.015625)" xlink:href="#DejaVuSans-3d"/>
     <use transform="translate(249.609375 0.015625)" xlink:href="#DejaVuSans-33"/>
     <use transform="translate(313.232422 0.015625)" xlink:href="#DejaVuSans-31"/>
    </g>
   </g>
   <g id="text_37">
    <!-- socfb-nips-ego -->
    <g transform="translate(147.82 281.658437)scale(0.1 -0.1)">
     <use xlink:href="#DejaVuSans-73"/>
     <use x="52.099609" xlink:href="#DejaVuSans-6f"/>
     <use x="113.28125" xlink:href="#DejaVuSans-63"/>
     <use x="168.261719" xlink:href="#DejaVuSans-66"/>
     <use x="203.466797" xlink:href="#DejaVuSans-62"/>
     <use x="266.943359" xlink:href="#DejaVuSans-2d"/>
     <use x="303.027344" xlink:href="#DejaVuSans-6e"/>
     <use x="366.40625" xlink:href="#DejaVuSans-69"/>
     <use x="394.189453" xlink:href="#DejaVuSans-70"/>
     <use x="457.666016" xlink:href="#DejaVuSans-73"/>
     <use x="509.765625" xlink:href="#DejaVuSans-2d"/>
     <use x="545.849609" xlink:href="#DejaVuSans-65"/>
     <use x="607.373047" xlink:href="#DejaVuSans-67"/>
     <use x="670.849609" xlink:href="#DejaVuSans-6f"/>
    </g>
   </g>
   <g id="text_38">
    <!-- $\rho = 9$ -->
    <g transform="translate(253.94 281.638125)scale(0.1 -0.1)">
     <use transform="translate(0 0.78125)" xlink:href="#DejaVuSans-Oblique-3c1"/>
     <use transform="translate(82.958984 0.78125)" xlink:href="#DejaVuSans-3d"/>
     <use transform="translate(186.230469 0.78125)" xlink:href="#DejaVuSans-39"/>
    </g>
   </g>
   <g id="text_39">
    <!-- $\hat{\rho} = 60$ -->
    <defs>
     <path d="M 31.78125 66.40625 
Q 24.171875 66.40625 20.328125 58.90625 
Q 16.5 51.421875 16.5 36.375 
Q 16.5 21.390625 20.328125 13.890625 
Q 24.171875 6.390625 31.78125 6.390625 
Q 39.453125 6.390625 43.28125 13.890625 
Q 47.125 21.390625 47.125 36.375 
Q 47.125 51.421875 43.28125 58.90625 
Q 39.453125 66.40625 31.78125 66.40625 
M 31.78125 74.21875 
Q 44.046875 74.21875 50.515625 64.515625 
Q 56.984375 54.828125 56.984375 36.375 
Q 56.984375 17.96875 50.515625 8.265625 
Q 44.046875 -1.421875 31.78125 -1.421875 
Q 19.53125 -1.421875 13.0625 8.265625 
Q 6.59375 17.96875 6.59375 36.375 
Q 6.59375 54.828125 13.0625 64.515625 
Q 19.53125 74.21875 31.78125 74.21875 
" id="DejaVuSans-30"/>
    </defs>
    <g style="fill:#ff0000;" transform="translate(247.54 296.36)scale(0.1 -0.1)">
     <use transform="translate(64.447266 13.015625)" xlink:href="#DejaVuSans-302"/>
     <use transform="translate(0 0.515625)" xlink:href="#DejaVuSans-Oblique-3c1"/>
     <use transform="translate(82.958984 0.515625)" xlink:href="#DejaVuSans-3d"/>
     <use transform="translate(186.230469 0.515625)" xlink:href="#DejaVuSans-36"/>
     <use transform="translate(249.853516 0.515625)" xlink:href="#DejaVuSans-30"/>
    </g>
   </g>
   <g id="text_40">
    <!-- $ub = 119$ -->
    <g style="fill:#0000ff;" transform="translate(234.84 309.658437)scale(0.1 -0.1)">
     <use transform="translate(0 0.015625)" xlink:href="#DejaVuSans-Oblique-75"/>
     <use transform="translate(63.378906 0.015625)" xlink:href="#DejaVuSans-Oblique-62"/>
     <use transform="translate(146.337891 0.015625)" xlink:href="#DejaVuSans-3d"/>
     <use transform="translate(249.609375 0.015625)" xlink:href="#DejaVuSans-31"/>
     <use transform="translate(313.232422 0.015625)" xlink:href="#DejaVuSans-31"/>
     <use transform="translate(376.855469 0.015625)" xlink:href="#DejaVuSans-39"/>
    </g>
   </g>
   <g id="text_41">
    <!-- web-edu -->
    <defs>
     <path d="M 45.40625 46.390625 
L 45.40625 75.984375 
L 54.390625 75.984375 
L 54.390625 0 
L 45.40625 0 
L 45.40625 8.203125 
Q 42.578125 3.328125 38.25 0.953125 
Q 33.9375 -1.421875 27.875 -1.421875 
Q 17.96875 -1.421875 11.734375 6.484375 
Q 5.515625 14.40625 5.515625 27.296875 
Q 5.515625 40.1875 11.734375 48.09375 
Q 17.96875 56 27.875 56 
Q 33.9375 56 38.25 53.625 
Q 42.578125 51.265625 45.40625 46.390625 
M 14.796875 27.296875 
Q 14.796875 17.390625 18.875 11.75 
Q 22.953125 6.109375 30.078125 6.109375 
Q 37.203125 6.109375 41.296875 11.75 
Q 45.40625 17.390625 45.40625 27.296875 
Q 45.40625 37.203125 41.296875 42.84375 
Q 37.203125 48.484375 30.078125 48.484375 
Q 22.953125 48.484375 18.875 42.84375 
Q 14.796875 37.203125 14.796875 27.296875 
" id="DejaVuSans-64"/>
    </defs>
    <g transform="translate(282.94 281.658437)scale(0.1 -0.1)">
     <use xlink:href="#DejaVuSans-77"/>
     <use x="81.787109" xlink:href="#DejaVuSans-65"/>
     <use x="143.310547" xlink:href="#DejaVuSans-62"/>
     <use x="206.787109" xlink:href="#DejaVuSans-2d"/>
     <use x="242.871094" xlink:href="#DejaVuSans-65"/>
     <use x="304.394531" xlink:href="#DejaVuSans-64"/>
     <use x="367.871094" xlink:href="#DejaVuSans-75"/>
    </g>
   </g>
   <g id="text_42">
    <!-- $\rho = 11$ -->
    <g transform="translate(382.66 281.638125)scale(0.1 -0.1)">
     <use transform="translate(0 0.09375)" xlink:href="#DejaVuSans-Oblique-3c1"/>
     <use transform="translate(82.958984 0.09375)" xlink:href="#DejaVuSans-3d"/>
     <use transform="translate(186.230469 0.09375)" xlink:href="#DejaVuSans-31"/>
     <use transform="translate(249.853516 0.09375)" xlink:href="#DejaVuSans-31"/>
    </g>
   </g>
   <g id="text_43">
    <!-- $\hat{\rho} = 38$ -->
    <g style="fill:#ff0000;" transform="translate(382.66 296.36)scale(0.1 -0.1)">
     <use transform="translate(64.447266 13.015625)" xlink:href="#DejaVuSans-302"/>
     <use transform="translate(0 0.515625)" xlink:href="#DejaVuSans-Oblique-3c1"/>
     <use transform="translate(82.958984 0.515625)" xlink:href="#DejaVuSans-3d"/>
     <use transform="translate(186.230469 0.515625)" xlink:href="#DejaVuSans-33"/>
     <use transform="translate(249.853516 0.515625)" xlink:href="#DejaVuSans-38"/>
    </g>
   </g>
   <g id="text_44">
    <!-- $ub = 77$ -->
    <g style="fill:#0000ff;" transform="translate(376.36 309.658437)scale(0.1 -0.1)">
     <use transform="translate(0 0.015625)" xlink:href="#DejaVuSans-Oblique-75"/>
     <use transform="translate(63.378906 0.015625)" xlink:href="#DejaVuSans-Oblique-62"/>
     <use transform="translate(146.337891 0.015625)" xlink:href="#DejaVuSans-3d"/>
     <use transform="translate(249.609375 0.015625)" xlink:href="#DejaVuSans-37"/>
     <use transform="translate(313.216797 0.015625)" xlink:href="#DejaVuSans-37"/>
    </g>
   </g>
   <g id="text_45">
    <!-- inf-power -->
    <g transform="translate(418.06 281.658437)scale(0.1 -0.1)">
     <use xlink:href="#DejaVuSans-69"/>
     <use x="27.783203" xlink:href="#DejaVuSans-6e"/>
     <use x="91.162109" xlink:href="#DejaVuSans-66"/>
     <use x="126.289062" xlink:href="#DejaVuSans-2d"/>
     <use x="162.373047" xlink:href="#DejaVuSans-70"/>
     <use x="225.849609" xlink:href="#DejaVuSans-6f"/>
     <use x="287.03125" xlink:href="#DejaVuSans-77"/>
     <use x="368.818359" xlink:href="#DejaVuSans-65"/>
     <use x="430.341797" xlink:href="#DejaVuSans-72"/>
    </g>
   </g>
   <g id="text_46">
    <!-- $\rho = 46$ -->
    <g transform="translate(517.78 281.638125)scale(0.1 -0.1)">
     <use transform="translate(0 0.78125)" xlink:href="#DejaVuSans-Oblique-3c1"/>
     <use transform="translate(82.958984 0.78125)" xlink:href="#DejaVuSans-3d"/>
     <use transform="translate(186.230469 0.78125)" xlink:href="#DejaVuSans-34"/>
     <use transform="translate(249.853516 0.78125)" xlink:href="#DejaVuSans-36"/>
    </g>
   </g>
   <g id="text_47">
    <!-- $\hat{\rho} = 109$ -->
    <g style="fill:#ff0000;" transform="translate(511.38 296.36)scale(0.1 -0.1)">
     <use transform="translate(64.447266 13.015625)" xlink:href="#DejaVuSans-302"/>
     <use transform="translate(0 0.515625)" xlink:href="#DejaVuSans-Oblique-3c1"/>
     <use transform="translate(82.958984 0.515625)" xlink:href="#DejaVuSans-3d"/>
     <use transform="translate(186.230469 0.515625)" xlink:href="#DejaVuSans-31"/>
     <use transform="translate(249.853516 0.515625)" xlink:href="#DejaVuSans-30"/>
     <use transform="translate(313.476562 0.515625)" xlink:href="#DejaVuSans-39"/>
    </g>
   </g>
   <g id="text_48">
    <!-- $ub = 219$ -->
    <g style="fill:#0000ff;" transform="translate(505.08 309.658437)scale(0.1 -0.1)">
     <use transform="translate(0 0.015625)" xlink:href="#DejaVuSans-Oblique-75"/>
     <use transform="translate(63.378906 0.015625)" xlink:href="#DejaVuSans-Oblique-62"/>
     <use transform="translate(146.337891 0.015625)" xlink:href="#DejaVuSans-3d"/>
     <use transform="translate(249.609375 0.015625)" xlink:href="#DejaVuSans-32"/>
     <use transform="translate(313.232422 0.015625)" xlink:href="#DejaVuSans-31"/>
     <use transform="translate(376.855469 0.015625)" xlink:href="#DejaVuSans-39"/>
    </g>
   </g>
  </g>
 </g>
 <defs>
  <clipPath id="p2ccdbebebb">
   <rect height="392.04" width="540.48" x="10.7" y="10.7"/>
  </clipPath>
 </defs>
</svg>
