<?xml version="1.0" encoding="utf-8" standalone="no"?>
<!DOCTYPE svg PUBLIC "-//W3C//DTD SVG 1.1//EN"
  "http://www.w3.org/Graphics/SVG/1.1/DTD/svg11.dtd">
<!-- Created with matplotlib (http://matplotlib.org/) -->
<svg height="425pt" version="1.1" viewBox="0 0 425 425" width="425pt" xmlns="http://www.w3.org/2000/svg" xmlns:xlink="http://www.w3.org/1999/xlink">
 <defs>
  <style type="text/css">
*{stroke-linecap:butt;stroke-linejoin:round;}
  </style>
 </defs>
 <g id="figure_1">
  <g id="patch_1">
   <path d="M -0 425.378125 
L 425.852812 425.378125 
L 425.852812 0 
L -0 0 
z
" style="fill:none;"/>
  </g>
  <g id="axes_1">
   <g id="patch_2">
    <path clip-path="url(#p7a82cb3cfd)" d="M 226.817812 225.860677 
C 231.868923 225.860677 236.713834 223.778568 240.285509 220.072909 
C 243.857183 216.36725 245.864011 211.340593 245.864011 206.1 
C 245.864011 200.859407 243.857183 195.83275 240.285509 192.127091 
C 236.713834 188.421432 231.868923 186.339323 226.817812 186.339323 
C 221.766702 186.339323 216.921791 188.421432 213.350116 192.127091 
C 209.778442 195.83275 207.771614 200.859407 207.771614 206.1 
C 207.771614 211.340593 209.778442 216.36725 213.350116 220.072909 
C 216.921791 223.778568 221.766702 225.860677 226.817812 225.860677 
z
" style="fill:none;stroke:#000000;stroke-linejoin:miter;stroke-width:2;"/>
   </g>
   <g id="patch_3">
    <path clip-path="url(#p7a82cb3cfd)" d="M 226.817812 231.072797 
C 233.201215 231.072797 239.32403 228.441506 243.837778 223.758434 
C 248.351525 219.075363 250.887678 212.722863 250.887678 206.1 
C 250.887678 199.477137 248.351525 193.124637 243.837778 188.441566 
C 239.32403 183.758494 233.201215 181.127203 226.817812 181.127203 
C 220.43441 181.127203 214.311595 183.758494 209.797847 188.441566 
C 205.2841 193.124637 202.747947 199.477137 202.747947 206.1 
C 202.747947 212.722863 205.2841 219.075363 209.797847 223.758434 
C 214.311595 228.441506 220.43441 231.072797 226.817812 231.072797 
z
" style="fill:none;stroke:#ff0000;stroke-linejoin:miter;stroke-width:2;"/>
   </g>
   <g id="patch_4">
    <path clip-path="url(#p7a82cb3cfd)" d="M 226.817812 392.195238 
C 274.386409 392.195238 320.013122 372.58707 353.649199 337.689205 
C 387.285276 302.79134 406.184479 255.453034 406.184479 206.1 
C 406.184479 156.746966 387.285276 109.40866 353.649199 74.510795 
C 320.013122 39.61293 274.386409 20.004762 226.817812 20.004762 
C 179.249216 20.004762 133.622503 39.61293 99.986426 74.510795 
C 66.350349 109.40866 47.451146 156.746966 47.451146 206.1 
C 47.451146 255.453034 66.350349 302.79134 99.986426 337.689205 
C 133.622503 372.58707 179.249216 392.195238 226.817812 392.195238 
z
" style="fill:none;stroke:#0000ff;stroke-linejoin:miter;stroke-width:2;"/>
   </g>
  </g>
 </g>
 <defs>
  <clipPath id="p7a82cb3cfd">
   <rect height="390.8" width="376.67" x="38.482813" y="10.7"/>
  </clipPath>
 </defs>
</svg>
