<?xml version="1.0" encoding="utf-8" standalone="no"?>
<!DOCTYPE svg PUBLIC "-//W3C//DTD SVG 1.1//EN"
  "http://www.w3.org/Graphics/SVG/1.1/DTD/svg11.dtd">
<!-- Created with matplotlib (http://matplotlib.org/) -->
<svg height="425pt" version="1.1" viewBox="0 0 425 425" width="425pt" xmlns="http://www.w3.org/2000/svg" xmlns:xlink="http://www.w3.org/1999/xlink">
 <defs>
  <style type="text/css">
*{stroke-linecap:butt;stroke-linejoin:round;}
  </style>
 </defs>
 <g id="figure_1">
  <g id="patch_1">
   <path d="M -0 425.378125 
L 425.852812 425.378125 
L 425.852812 0 
L -0 0 
z
" style="fill:none;"/>
  </g>
  <g id="axes_1">
   <g id="patch_2">
    <path clip-path="url(#p4dd652c268)" d="M 226.817812 255.668377 
C 239.488196 255.668377 251.64134 250.44554 260.600655 241.150136 
C 269.559969 231.854731 274.593966 219.245687 274.593966 206.1 
C 274.593966 192.954313 269.559969 180.345269 260.600655 171.049864 
C 251.64134 161.75446 239.488196 156.531623 226.817812 156.531623 
C 214.147429 156.531623 201.994285 161.75446 193.03497 171.049864 
C 184.075656 180.345269 179.041659 192.954313 179.041659 206.1 
C 179.041659 219.245687 184.075656 231.854731 193.03497 241.150136 
C 201.994285 250.44554 214.147429 255.668377 226.817812 255.668377 
z
" style="fill:none;stroke:#000000;stroke-linejoin:miter;stroke-width:2;"/>
   </g>
   <g id="patch_3">
    <path clip-path="url(#p4dd652c268)" d="M 226.817812 244.755547 
C 236.698722 244.755547 246.176264 240.682555 253.163122 233.4336 
C 260.14998 226.184644 264.075707 216.351571 264.075707 206.1 
C 264.075707 195.848429 260.14998 186.015356 253.163122 178.7664 
C 246.176264 171.517445 236.698722 167.444453 226.817812 167.444453 
C 216.936903 167.444453 207.459361 171.517445 200.472503 178.7664 
C 193.485645 186.015356 189.559918 195.848429 189.559918 206.1 
C 189.559918 216.351571 193.485645 226.184644 200.472503 233.4336 
C 207.459361 240.682555 216.936903 244.755547 226.817812 244.755547 
z
" style="fill:none;stroke:#ff0000;stroke-linejoin:miter;stroke-width:2;"/>
   </g>
   <g id="patch_4">
    <path clip-path="url(#p4dd652c268)" d="M 226.817812 392.195238 
C 274.386409 392.195238 320.013122 372.58707 353.649199 337.689205 
C 387.285276 302.79134 406.184479 255.453034 406.184479 206.1 
C 406.184479 156.746966 387.285276 109.40866 353.649199 74.510795 
C 320.013122 39.61293 274.386409 20.004762 226.817812 20.004762 
C 179.249216 20.004762 133.622503 39.61293 99.986426 74.510795 
C 66.350349 109.40866 47.451146 156.746966 47.451146 206.1 
C 47.451146 255.453034 66.350349 302.79134 99.986426 337.689205 
C 133.622503 372.58707 179.249216 392.195238 226.817812 392.195238 
z
" style="fill:none;stroke:#0000ff;stroke-linejoin:miter;stroke-width:2;"/>
   </g>
  </g>
 </g>
 <defs>
  <clipPath id="p4dd652c268">
   <rect height="390.8" width="376.67" x="38.482813" y="10.7"/>
  </clipPath>
 </defs>
</svg>
