<?xml version="1.0" encoding="utf-8" standalone="no"?>
<!DOCTYPE svg PUBLIC "-//W3C//DTD SVG 1.1//EN"
  "http://www.w3.org/Graphics/SVG/1.1/DTD/svg11.dtd">
<!-- Created with matplotlib (http://matplotlib.org/) -->
<svg height="288pt" version="1.1" viewBox="0 0 432 288" width="432pt" xmlns="http://www.w3.org/2000/svg" xmlns:xlink="http://www.w3.org/1999/xlink">
 <defs>
  <style type="text/css">
*{stroke-linecap:butt;stroke-linejoin:round;}
  </style>
 </defs>
 <g id="figure_1">
  <g id="patch_1">
   <path d="M 0 288 
L 432 288 
L 432 0 
L 0 0 
z
" style="fill:#ffffff;"/>
  </g>
  <g id="axes_1">
   <g id="patch_2">
    <path d="M 54 252 
L 388.8 252 
L 388.8 34.56 
L 54 34.56 
z
" style="fill:#ffffff;"/>
   </g>
   <g id="patch_3">
    <path clip-path="url(#pc709f4938c)" d="M 69.218182 29582.177786 
L 72.261818 29582.177786 
L 72.261818 140.267946 
L 69.218182 140.267946 
z
" style="fill:#1f77b4;"/>
   </g>
   <g id="patch_4">
    <path clip-path="url(#pc709f4938c)" d="M 72.261818 29582.177786 
L 75.305455 29582.177786 
L 75.305455 110.827151 
L 72.261818 110.827151 
z
" style="fill:#1f77b4;"/>
   </g>
   <g id="patch_5">
    <path clip-path="url(#pc709f4938c)" d="M 75.305455 29582.177786 
L 78.349091 29582.177786 
L 78.349091 96.260885 
L 75.305455 96.260885 
z
" style="fill:#1f77b4;"/>
   </g>
   <g id="patch_6">
    <path clip-path="url(#pc709f4938c)" d="M 78.349091 29582.177786 
L 81.392727 29582.177786 
L 81.392727 89.90966 
L 78.349091 89.90966 
z
" style="fill:#1f77b4;"/>
   </g>
   <g id="patch_7">
    <path clip-path="url(#pc709f4938c)" d="M 81.392727 29582.177786 
L 84.436364 29582.177786 
L 84.436364 81.386355 
L 81.392727 81.386355 
z
" style="fill:#1f77b4;"/>
   </g>
   <g id="patch_8">
    <path clip-path="url(#pc709f4938c)" d="M 84.436364 29582.177786 
L 87.48 29582.177786 
L 87.48 78.584851 
L 84.436364 78.584851 
z
" style="fill:#1f77b4;"/>
   </g>
   <g id="patch_9">
    <path clip-path="url(#pc709f4938c)" d="M 87.48 29582.177786 
L 90.523636 29582.177786 
L 90.523636 75.956749 
L 87.48 75.956749 
z
" style="fill:#1f77b4;"/>
   </g>
   <g id="patch_10">
    <path clip-path="url(#pc709f4938c)" d="M 90.523636 29582.177786 
L 93.567273 29582.177786 
L 93.567273 71.908536 
L 90.523636 71.908536 
z
" style="fill:#1f77b4;"/>
   </g>
   <g id="patch_11">
    <path clip-path="url(#pc709f4938c)" d="M 93.567273 29582.177786 
L 96.610909 29582.177786 
L 96.610909 68.212807 
L 93.567273 68.212807 
z
" style="fill:#1f77b4;"/>
   </g>
   <g id="patch_12">
    <path clip-path="url(#pc709f4938c)" d="M 96.610909 29582.177786 
L 99.654545 29582.177786 
L 99.654545 66.140489 
L 96.610909 66.140489 
z
" style="fill:#1f77b4;"/>
   </g>
   <g id="patch_13">
    <path clip-path="url(#pc709f4938c)" d="M 99.654545 29582.177786 
L 102.698182 29582.177786 
L 102.698182 63.525874 
L 99.654545 63.525874 
z
" style="fill:#1f77b4;"/>
   </g>
   <g id="patch_14">
    <path clip-path="url(#pc709f4938c)" d="M 102.698182 29582.177786 
L 105.741818 29582.177786 
L 105.741818 62.276546 
L 102.698182 62.276546 
z
" style="fill:#1f77b4;"/>
   </g>
   <g id="patch_15">
    <path clip-path="url(#pc709f4938c)" d="M 105.741818 29582.177786 
L 108.785455 29582.177786 
L 108.785455 60.468865 
L 105.741818 60.468865 
z
" style="fill:#1f77b4;"/>
   </g>
   <g id="patch_16">
    <path clip-path="url(#pc709f4938c)" d="M 108.785455 29582.177786 
L 111.829091 29582.177786 
L 111.829091 59.305119 
L 108.785455 59.305119 
z
" style="fill:#1f77b4;"/>
   </g>
   <g id="patch_17">
    <path clip-path="url(#pc709f4938c)" d="M 111.829091 29582.177786 
L 114.872727 29582.177786 
L 114.872727 57.069124 
L 111.829091 57.069124 
z
" style="fill:#1f77b4;"/>
   </g>
   <g id="patch_18">
    <path clip-path="url(#pc709f4938c)" d="M 114.872727 29582.177786 
L 117.916364 29582.177786 
L 117.916364 56.528046 
L 114.872727 56.528046 
z
" style="fill:#1f77b4;"/>
   </g>
   <g id="patch_19">
    <path clip-path="url(#pc709f4938c)" d="M 117.916364 29582.177786 
L 120.96 29582.177786 
L 120.96 54.430133 
L 117.916364 54.430133 
z
" style="fill:#1f77b4;"/>
   </g>
   <g id="patch_20">
    <path clip-path="url(#pc709f4938c)" d="M 120.96 29582.177786 
L 124.003636 29582.177786 
L 124.003636 53.921455 
L 120.96 53.921455 
z
" style="fill:#1f77b4;"/>
   </g>
   <g id="patch_21">
    <path clip-path="url(#pc709f4938c)" d="M 124.003636 29582.177786 
L 127.047273 29582.177786 
L 127.047273 52.922019 
L 124.003636 52.922019 
z
" style="fill:#1f77b4;"/>
   </g>
   <g id="patch_22">
    <path clip-path="url(#pc709f4938c)" d="M 127.047273 29582.177786 
L 130.090909 29582.177786 
L 130.090909 51.465622 
L 127.047273 51.465622 
z
" style="fill:#1f77b4;"/>
   </g>
   <g id="patch_23">
    <path clip-path="url(#pc709f4938c)" d="M 130.090909 29582.177786 
L 133.134545 29582.177786 
L 133.134545 50.521714 
L 130.090909 50.521714 
z
" style="fill:#1f77b4;"/>
   </g>
   <g id="patch_24">
    <path clip-path="url(#pc709f4938c)" d="M 133.134545 29582.177786 
L 136.178182 29582.177786 
L 136.178182 49.598328 
L 133.134545 49.598328 
z
" style="fill:#1f77b4;"/>
   </g>
   <g id="patch_25">
    <path clip-path="url(#pc709f4938c)" d="M 136.178182 29582.177786 
L 139.221818 29582.177786 
L 139.221818 49.598328 
L 136.178182 49.598328 
z
" style="fill:#1f77b4;"/>
   </g>
   <g id="patch_26">
    <path clip-path="url(#pc709f4938c)" d="M 139.221818 29582.177786 
L 142.265455 29582.177786 
L 142.265455 48.249831 
L 139.221818 48.249831 
z
" style="fill:#1f77b4;"/>
   </g>
   <g id="patch_27">
    <path clip-path="url(#pc709f4938c)" d="M 142.265455 29582.177786 
L 145.309091 29582.177786 
L 145.309091 48.69459 
L 142.265455 48.69459 
z
" style="fill:#1f77b4;"/>
   </g>
   <g id="patch_28">
    <path clip-path="url(#pc709f4938c)" d="M 145.309091 29582.177786 
L 148.352727 29582.177786 
L 148.352727 46.515954 
L 145.309091 46.515954 
z
" style="fill:#1f77b4;"/>
   </g>
   <g id="patch_29">
    <path clip-path="url(#pc709f4938c)" d="M 148.352727 29582.177786 
L 151.396364 29582.177786 
L 151.396364 47.374046 
L 148.352727 47.374046 
z
" style="fill:#1f77b4;"/>
   </g>
   <g id="patch_30">
    <path clip-path="url(#pc709f4938c)" d="M 151.396364 29582.177786 
L 154.44 29582.177786 
L 154.44 46.942833 
L 151.396364 46.942833 
z
" style="fill:#1f77b4;"/>
   </g>
   <g id="patch_31">
    <path clip-path="url(#pc709f4938c)" d="M 154.44 29582.177786 
L 157.483636 29582.177786 
L 157.483636 46.515954 
L 154.44 46.515954 
z
" style="fill:#1f77b4;"/>
   </g>
   <g id="patch_32">
    <path clip-path="url(#pc709f4938c)" d="M 157.483636 29582.177786 
L 160.527273 29582.177786 
L 160.527273 45.260471 
L 157.483636 45.260471 
z
" style="fill:#1f77b4;"/>
   </g>
   <g id="patch_33">
    <path clip-path="url(#pc709f4938c)" d="M 160.527273 29582.177786 
L 163.570909 29582.177786 
L 163.570909 45.674856 
L 160.527273 45.674856 
z
" style="fill:#1f77b4;"/>
   </g>
   <g id="patch_34">
    <path clip-path="url(#pc709f4938c)" d="M 163.570909 29582.177786 
L 166.614545 29582.177786 
L 166.614545 44.85009 
L 163.570909 44.85009 
z
" style="fill:#1f77b4;"/>
   </g>
   <g id="patch_35">
    <path clip-path="url(#pc709f4938c)" d="M 166.614545 29582.177786 
L 169.658182 29582.177786 
L 169.658182 44.85009 
L 166.614545 44.85009 
z
" style="fill:#1f77b4;"/>
   </g>
   <g id="patch_36">
    <path clip-path="url(#pc709f4938c)" d="M 169.658182 29582.177786 
L 172.701818 29582.177786 
L 172.701818 45.674856 
L 169.658182 45.674856 
z
" style="fill:#1f77b4;"/>
   </g>
   <g id="patch_37">
    <path clip-path="url(#pc709f4938c)" d="M 172.701818 29582.177786 
L 175.745455 29582.177786 
L 175.745455 44.443636 
L 172.701818 44.443636 
z
" style="fill:#1f77b4;"/>
   </g>
   <g id="patch_38">
    <path clip-path="url(#pc709f4938c)" d="M 175.745455 29582.177786 
L 178.789091 29582.177786 
L 178.789091 46.942833 
L 175.745455 46.942833 
z
" style="fill:#1f77b4;"/>
   </g>
   <g id="patch_39">
    <path clip-path="url(#pc709f4938c)" d="M 178.789091 29582.177786 
L 181.832727 29582.177786 
L 181.832727 45.260471 
L 178.789091 45.260471 
z
" style="fill:#1f77b4;"/>
   </g>
   <g id="patch_40">
    <path clip-path="url(#pc709f4938c)" d="M 181.832727 29582.177786 
L 184.876364 29582.177786 
L 184.876364 46.093323 
L 181.832727 46.093323 
z
" style="fill:#1f77b4;"/>
   </g>
   <g id="patch_41">
    <path clip-path="url(#pc709f4938c)" d="M 184.876364 29582.177786 
L 187.92 29582.177786 
L 187.92 46.093323 
L 184.876364 46.093323 
z
" style="fill:#1f77b4;"/>
   </g>
   <g id="patch_42">
    <path clip-path="url(#pc709f4938c)" d="M 187.92 29582.177786 
L 190.963636 29582.177786 
L 190.963636 46.942833 
L 187.92 46.942833 
z
" style="fill:#1f77b4;"/>
   </g>
   <g id="patch_43">
    <path clip-path="url(#pc709f4938c)" d="M 190.963636 29582.177786 
L 194.007273 29582.177786 
L 194.007273 47.374046 
L 190.963636 47.374046 
z
" style="fill:#1f77b4;"/>
   </g>
   <g id="patch_44">
    <path clip-path="url(#pc709f4938c)" d="M 194.007273 29582.177786 
L 197.050909 29582.177786 
L 197.050909 46.515954 
L 194.007273 46.515954 
z
" style="fill:#1f77b4;"/>
   </g>
   <g id="patch_45">
    <path clip-path="url(#pc709f4938c)" d="M 197.050909 29582.177786 
L 200.094545 29582.177786 
L 200.094545 49.144056 
L 197.050909 49.144056 
z
" style="fill:#1f77b4;"/>
   </g>
   <g id="patch_46">
    <path clip-path="url(#pc709f4938c)" d="M 200.094545 29582.177786 
L 203.138182 29582.177786 
L 203.138182 48.69459 
L 200.094545 48.69459 
z
" style="fill:#1f77b4;"/>
   </g>
   <g id="patch_47">
    <path clip-path="url(#pc709f4938c)" d="M 203.138182 29582.177786 
L 206.181818 29582.177786 
L 206.181818 49.598328 
L 203.138182 49.598328 
z
" style="fill:#1f77b4;"/>
   </g>
   <g id="patch_48">
    <path clip-path="url(#pc709f4938c)" d="M 206.181818 29582.177786 
L 209.225455 29582.177786 
L 209.225455 50.521714 
L 206.181818 50.521714 
z
" style="fill:#1f77b4;"/>
   </g>
   <g id="patch_49">
    <path clip-path="url(#pc709f4938c)" d="M 209.225455 29582.177786 
L 212.269091 29582.177786 
L 212.269091 51.465622 
L 209.225455 51.465622 
z
" style="fill:#1f77b4;"/>
   </g>
   <g id="patch_50">
    <path clip-path="url(#pc709f4938c)" d="M 212.269091 29582.177786 
L 215.312727 29582.177786 
L 215.312727 51.94556 
L 212.269091 51.94556 
z
" style="fill:#1f77b4;"/>
   </g>
   <g id="patch_51">
    <path clip-path="url(#pc709f4938c)" d="M 215.312727 29582.177786 
L 218.356364 29582.177786 
L 218.356364 53.921455 
L 215.312727 53.921455 
z
" style="fill:#1f77b4;"/>
   </g>
   <g id="patch_52">
    <path clip-path="url(#pc709f4938c)" d="M 218.356364 29582.177786 
L 221.4 29582.177786 
L 221.4 54.430133 
L 218.356364 54.430133 
z
" style="fill:#1f77b4;"/>
   </g>
   <g id="patch_53">
    <path clip-path="url(#pc709f4938c)" d="M 221.4 29582.177786 
L 224.443636 29582.177786 
L 224.443636 54.430133 
L 221.4 54.430133 
z
" style="fill:#1f77b4;"/>
   </g>
   <g id="patch_54">
    <path clip-path="url(#pc709f4938c)" d="M 224.443636 29582.177786 
L 227.487273 29582.177786 
L 227.487273 57.069124 
L 224.443636 57.069124 
z
" style="fill:#1f77b4;"/>
   </g>
   <g id="patch_55">
    <path clip-path="url(#pc709f4938c)" d="M 227.487273 29582.177786 
L 230.530909 29582.177786 
L 230.530909 57.617184 
L 227.487273 57.617184 
z
" style="fill:#1f77b4;"/>
   </g>
   <g id="patch_56">
    <path clip-path="url(#pc709f4938c)" d="M 230.530909 29582.177786 
L 233.574545 29582.177786 
L 233.574545 59.883006 
L 230.530909 59.883006 
z
" style="fill:#1f77b4;"/>
   </g>
   <g id="patch_57">
    <path clip-path="url(#pc709f4938c)" d="M 233.574545 29582.177786 
L 236.618182 29582.177786 
L 236.618182 61.062918 
L 233.574545 61.062918 
z
" style="fill:#1f77b4;"/>
   </g>
   <g id="patch_58">
    <path clip-path="url(#pc709f4938c)" d="M 236.618182 29582.177786 
L 239.661818 29582.177786 
L 239.661818 64.164594 
L 236.618182 64.164594 
z
" style="fill:#1f77b4;"/>
   </g>
   <g id="patch_59">
    <path clip-path="url(#pc709f4938c)" d="M 239.661818 29582.177786 
L 242.705455 29582.177786 
L 242.705455 64.164594 
L 239.661818 64.164594 
z
" style="fill:#1f77b4;"/>
   </g>
   <g id="patch_60">
    <path clip-path="url(#pc709f4938c)" d="M 242.705455 29582.177786 
L 245.749091 29582.177786 
L 245.749091 68.926674 
L 242.705455 68.926674 
z
" style="fill:#1f77b4;"/>
   </g>
   <g id="patch_61">
    <path clip-path="url(#pc709f4938c)" d="M 245.749091 29582.177786 
L 248.792727 29582.177786 
L 248.792727 68.926674 
L 245.749091 68.926674 
z
" style="fill:#1f77b4;"/>
   </g>
   <g id="patch_62">
    <path clip-path="url(#pc709f4938c)" d="M 248.792727 29582.177786 
L 251.836364 29582.177786 
L 251.836364 74.290885 
L 248.792727 74.290885 
z
" style="fill:#1f77b4;"/>
   </g>
   <g id="patch_63">
    <path clip-path="url(#pc709f4938c)" d="M 251.836364 29582.177786 
L 254.88 29582.177786 
L 254.88 76.814841 
L 251.836364 76.814841 
z
" style="fill:#1f77b4;"/>
   </g>
   <g id="patch_64">
    <path clip-path="url(#pc709f4938c)" d="M 254.88 29582.177786 
L 257.923636 29582.177786 
L 257.923636 80.431841 
L 254.88 80.431841 
z
" style="fill:#1f77b4;"/>
   </g>
   <g id="patch_65">
    <path clip-path="url(#pc709f4938c)" d="M 257.923636 29582.177786 
L 260.967273 29582.177786 
L 260.967273 86.509919 
L 257.923636 86.509919 
z
" style="fill:#1f77b4;"/>
   </g>
   <g id="patch_66">
    <path clip-path="url(#pc709f4938c)" d="M 260.967273 29582.177786 
L 264.010909 29582.177786 
L 264.010909 93.605389 
L 260.967273 93.605389 
z
" style="fill:#1f77b4;"/>
   </g>
   <g id="patch_67">
    <path clip-path="url(#pc709f4938c)" d="M 264.010909 29582.177786 
L 267.054545 29582.177786 
L 267.054545 103.73168 
L 264.010909 103.73168 
z
" style="fill:#1f77b4;"/>
   </g>
   <g id="patch_68">
    <path clip-path="url(#pc709f4938c)" d="M 267.054545 29582.177786 
L 270.098182 29582.177786 
L 270.098182 121.778207 
L 267.054545 121.778207 
z
" style="fill:#1f77b4;"/>
   </g>
   <g id="patch_69">
    <path clip-path="url(#pc709f4938c)" d="M 270.098182 29582.177786 
L 273.141818 29582.177786 
L 273.141818 195.453807 
L 270.098182 195.453807 
z
" style="fill:#1f77b4;"/>
   </g>
   <g id="patch_70">
    <path clip-path="url(#pc709f4938c)" d="M 273.141818 29582.177786 
L 276.185455 29582.177786 
L 276.185455 29582.177786 
L 273.141818 29582.177786 
z
" style="fill:#1f77b4;"/>
   </g>
   <g id="patch_71">
    <path clip-path="url(#pc709f4938c)" d="M 276.185455 29582.177786 
L 279.229091 29582.177786 
L 279.229091 29582.177786 
L 276.185455 29582.177786 
z
" style="fill:#1f77b4;"/>
   </g>
   <g id="patch_72">
    <path clip-path="url(#pc709f4938c)" d="M 279.229091 29582.177786 
L 282.272727 29582.177786 
L 282.272727 29582.177786 
L 279.229091 29582.177786 
z
" style="fill:#1f77b4;"/>
   </g>
   <g id="patch_73">
    <path clip-path="url(#pc709f4938c)" d="M 282.272727 29582.177786 
L 285.316364 29582.177786 
L 285.316364 29582.177786 
L 282.272727 29582.177786 
z
" style="fill:#1f77b4;"/>
   </g>
   <g id="patch_74">
    <path clip-path="url(#pc709f4938c)" d="M 285.316364 29582.177786 
L 288.36 29582.177786 
L 288.36 29582.177786 
L 285.316364 29582.177786 
z
" style="fill:#1f77b4;"/>
   </g>
   <g id="patch_75">
    <path clip-path="url(#pc709f4938c)" d="M 288.36 29582.177786 
L 291.403636 29582.177786 
L 291.403636 29582.177786 
L 288.36 29582.177786 
z
" style="fill:#1f77b4;"/>
   </g>
   <g id="patch_76">
    <path clip-path="url(#pc709f4938c)" d="M 291.403636 29582.177786 
L 294.447273 29582.177786 
L 294.447273 29582.177786 
L 291.403636 29582.177786 
z
" style="fill:#1f77b4;"/>
   </g>
   <g id="patch_77">
    <path clip-path="url(#pc709f4938c)" d="M 294.447273 29582.177786 
L 297.490909 29582.177786 
L 297.490909 29582.177786 
L 294.447273 29582.177786 
z
" style="fill:#1f77b4;"/>
   </g>
   <g id="patch_78">
    <path clip-path="url(#pc709f4938c)" d="M 297.490909 29582.177786 
L 300.534545 29582.177786 
L 300.534545 29582.177786 
L 297.490909 29582.177786 
z
" style="fill:#1f77b4;"/>
   </g>
   <g id="patch_79">
    <path clip-path="url(#pc709f4938c)" d="M 300.534545 29582.177786 
L 303.578182 29582.177786 
L 303.578182 29582.177786 
L 300.534545 29582.177786 
z
" style="fill:#1f77b4;"/>
   </g>
   <g id="patch_80">
    <path clip-path="url(#pc709f4938c)" d="M 303.578182 29582.177786 
L 306.621818 29582.177786 
L 306.621818 29582.177786 
L 303.578182 29582.177786 
z
" style="fill:#1f77b4;"/>
   </g>
   <g id="patch_81">
    <path clip-path="url(#pc709f4938c)" d="M 306.621818 29582.177786 
L 309.665455 29582.177786 
L 309.665455 29582.177786 
L 306.621818 29582.177786 
z
" style="fill:#1f77b4;"/>
   </g>
   <g id="patch_82">
    <path clip-path="url(#pc709f4938c)" d="M 309.665455 29582.177786 
L 312.709091 29582.177786 
L 312.709091 29582.177786 
L 309.665455 29582.177786 
z
" style="fill:#1f77b4;"/>
   </g>
   <g id="patch_83">
    <path clip-path="url(#pc709f4938c)" d="M 312.709091 29582.177786 
L 315.752727 29582.177786 
L 315.752727 29582.177786 
L 312.709091 29582.177786 
z
" style="fill:#1f77b4;"/>
   </g>
   <g id="patch_84">
    <path clip-path="url(#pc709f4938c)" d="M 315.752727 29582.177786 
L 318.796364 29582.177786 
L 318.796364 29582.177786 
L 315.752727 29582.177786 
z
" style="fill:#1f77b4;"/>
   </g>
   <g id="patch_85">
    <path clip-path="url(#pc709f4938c)" d="M 318.796364 29582.177786 
L 321.84 29582.177786 
L 321.84 29582.177786 
L 318.796364 29582.177786 
z
" style="fill:#1f77b4;"/>
   </g>
   <g id="patch_86">
    <path clip-path="url(#pc709f4938c)" d="M 321.84 29582.177786 
L 324.883636 29582.177786 
L 324.883636 29582.177786 
L 321.84 29582.177786 
z
" style="fill:#1f77b4;"/>
   </g>
   <g id="patch_87">
    <path clip-path="url(#pc709f4938c)" d="M 324.883636 29582.177786 
L 327.927273 29582.177786 
L 327.927273 29582.177786 
L 324.883636 29582.177786 
z
" style="fill:#1f77b4;"/>
   </g>
   <g id="patch_88">
    <path clip-path="url(#pc709f4938c)" d="M 327.927273 29582.177786 
L 330.970909 29582.177786 
L 330.970909 29582.177786 
L 327.927273 29582.177786 
z
" style="fill:#1f77b4;"/>
   </g>
   <g id="patch_89">
    <path clip-path="url(#pc709f4938c)" d="M 330.970909 29582.177786 
L 334.014545 29582.177786 
L 334.014545 29582.177786 
L 330.970909 29582.177786 
z
" style="fill:#1f77b4;"/>
   </g>
   <g id="patch_90">
    <path clip-path="url(#pc709f4938c)" d="M 334.014545 29582.177786 
L 337.058182 29582.177786 
L 337.058182 29582.177786 
L 334.014545 29582.177786 
z
" style="fill:#1f77b4;"/>
   </g>
   <g id="patch_91">
    <path clip-path="url(#pc709f4938c)" d="M 337.058182 29582.177786 
L 340.101818 29582.177786 
L 340.101818 29582.177786 
L 337.058182 29582.177786 
z
" style="fill:#1f77b4;"/>
   </g>
   <g id="patch_92">
    <path clip-path="url(#pc709f4938c)" d="M 340.101818 29582.177786 
L 343.145455 29582.177786 
L 343.145455 29582.177786 
L 340.101818 29582.177786 
z
" style="fill:#1f77b4;"/>
   </g>
   <g id="patch_93">
    <path clip-path="url(#pc709f4938c)" d="M 343.145455 29582.177786 
L 346.189091 29582.177786 
L 346.189091 29582.177786 
L 343.145455 29582.177786 
z
" style="fill:#1f77b4;"/>
   </g>
   <g id="patch_94">
    <path clip-path="url(#pc709f4938c)" d="M 346.189091 29582.177786 
L 349.232727 29582.177786 
L 349.232727 29582.177786 
L 346.189091 29582.177786 
z
" style="fill:#1f77b4;"/>
   </g>
   <g id="patch_95">
    <path clip-path="url(#pc709f4938c)" d="M 349.232727 29582.177786 
L 352.276364 29582.177786 
L 352.276364 29582.177786 
L 349.232727 29582.177786 
z
" style="fill:#1f77b4;"/>
   </g>
   <g id="patch_96">
    <path clip-path="url(#pc709f4938c)" d="M 352.276364 29582.177786 
L 355.32 29582.177786 
L 355.32 29582.177786 
L 352.276364 29582.177786 
z
" style="fill:#1f77b4;"/>
   </g>
   <g id="patch_97">
    <path clip-path="url(#pc709f4938c)" d="M 355.32 29582.177786 
L 358.363636 29582.177786 
L 358.363636 29582.177786 
L 355.32 29582.177786 
z
" style="fill:#1f77b4;"/>
   </g>
   <g id="patch_98">
    <path clip-path="url(#pc709f4938c)" d="M 358.363636 29582.177786 
L 361.407273 29582.177786 
L 361.407273 29582.177786 
L 358.363636 29582.177786 
z
" style="fill:#1f77b4;"/>
   </g>
   <g id="patch_99">
    <path clip-path="url(#pc709f4938c)" d="M 361.407273 29582.177786 
L 364.450909 29582.177786 
L 364.450909 29582.177786 
L 361.407273 29582.177786 
z
" style="fill:#1f77b4;"/>
   </g>
   <g id="patch_100">
    <path clip-path="url(#pc709f4938c)" d="M 364.450909 29582.177786 
L 367.494545 29582.177786 
L 367.494545 29582.177786 
L 364.450909 29582.177786 
z
" style="fill:#1f77b4;"/>
   </g>
   <g id="patch_101">
    <path clip-path="url(#pc709f4938c)" d="M 367.494545 29582.177786 
L 370.538182 29582.177786 
L 370.538182 29582.177786 
L 367.494545 29582.177786 
z
" style="fill:#1f77b4;"/>
   </g>
   <g id="patch_102">
    <path clip-path="url(#pc709f4938c)" d="M 370.538182 29582.177786 
L 373.581818 29582.177786 
L 373.581818 242.116364 
L 370.538182 242.116364 
z
" style="fill:#1f77b4;"/>
   </g>
   <g id="matplotlib.axis_1">
    <g id="xtick_1">
     <g id="line2d_1">
      <defs>
       <path d="M 0 0 
L 0 3.5 
" id="m7ce496f501" style="stroke:#000000;stroke-width:0.8;"/>
      </defs>
      <g>
       <use style="stroke:#000000;stroke-width:0.8;" x="107.454593" xlink:href="#m7ce496f501" y="252"/>
      </g>
     </g>
     <g id="text_1">
      <!-- −5 -->
      <defs>
       <path d="M 10.59375 35.5 
L 73.1875 35.5 
L 73.1875 27.203125 
L 10.59375 27.203125 
z
" id="DejaVuSans-2212"/>
       <path d="M 10.796875 72.90625 
L 49.515625 72.90625 
L 49.515625 64.59375 
L 19.828125 64.59375 
L 19.828125 46.734375 
Q 21.96875 47.46875 24.109375 47.828125 
Q 26.265625 48.1875 28.421875 48.1875 
Q 40.625 48.1875 47.75 41.5 
Q 54.890625 34.8125 54.890625 23.390625 
Q 54.890625 11.625 47.5625 5.09375 
Q 40.234375 -1.421875 26.90625 -1.421875 
Q 22.3125 -1.421875 17.546875 -0.640625 
Q 12.796875 0.140625 7.71875 1.703125 
L 7.71875 11.625 
Q 12.109375 9.234375 16.796875 8.0625 
Q 21.484375 6.890625 26.703125 6.890625 
Q 35.15625 6.890625 40.078125 11.328125 
Q 45.015625 15.765625 45.015625 23.390625 
Q 45.015625 31 40.078125 35.4375 
Q 35.15625 39.890625 26.703125 39.890625 
Q 22.75 39.890625 18.8125 39.015625 
Q 14.890625 38.140625 10.796875 36.28125 
z
" id="DejaVuSans-35"/>
      </defs>
      <g transform="translate(100.083499 266.598437)scale(0.1 -0.1)">
       <use xlink:href="#DejaVuSans-2212"/>
       <use x="83.789062" xlink:href="#DejaVuSans-35"/>
      </g>
     </g>
    </g>
    <g id="xtick_2">
     <g id="line2d_2">
      <g>
       <use style="stroke:#000000;stroke-width:0.8;" x="170.366545" xlink:href="#m7ce496f501" y="252"/>
      </g>
     </g>
     <g id="text_2">
      <!-- 0 -->
      <defs>
       <path d="M 31.78125 66.40625 
Q 24.171875 66.40625 20.328125 58.90625 
Q 16.5 51.421875 16.5 36.375 
Q 16.5 21.390625 20.328125 13.890625 
Q 24.171875 6.390625 31.78125 6.390625 
Q 39.453125 6.390625 43.28125 13.890625 
Q 47.125 21.390625 47.125 36.375 
Q 47.125 51.421875 43.28125 58.90625 
Q 39.453125 66.40625 31.78125 66.40625 
M 31.78125 74.21875 
Q 44.046875 74.21875 50.515625 64.515625 
Q 56.984375 54.828125 56.984375 36.375 
Q 56.984375 17.96875 50.515625 8.265625 
Q 44.046875 -1.421875 31.78125 -1.421875 
Q 19.53125 -1.421875 13.0625 8.265625 
Q 6.59375 17.96875 6.59375 36.375 
Q 6.59375 54.828125 13.0625 64.515625 
Q 19.53125 74.21875 31.78125 74.21875 
" id="DejaVuSans-30"/>
      </defs>
      <g transform="translate(167.185295 266.598437)scale(0.1 -0.1)">
       <use xlink:href="#DejaVuSans-30"/>
      </g>
     </g>
    </g>
    <g id="xtick_3">
     <g id="line2d_3">
      <g>
       <use style="stroke:#000000;stroke-width:0.8;" x="233.278498" xlink:href="#m7ce496f501" y="252"/>
      </g>
     </g>
     <g id="text_3">
      <!-- 5 -->
      <g transform="translate(230.097248 266.598437)scale(0.1 -0.1)">
       <use xlink:href="#DejaVuSans-35"/>
      </g>
     </g>
    </g>
    <g id="xtick_4">
     <g id="line2d_4">
      <g>
       <use style="stroke:#000000;stroke-width:0.8;" x="296.19045" xlink:href="#m7ce496f501" y="252"/>
      </g>
     </g>
     <g id="text_4">
      <!-- 10 -->
      <defs>
       <path d="M 12.40625 8.296875 
L 28.515625 8.296875 
L 28.515625 63.921875 
L 10.984375 60.40625 
L 10.984375 69.390625 
L 28.421875 72.90625 
L 38.28125 72.90625 
L 38.28125 8.296875 
L 54.390625 8.296875 
L 54.390625 0 
L 12.40625 0 
z
" id="DejaVuSans-31"/>
      </defs>
      <g transform="translate(289.82795 266.598437)scale(0.1 -0.1)">
       <use xlink:href="#DejaVuSans-31"/>
       <use x="63.623047" xlink:href="#DejaVuSans-30"/>
      </g>
     </g>
    </g>
    <g id="xtick_5">
     <g id="line2d_5">
      <g>
       <use style="stroke:#000000;stroke-width:0.8;" x="359.102403" xlink:href="#m7ce496f501" y="252"/>
      </g>
     </g>
     <g id="text_5">
      <!-- 15 -->
      <g transform="translate(352.739903 266.598437)scale(0.1 -0.1)">
       <use xlink:href="#DejaVuSans-31"/>
       <use x="63.623047" xlink:href="#DejaVuSans-35"/>
      </g>
     </g>
    </g>
   </g>
   <g id="matplotlib.axis_2">
    <g id="ytick_1">
     <g id="line2d_6">
      <defs>
       <path d="M 0 0 
L -3.5 0 
" id="mc8cfd8eb28" style="stroke:#000000;stroke-width:0.8;"/>
      </defs>
      <g>
       <use style="stroke:#000000;stroke-width:0.8;" x="54" xlink:href="#mc8cfd8eb28" y="242.116364"/>
      </g>
     </g>
     <g id="text_6">
      <!-- ${10^{0}}$ -->
      <g transform="translate(29.4 245.915582)scale(0.1 -0.1)">
       <use transform="translate(0 0.765625)" xlink:href="#DejaVuSans-31"/>
       <use transform="translate(63.623047 0.765625)" xlink:href="#DejaVuSans-30"/>
       <use transform="translate(128.203125 39.046875)scale(0.7)" xlink:href="#DejaVuSans-30"/>
      </g>
     </g>
    </g>
    <g id="ytick_2">
     <g id="line2d_7">
      <g>
       <use style="stroke:#000000;stroke-width:0.8;" x="54" xlink:href="#mc8cfd8eb28" y="144.316159"/>
      </g>
     </g>
     <g id="text_7">
      <!-- ${10^{1}}$ -->
      <g transform="translate(29.4 148.115378)scale(0.1 -0.1)">
       <use transform="translate(0 0.684375)" xlink:href="#DejaVuSans-31"/>
       <use transform="translate(63.623047 0.684375)" xlink:href="#DejaVuSans-30"/>
       <use transform="translate(128.203125 38.965625)scale(0.7)" xlink:href="#DejaVuSans-31"/>
      </g>
     </g>
    </g>
    <g id="ytick_3">
     <g id="line2d_8">
      <g>
       <use style="stroke:#000000;stroke-width:0.8;" x="54" xlink:href="#mc8cfd8eb28" y="46.515954"/>
      </g>
     </g>
     <g id="text_8">
      <!-- ${10^{2}}$ -->
      <defs>
       <path d="M 19.1875 8.296875 
L 53.609375 8.296875 
L 53.609375 0 
L 7.328125 0 
L 7.328125 8.296875 
Q 12.9375 14.109375 22.625 23.890625 
Q 32.328125 33.6875 34.8125 36.53125 
Q 39.546875 41.84375 41.421875 45.53125 
Q 43.3125 49.21875 43.3125 52.78125 
Q 43.3125 58.59375 39.234375 62.25 
Q 35.15625 65.921875 28.609375 65.921875 
Q 23.96875 65.921875 18.8125 64.3125 
Q 13.671875 62.703125 7.8125 59.421875 
L 7.8125 69.390625 
Q 13.765625 71.78125 18.9375 73 
Q 24.125 74.21875 28.421875 74.21875 
Q 39.75 74.21875 46.484375 68.546875 
Q 53.21875 62.890625 53.21875 53.421875 
Q 53.21875 48.921875 51.53125 44.890625 
Q 49.859375 40.875 45.40625 35.40625 
Q 44.1875 33.984375 37.640625 27.21875 
Q 31.109375 20.453125 19.1875 8.296875 
" id="DejaVuSans-32"/>
      </defs>
      <g transform="translate(29.4 50.315173)scale(0.1 -0.1)">
       <use transform="translate(0 0.765625)" xlink:href="#DejaVuSans-31"/>
       <use transform="translate(63.623047 0.765625)" xlink:href="#DejaVuSans-30"/>
       <use transform="translate(128.203125 39.046875)scale(0.7)" xlink:href="#DejaVuSans-32"/>
      </g>
     </g>
    </g>
    <g id="ytick_4">
     <g id="line2d_9">
      <defs>
       <path d="M 0 0 
L -2 0 
" id="m375452ccbf" style="stroke:#000000;stroke-width:0.6;"/>
      </defs>
      <g>
       <use style="stroke:#000000;stroke-width:0.6;" x="54" xlink:href="#m375452ccbf" y="251.594183"/>
      </g>
     </g>
    </g>
    <g id="ytick_5">
     <g id="line2d_10">
      <g>
       <use style="stroke:#000000;stroke-width:0.6;" x="54" xlink:href="#m375452ccbf" y="246.591456"/>
      </g>
     </g>
    </g>
    <g id="ytick_6">
     <g id="line2d_11">
      <g>
       <use style="stroke:#000000;stroke-width:0.6;" x="54" xlink:href="#m375452ccbf" y="212.675568"/>
      </g>
     </g>
    </g>
    <g id="ytick_7">
     <g id="line2d_12">
      <g>
       <use style="stroke:#000000;stroke-width:0.6;" x="54" xlink:href="#m375452ccbf" y="195.453807"/>
      </g>
     </g>
    </g>
    <g id="ytick_8">
     <g id="line2d_13">
      <g>
       <use style="stroke:#000000;stroke-width:0.6;" x="54" xlink:href="#m375452ccbf" y="183.234773"/>
      </g>
     </g>
    </g>
    <g id="ytick_9">
     <g id="line2d_14">
      <g>
       <use style="stroke:#000000;stroke-width:0.6;" x="54" xlink:href="#m375452ccbf" y="173.756954"/>
      </g>
     </g>
    </g>
    <g id="ytick_10">
     <g id="line2d_15">
      <g>
       <use style="stroke:#000000;stroke-width:0.6;" x="54" xlink:href="#m375452ccbf" y="166.013012"/>
      </g>
     </g>
    </g>
    <g id="ytick_11">
     <g id="line2d_16">
      <g>
       <use style="stroke:#000000;stroke-width:0.6;" x="54" xlink:href="#m375452ccbf" y="159.465602"/>
      </g>
     </g>
    </g>
    <g id="ytick_12">
     <g id="line2d_17">
      <g>
       <use style="stroke:#000000;stroke-width:0.6;" x="54" xlink:href="#m375452ccbf" y="153.793978"/>
      </g>
     </g>
    </g>
    <g id="ytick_13">
     <g id="line2d_18">
      <g>
       <use style="stroke:#000000;stroke-width:0.6;" x="54" xlink:href="#m375452ccbf" y="148.791251"/>
      </g>
     </g>
    </g>
    <g id="ytick_14">
     <g id="line2d_19">
      <g>
       <use style="stroke:#000000;stroke-width:0.6;" x="54" xlink:href="#m375452ccbf" y="114.875364"/>
      </g>
     </g>
    </g>
    <g id="ytick_15">
     <g id="line2d_20">
      <g>
       <use style="stroke:#000000;stroke-width:0.6;" x="54" xlink:href="#m375452ccbf" y="97.653602"/>
      </g>
     </g>
    </g>
    <g id="ytick_16">
     <g id="line2d_21">
      <g>
       <use style="stroke:#000000;stroke-width:0.6;" x="54" xlink:href="#m375452ccbf" y="85.434568"/>
      </g>
     </g>
    </g>
    <g id="ytick_17">
     <g id="line2d_22">
      <g>
       <use style="stroke:#000000;stroke-width:0.6;" x="54" xlink:href="#m375452ccbf" y="75.956749"/>
      </g>
     </g>
    </g>
    <g id="ytick_18">
     <g id="line2d_23">
      <g>
       <use style="stroke:#000000;stroke-width:0.6;" x="54" xlink:href="#m375452ccbf" y="68.212807"/>
      </g>
     </g>
    </g>
    <g id="ytick_19">
     <g id="line2d_24">
      <g>
       <use style="stroke:#000000;stroke-width:0.6;" x="54" xlink:href="#m375452ccbf" y="61.665398"/>
      </g>
     </g>
    </g>
    <g id="ytick_20">
     <g id="line2d_25">
      <g>
       <use style="stroke:#000000;stroke-width:0.6;" x="54" xlink:href="#m375452ccbf" y="55.993773"/>
      </g>
     </g>
    </g>
    <g id="ytick_21">
     <g id="line2d_26">
      <g>
       <use style="stroke:#000000;stroke-width:0.6;" x="54" xlink:href="#m375452ccbf" y="50.991046"/>
      </g>
     </g>
    </g>
   </g>
   <g id="patch_103">
    <path d="M 54 252 
L 54 34.56 
" style="fill:none;stroke:#000000;stroke-linecap:square;stroke-linejoin:miter;stroke-width:0.8;"/>
   </g>
   <g id="patch_104">
    <path d="M 54 252 
L 388.8 252 
" style="fill:none;stroke:#000000;stroke-linecap:square;stroke-linejoin:miter;stroke-width:0.8;"/>
   </g>
  </g>
 </g>
 <defs>
  <clipPath id="pc709f4938c">
   <rect height="217.44" width="334.8" x="54" y="34.56"/>
  </clipPath>
 </defs>
</svg>
