<?xml version="1.0" encoding="utf-8" standalone="no"?>
<!DOCTYPE svg PUBLIC "-//W3C//DTD SVG 1.1//EN"
  "http://www.w3.org/Graphics/SVG/1.1/DTD/svg11.dtd">
<!-- Created with matplotlib (http://matplotlib.org/) -->
<svg height="252pt" version="1.1" viewBox="0 0 377 252" width="377pt" xmlns="http://www.w3.org/2000/svg" xmlns:xlink="http://www.w3.org/1999/xlink">
 <defs>
  <style type="text/css">
*{stroke-linecap:butt;stroke-linejoin:round;}
  </style>
 </defs>
 <g id="figure_1">
  <g id="patch_1">
   <path d="M 0 252.018125 
L 377.3 252.018125 
L 377.3 0 
L 0 0 
z
" style="fill:none;"/>
  </g>
  <g id="axes_1">
   <g id="patch_2">
    <path d="M 31.8 228.14 
L 366.6 228.14 
L 366.6 10.7 
L 31.8 10.7 
z
" style="fill:none;"/>
   </g>
   <g id="patch_3">
    <path clip-path="url(#p7e762299a3)" d="M 47.018182 16500.268653 
L 50.061818 16500.268653 
L 50.061818 218.256364 
L 47.018182 218.256364 
z
" style="fill:#1f77b4;"/>
   </g>
   <g id="patch_4">
    <path clip-path="url(#p7e762299a3)" d="M 50.061818 16500.268653 
L 53.105455 16500.268653 
L 53.105455 16500.268653 
L 50.061818 16500.268653 
z
" style="fill:#1f77b4;"/>
   </g>
   <g id="patch_5">
    <path clip-path="url(#p7e762299a3)" d="M 53.105455 16500.268653 
L 56.149091 16500.268653 
L 56.149091 218.256364 
L 53.105455 218.256364 
z
" style="fill:#1f77b4;"/>
   </g>
   <g id="patch_6">
    <path clip-path="url(#p7e762299a3)" d="M 56.149091 16500.268653 
L 59.192727 16500.268653 
L 59.192727 16500.268653 
L 56.149091 16500.268653 
z
" style="fill:#1f77b4;"/>
   </g>
   <g id="patch_7">
    <path clip-path="url(#p7e762299a3)" d="M 59.192727 16500.268653 
L 62.236364 16500.268653 
L 62.236364 16500.268653 
L 59.192727 16500.268653 
z
" style="fill:#1f77b4;"/>
   </g>
   <g id="patch_8">
    <path clip-path="url(#p7e762299a3)" d="M 62.236364 16500.268653 
L 65.28 16500.268653 
L 65.28 16500.268653 
L 62.236364 16500.268653 
z
" style="fill:#1f77b4;"/>
   </g>
   <g id="patch_9">
    <path clip-path="url(#p7e762299a3)" d="M 65.28 16500.268653 
L 68.323636 16500.268653 
L 68.323636 218.256364 
L 65.28 218.256364 
z
" style="fill:#1f77b4;"/>
   </g>
   <g id="patch_10">
    <path clip-path="url(#p7e762299a3)" d="M 68.323636 16500.268653 
L 71.367273 16500.268653 
L 71.367273 218.256364 
L 68.323636 218.256364 
z
" style="fill:#1f77b4;"/>
   </g>
   <g id="patch_11">
    <path clip-path="url(#p7e762299a3)" d="M 71.367273 16500.268653 
L 74.410909 16500.268653 
L 74.410909 201.91845 
L 71.367273 201.91845 
z
" style="fill:#1f77b4;"/>
   </g>
   <g id="patch_12">
    <path clip-path="url(#p7e762299a3)" d="M 74.410909 16500.268653 
L 77.454545 16500.268653 
L 77.454545 185.580536 
L 74.410909 185.580536 
z
" style="fill:#1f77b4;"/>
   </g>
   <g id="patch_13">
    <path clip-path="url(#p7e762299a3)" d="M 77.454545 16500.268653 
L 80.498182 16500.268653 
L 80.498182 166.466403 
L 77.454545 166.466403 
z
" style="fill:#1f77b4;"/>
   </g>
   <g id="patch_14">
    <path clip-path="url(#p7e762299a3)" d="M 80.498182 16500.268653 
L 83.541818 16500.268653 
L 83.541818 163.982989 
L 80.498182 163.982989 
z
" style="fill:#1f77b4;"/>
   </g>
   <g id="patch_15">
    <path clip-path="url(#p7e762299a3)" d="M 83.541818 16500.268653 
L 86.585455 16500.268653 
L 86.585455 151.475749 
L 83.541818 151.475749 
z
" style="fill:#1f77b4;"/>
   </g>
   <g id="patch_16">
    <path clip-path="url(#p7e762299a3)" d="M 86.585455 16500.268653 
L 89.629091 16500.268653 
L 89.629091 138.088009 
L 86.585455 138.088009 
z
" style="fill:#1f77b4;"/>
   </g>
   <g id="patch_17">
    <path clip-path="url(#p7e762299a3)" d="M 89.629091 16500.268653 
L 92.672727 16500.268653 
L 92.672727 126.047529 
L 89.629091 126.047529 
z
" style="fill:#1f77b4;"/>
   </g>
   <g id="patch_18">
    <path clip-path="url(#p7e762299a3)" d="M 92.672727 16500.268653 
L 95.716364 16500.268653 
L 95.716364 111.168057 
L 92.672727 111.168057 
z
" style="fill:#1f77b4;"/>
   </g>
   <g id="patch_19">
    <path clip-path="url(#p7e762299a3)" d="M 95.716364 16500.268653 
L 98.76 16500.268653 
L 98.76 94.333901 
L 95.716364 94.333901 
z
" style="fill:#1f77b4;"/>
   </g>
   <g id="patch_20">
    <path clip-path="url(#p7e762299a3)" d="M 98.76 16500.268653 
L 101.803636 16500.268653 
L 101.803636 74.840898 
L 98.76 74.840898 
z
" style="fill:#1f77b4;"/>
   </g>
   <g id="patch_21">
    <path clip-path="url(#p7e762299a3)" d="M 101.803636 16500.268653 
L 104.847273 16500.268653 
L 104.847273 49.728341 
L 101.803636 49.728341 
z
" style="fill:#1f77b4;"/>
   </g>
   <g id="patch_22">
    <path clip-path="url(#p7e762299a3)" d="M 104.847273 16500.268653 
L 107.890909 16500.268653 
L 107.890909 20.583636 
L 104.847273 20.583636 
z
" style="fill:#1f77b4;"/>
   </g>
   <g id="patch_23">
    <path clip-path="url(#p7e762299a3)" d="M 107.890909 16500.268653 
L 110.934545 16500.268653 
L 110.934545 71.077435 
L 107.890909 71.077435 
z
" style="fill:#1f77b4;"/>
   </g>
   <g id="patch_24">
    <path clip-path="url(#p7e762299a3)" d="M 110.934545 16500.268653 
L 113.978182 16500.268653 
L 113.978182 93.371701 
L 110.934545 93.371701 
z
" style="fill:#1f77b4;"/>
   </g>
   <g id="patch_25">
    <path clip-path="url(#p7e762299a3)" d="M 113.978182 16500.268653 
L 117.021818 16500.268653 
L 117.021818 109.47508 
L 113.978182 109.47508 
z
" style="fill:#1f77b4;"/>
   </g>
   <g id="patch_26">
    <path clip-path="url(#p7e762299a3)" d="M 117.021818 16500.268653 
L 120.065455 16500.268653 
L 120.065455 125.580768 
L 117.021818 125.580768 
z
" style="fill:#1f77b4;"/>
   </g>
   <g id="patch_27">
    <path clip-path="url(#p7e762299a3)" d="M 120.065455 16500.268653 
L 123.109091 16500.268653 
L 123.109091 140.571422 
L 120.065455 140.571422 
z
" style="fill:#1f77b4;"/>
   </g>
   <g id="patch_28">
    <path clip-path="url(#p7e762299a3)" d="M 123.109091 16500.268653 
L 126.152727 16500.268653 
L 126.152727 150.128489 
L 123.109091 150.128489 
z
" style="fill:#1f77b4;"/>
   </g>
   <g id="patch_29">
    <path clip-path="url(#p7e762299a3)" d="M 126.152727 16500.268653 
L 129.196364 16500.268653 
L 129.196364 159.685556 
L 126.152727 159.685556 
z
" style="fill:#1f77b4;"/>
   </g>
   <g id="patch_30">
    <path clip-path="url(#p7e762299a3)" d="M 129.196364 16500.268653 
L 132.24 16500.268653 
L 132.24 163.982989 
L 129.196364 163.982989 
z
" style="fill:#1f77b4;"/>
   </g>
   <g id="patch_31">
    <path clip-path="url(#p7e762299a3)" d="M 132.24 16500.268653 
L 135.283636 16500.268653 
L 135.283636 185.580536 
L 132.24 185.580536 
z
" style="fill:#1f77b4;"/>
   </g>
   <g id="patch_32">
    <path clip-path="url(#p7e762299a3)" d="M 135.283636 16500.268653 
L 138.327273 16500.268653 
L 138.327273 185.580536 
L 135.283636 185.580536 
z
" style="fill:#1f77b4;"/>
   </g>
   <g id="patch_33">
    <path clip-path="url(#p7e762299a3)" d="M 138.327273 16500.268653 
L 141.370909 16500.268653 
L 141.370909 192.361383 
L 138.327273 192.361383 
z
" style="fill:#1f77b4;"/>
   </g>
   <g id="patch_34">
    <path clip-path="url(#p7e762299a3)" d="M 141.370909 16500.268653 
L 144.414545 16500.268653 
L 144.414545 201.91845 
L 141.370909 201.91845 
z
" style="fill:#1f77b4;"/>
   </g>
   <g id="patch_35">
    <path clip-path="url(#p7e762299a3)" d="M 144.414545 16500.268653 
L 147.458182 16500.268653 
L 147.458182 192.361383 
L 144.414545 192.361383 
z
" style="fill:#1f77b4;"/>
   </g>
   <g id="patch_36">
    <path clip-path="url(#p7e762299a3)" d="M 147.458182 16500.268653 
L 150.501818 16500.268653 
L 150.501818 218.256364 
L 147.458182 218.256364 
z
" style="fill:#1f77b4;"/>
   </g>
   <g id="patch_37">
    <path clip-path="url(#p7e762299a3)" d="M 150.501818 16500.268653 
L 153.545455 16500.268653 
L 153.545455 218.256364 
L 150.501818 218.256364 
z
" style="fill:#1f77b4;"/>
   </g>
   <g id="patch_38">
    <path clip-path="url(#p7e762299a3)" d="M 153.545455 16500.268653 
L 156.589091 16500.268653 
L 156.589091 218.256364 
L 153.545455 218.256364 
z
" style="fill:#1f77b4;"/>
   </g>
   <g id="patch_39">
    <path clip-path="url(#p7e762299a3)" d="M 156.589091 16500.268653 
L 159.632727 16500.268653 
L 159.632727 218.256364 
L 156.589091 218.256364 
z
" style="fill:#1f77b4;"/>
   </g>
   <g id="patch_40">
    <path clip-path="url(#p7e762299a3)" d="M 159.632727 16500.268653 
L 162.676364 16500.268653 
L 162.676364 16500.268653 
L 159.632727 16500.268653 
z
" style="fill:#1f77b4;"/>
   </g>
   <g id="patch_41">
    <path clip-path="url(#p7e762299a3)" d="M 162.676364 16500.268653 
L 165.72 16500.268653 
L 165.72 218.256364 
L 162.676364 218.256364 
z
" style="fill:#1f77b4;"/>
   </g>
   <g id="patch_42">
    <path clip-path="url(#p7e762299a3)" d="M 165.72 16500.268653 
L 168.763636 16500.268653 
L 168.763636 16500.268653 
L 165.72 16500.268653 
z
" style="fill:#1f77b4;"/>
   </g>
   <g id="patch_43">
    <path clip-path="url(#p7e762299a3)" d="M 168.763636 16500.268653 
L 171.807273 16500.268653 
L 171.807273 201.91845 
L 168.763636 201.91845 
z
" style="fill:#1f77b4;"/>
   </g>
   <g id="patch_44">
    <path clip-path="url(#p7e762299a3)" d="M 171.807273 16500.268653 
L 174.850909 16500.268653 
L 174.850909 218.256364 
L 171.807273 218.256364 
z
" style="fill:#1f77b4;"/>
   </g>
   <g id="patch_45">
    <path clip-path="url(#p7e762299a3)" d="M 174.850909 16500.268653 
L 177.894545 16500.268653 
L 177.894545 218.256364 
L 174.850909 218.256364 
z
" style="fill:#1f77b4;"/>
   </g>
   <g id="patch_46">
    <path clip-path="url(#p7e762299a3)" d="M 177.894545 16500.268653 
L 180.938182 16500.268653 
L 180.938182 16500.268653 
L 177.894545 16500.268653 
z
" style="fill:#1f77b4;"/>
   </g>
   <g id="patch_47">
    <path clip-path="url(#p7e762299a3)" d="M 180.938182 16500.268653 
L 183.981818 16500.268653 
L 183.981818 16500.268653 
L 180.938182 16500.268653 
z
" style="fill:#1f77b4;"/>
   </g>
   <g id="patch_48">
    <path clip-path="url(#p7e762299a3)" d="M 183.981818 16500.268653 
L 187.025455 16500.268653 
L 187.025455 218.256364 
L 183.981818 218.256364 
z
" style="fill:#1f77b4;"/>
   </g>
   <g id="patch_49">
    <path clip-path="url(#p7e762299a3)" d="M 187.025455 16500.268653 
L 190.069091 16500.268653 
L 190.069091 16500.268653 
L 187.025455 16500.268653 
z
" style="fill:#1f77b4;"/>
   </g>
   <g id="patch_50">
    <path clip-path="url(#p7e762299a3)" d="M 190.069091 16500.268653 
L 193.112727 16500.268653 
L 193.112727 16500.268653 
L 190.069091 16500.268653 
z
" style="fill:#1f77b4;"/>
   </g>
   <g id="patch_51">
    <path clip-path="url(#p7e762299a3)" d="M 193.112727 16500.268653 
L 196.156364 16500.268653 
L 196.156364 218.256364 
L 193.112727 218.256364 
z
" style="fill:#1f77b4;"/>
   </g>
   <g id="patch_52">
    <path clip-path="url(#p7e762299a3)" d="M 196.156364 16500.268653 
L 199.2 16500.268653 
L 199.2 16500.268653 
L 196.156364 16500.268653 
z
" style="fill:#1f77b4;"/>
   </g>
   <g id="patch_53">
    <path clip-path="url(#p7e762299a3)" d="M 199.2 16500.268653 
L 202.243636 16500.268653 
L 202.243636 16500.268653 
L 199.2 16500.268653 
z
" style="fill:#1f77b4;"/>
   </g>
   <g id="patch_54">
    <path clip-path="url(#p7e762299a3)" d="M 202.243636 16500.268653 
L 205.287273 16500.268653 
L 205.287273 16500.268653 
L 202.243636 16500.268653 
z
" style="fill:#1f77b4;"/>
   </g>
   <g id="patch_55">
    <path clip-path="url(#p7e762299a3)" d="M 205.287273 16500.268653 
L 208.330909 16500.268653 
L 208.330909 218.256364 
L 205.287273 218.256364 
z
" style="fill:#1f77b4;"/>
   </g>
   <g id="patch_56">
    <path clip-path="url(#p7e762299a3)" d="M 208.330909 16500.268653 
L 211.374545 16500.268653 
L 211.374545 16500.268653 
L 208.330909 16500.268653 
z
" style="fill:#1f77b4;"/>
   </g>
   <g id="patch_57">
    <path clip-path="url(#p7e762299a3)" d="M 211.374545 16500.268653 
L 214.418182 16500.268653 
L 214.418182 16500.268653 
L 211.374545 16500.268653 
z
" style="fill:#1f77b4;"/>
   </g>
   <g id="patch_58">
    <path clip-path="url(#p7e762299a3)" d="M 214.418182 16500.268653 
L 217.461818 16500.268653 
L 217.461818 218.256364 
L 214.418182 218.256364 
z
" style="fill:#1f77b4;"/>
   </g>
   <g id="patch_59">
    <path clip-path="url(#p7e762299a3)" d="M 217.461818 16500.268653 
L 220.505455 16500.268653 
L 220.505455 16500.268653 
L 217.461818 16500.268653 
z
" style="fill:#1f77b4;"/>
   </g>
   <g id="patch_60">
    <path clip-path="url(#p7e762299a3)" d="M 220.505455 16500.268653 
L 223.549091 16500.268653 
L 223.549091 16500.268653 
L 220.505455 16500.268653 
z
" style="fill:#1f77b4;"/>
   </g>
   <g id="patch_61">
    <path clip-path="url(#p7e762299a3)" d="M 223.549091 16500.268653 
L 226.592727 16500.268653 
L 226.592727 16500.268653 
L 223.549091 16500.268653 
z
" style="fill:#1f77b4;"/>
   </g>
   <g id="patch_62">
    <path clip-path="url(#p7e762299a3)" d="M 226.592727 16500.268653 
L 229.636364 16500.268653 
L 229.636364 16500.268653 
L 226.592727 16500.268653 
z
" style="fill:#1f77b4;"/>
   </g>
   <g id="patch_63">
    <path clip-path="url(#p7e762299a3)" d="M 229.636364 16500.268653 
L 232.68 16500.268653 
L 232.68 16500.268653 
L 229.636364 16500.268653 
z
" style="fill:#1f77b4;"/>
   </g>
   <g id="patch_64">
    <path clip-path="url(#p7e762299a3)" d="M 232.68 16500.268653 
L 235.723636 16500.268653 
L 235.723636 16500.268653 
L 232.68 16500.268653 
z
" style="fill:#1f77b4;"/>
   </g>
   <g id="patch_65">
    <path clip-path="url(#p7e762299a3)" d="M 235.723636 16500.268653 
L 238.767273 16500.268653 
L 238.767273 16500.268653 
L 235.723636 16500.268653 
z
" style="fill:#1f77b4;"/>
   </g>
   <g id="patch_66">
    <path clip-path="url(#p7e762299a3)" d="M 238.767273 16500.268653 
L 241.810909 16500.268653 
L 241.810909 16500.268653 
L 238.767273 16500.268653 
z
" style="fill:#1f77b4;"/>
   </g>
   <g id="patch_67">
    <path clip-path="url(#p7e762299a3)" d="M 241.810909 16500.268653 
L 244.854545 16500.268653 
L 244.854545 16500.268653 
L 241.810909 16500.268653 
z
" style="fill:#1f77b4;"/>
   </g>
   <g id="patch_68">
    <path clip-path="url(#p7e762299a3)" d="M 244.854545 16500.268653 
L 247.898182 16500.268653 
L 247.898182 16500.268653 
L 244.854545 16500.268653 
z
" style="fill:#1f77b4;"/>
   </g>
   <g id="patch_69">
    <path clip-path="url(#p7e762299a3)" d="M 247.898182 16500.268653 
L 250.941818 16500.268653 
L 250.941818 16500.268653 
L 247.898182 16500.268653 
z
" style="fill:#1f77b4;"/>
   </g>
   <g id="patch_70">
    <path clip-path="url(#p7e762299a3)" d="M 250.941818 16500.268653 
L 253.985455 16500.268653 
L 253.985455 16500.268653 
L 250.941818 16500.268653 
z
" style="fill:#1f77b4;"/>
   </g>
   <g id="patch_71">
    <path clip-path="url(#p7e762299a3)" d="M 253.985455 16500.268653 
L 257.029091 16500.268653 
L 257.029091 16500.268653 
L 253.985455 16500.268653 
z
" style="fill:#1f77b4;"/>
   </g>
   <g id="patch_72">
    <path clip-path="url(#p7e762299a3)" d="M 257.029091 16500.268653 
L 260.072727 16500.268653 
L 260.072727 16500.268653 
L 257.029091 16500.268653 
z
" style="fill:#1f77b4;"/>
   </g>
   <g id="patch_73">
    <path clip-path="url(#p7e762299a3)" d="M 260.072727 16500.268653 
L 263.116364 16500.268653 
L 263.116364 16500.268653 
L 260.072727 16500.268653 
z
" style="fill:#1f77b4;"/>
   </g>
   <g id="patch_74">
    <path clip-path="url(#p7e762299a3)" d="M 263.116364 16500.268653 
L 266.16 16500.268653 
L 266.16 16500.268653 
L 263.116364 16500.268653 
z
" style="fill:#1f77b4;"/>
   </g>
   <g id="patch_75">
    <path clip-path="url(#p7e762299a3)" d="M 266.16 16500.268653 
L 269.203636 16500.268653 
L 269.203636 16500.268653 
L 266.16 16500.268653 
z
" style="fill:#1f77b4;"/>
   </g>
   <g id="patch_76">
    <path clip-path="url(#p7e762299a3)" d="M 269.203636 16500.268653 
L 272.247273 16500.268653 
L 272.247273 16500.268653 
L 269.203636 16500.268653 
z
" style="fill:#1f77b4;"/>
   </g>
   <g id="patch_77">
    <path clip-path="url(#p7e762299a3)" d="M 272.247273 16500.268653 
L 275.290909 16500.268653 
L 275.290909 16500.268653 
L 272.247273 16500.268653 
z
" style="fill:#1f77b4;"/>
   </g>
   <g id="patch_78">
    <path clip-path="url(#p7e762299a3)" d="M 275.290909 16500.268653 
L 278.334545 16500.268653 
L 278.334545 16500.268653 
L 275.290909 16500.268653 
z
" style="fill:#1f77b4;"/>
   </g>
   <g id="patch_79">
    <path clip-path="url(#p7e762299a3)" d="M 278.334545 16500.268653 
L 281.378182 16500.268653 
L 281.378182 16500.268653 
L 278.334545 16500.268653 
z
" style="fill:#1f77b4;"/>
   </g>
   <g id="patch_80">
    <path clip-path="url(#p7e762299a3)" d="M 281.378182 16500.268653 
L 284.421818 16500.268653 
L 284.421818 16500.268653 
L 281.378182 16500.268653 
z
" style="fill:#1f77b4;"/>
   </g>
   <g id="patch_81">
    <path clip-path="url(#p7e762299a3)" d="M 284.421818 16500.268653 
L 287.465455 16500.268653 
L 287.465455 16500.268653 
L 284.421818 16500.268653 
z
" style="fill:#1f77b4;"/>
   </g>
   <g id="patch_82">
    <path clip-path="url(#p7e762299a3)" d="M 287.465455 16500.268653 
L 290.509091 16500.268653 
L 290.509091 16500.268653 
L 287.465455 16500.268653 
z
" style="fill:#1f77b4;"/>
   </g>
   <g id="patch_83">
    <path clip-path="url(#p7e762299a3)" d="M 290.509091 16500.268653 
L 293.552727 16500.268653 
L 293.552727 16500.268653 
L 290.509091 16500.268653 
z
" style="fill:#1f77b4;"/>
   </g>
   <g id="patch_84">
    <path clip-path="url(#p7e762299a3)" d="M 293.552727 16500.268653 
L 296.596364 16500.268653 
L 296.596364 16500.268653 
L 293.552727 16500.268653 
z
" style="fill:#1f77b4;"/>
   </g>
   <g id="patch_85">
    <path clip-path="url(#p7e762299a3)" d="M 296.596364 16500.268653 
L 299.64 16500.268653 
L 299.64 16500.268653 
L 296.596364 16500.268653 
z
" style="fill:#1f77b4;"/>
   </g>
   <g id="patch_86">
    <path clip-path="url(#p7e762299a3)" d="M 299.64 16500.268653 
L 302.683636 16500.268653 
L 302.683636 16500.268653 
L 299.64 16500.268653 
z
" style="fill:#1f77b4;"/>
   </g>
   <g id="patch_87">
    <path clip-path="url(#p7e762299a3)" d="M 302.683636 16500.268653 
L 305.727273 16500.268653 
L 305.727273 16500.268653 
L 302.683636 16500.268653 
z
" style="fill:#1f77b4;"/>
   </g>
   <g id="patch_88">
    <path clip-path="url(#p7e762299a3)" d="M 305.727273 16500.268653 
L 308.770909 16500.268653 
L 308.770909 16500.268653 
L 305.727273 16500.268653 
z
" style="fill:#1f77b4;"/>
   </g>
   <g id="patch_89">
    <path clip-path="url(#p7e762299a3)" d="M 308.770909 16500.268653 
L 311.814545 16500.268653 
L 311.814545 16500.268653 
L 308.770909 16500.268653 
z
" style="fill:#1f77b4;"/>
   </g>
   <g id="patch_90">
    <path clip-path="url(#p7e762299a3)" d="M 311.814545 16500.268653 
L 314.858182 16500.268653 
L 314.858182 16500.268653 
L 311.814545 16500.268653 
z
" style="fill:#1f77b4;"/>
   </g>
   <g id="patch_91">
    <path clip-path="url(#p7e762299a3)" d="M 314.858182 16500.268653 
L 317.901818 16500.268653 
L 317.901818 16500.268653 
L 314.858182 16500.268653 
z
" style="fill:#1f77b4;"/>
   </g>
   <g id="patch_92">
    <path clip-path="url(#p7e762299a3)" d="M 317.901818 16500.268653 
L 320.945455 16500.268653 
L 320.945455 16500.268653 
L 317.901818 16500.268653 
z
" style="fill:#1f77b4;"/>
   </g>
   <g id="patch_93">
    <path clip-path="url(#p7e762299a3)" d="M 320.945455 16500.268653 
L 323.989091 16500.268653 
L 323.989091 16500.268653 
L 320.945455 16500.268653 
z
" style="fill:#1f77b4;"/>
   </g>
   <g id="patch_94">
    <path clip-path="url(#p7e762299a3)" d="M 323.989091 16500.268653 
L 327.032727 16500.268653 
L 327.032727 16500.268653 
L 323.989091 16500.268653 
z
" style="fill:#1f77b4;"/>
   </g>
   <g id="patch_95">
    <path clip-path="url(#p7e762299a3)" d="M 327.032727 16500.268653 
L 330.076364 16500.268653 
L 330.076364 16500.268653 
L 327.032727 16500.268653 
z
" style="fill:#1f77b4;"/>
   </g>
   <g id="patch_96">
    <path clip-path="url(#p7e762299a3)" d="M 330.076364 16500.268653 
L 333.12 16500.268653 
L 333.12 16500.268653 
L 330.076364 16500.268653 
z
" style="fill:#1f77b4;"/>
   </g>
   <g id="patch_97">
    <path clip-path="url(#p7e762299a3)" d="M 333.12 16500.268653 
L 336.163636 16500.268653 
L 336.163636 16500.268653 
L 333.12 16500.268653 
z
" style="fill:#1f77b4;"/>
   </g>
   <g id="patch_98">
    <path clip-path="url(#p7e762299a3)" d="M 336.163636 16500.268653 
L 339.207273 16500.268653 
L 339.207273 16500.268653 
L 336.163636 16500.268653 
z
" style="fill:#1f77b4;"/>
   </g>
   <g id="patch_99">
    <path clip-path="url(#p7e762299a3)" d="M 339.207273 16500.268653 
L 342.250909 16500.268653 
L 342.250909 16500.268653 
L 339.207273 16500.268653 
z
" style="fill:#1f77b4;"/>
   </g>
   <g id="patch_100">
    <path clip-path="url(#p7e762299a3)" d="M 342.250909 16500.268653 
L 345.294545 16500.268653 
L 345.294545 16500.268653 
L 342.250909 16500.268653 
z
" style="fill:#1f77b4;"/>
   </g>
   <g id="patch_101">
    <path clip-path="url(#p7e762299a3)" d="M 345.294545 16500.268653 
L 348.338182 16500.268653 
L 348.338182 16500.268653 
L 345.294545 16500.268653 
z
" style="fill:#1f77b4;"/>
   </g>
   <g id="patch_102">
    <path clip-path="url(#p7e762299a3)" d="M 348.338182 16500.268653 
L 351.381818 16500.268653 
L 351.381818 218.256364 
L 348.338182 218.256364 
z
" style="fill:#1f77b4;"/>
   </g>
   <g id="matplotlib.axis_1">
    <g id="xtick_1">
     <g id="line2d_1">
      <defs>
       <path d="M 0 0 
L 0 3.5 
" id="me2d6c57384" style="stroke:#000000;stroke-width:0.8;"/>
      </defs>
      <g>
       <use style="stroke:#000000;stroke-width:0.8;" x="64.5703" xlink:href="#me2d6c57384" y="228.14"/>
      </g>
     </g>
     <g id="text_1">
      <!-- −25 -->
      <defs>
       <path d="M 10.59375 35.5 
L 73.1875 35.5 
L 73.1875 27.203125 
L 10.59375 27.203125 
z
" id="DejaVuSans-2212"/>
       <path d="M 19.1875 8.296875 
L 53.609375 8.296875 
L 53.609375 0 
L 7.328125 0 
L 7.328125 8.296875 
Q 12.9375 14.109375 22.625 23.890625 
Q 32.328125 33.6875 34.8125 36.53125 
Q 39.546875 41.84375 41.421875 45.53125 
Q 43.3125 49.21875 43.3125 52.78125 
Q 43.3125 58.59375 39.234375 62.25 
Q 35.15625 65.921875 28.609375 65.921875 
Q 23.96875 65.921875 18.8125 64.3125 
Q 13.671875 62.703125 7.8125 59.421875 
L 7.8125 69.390625 
Q 13.765625 71.78125 18.9375 73 
Q 24.125 74.21875 28.421875 74.21875 
Q 39.75 74.21875 46.484375 68.546875 
Q 53.21875 62.890625 53.21875 53.421875 
Q 53.21875 48.921875 51.53125 44.890625 
Q 49.859375 40.875 45.40625 35.40625 
Q 44.1875 33.984375 37.640625 27.21875 
Q 31.109375 20.453125 19.1875 8.296875 
" id="DejaVuSans-32"/>
       <path d="M 10.796875 72.90625 
L 49.515625 72.90625 
L 49.515625 64.59375 
L 19.828125 64.59375 
L 19.828125 46.734375 
Q 21.96875 47.46875 24.109375 47.828125 
Q 26.265625 48.1875 28.421875 48.1875 
Q 40.625 48.1875 47.75 41.5 
Q 54.890625 34.8125 54.890625 23.390625 
Q 54.890625 11.625 47.5625 5.09375 
Q 40.234375 -1.421875 26.90625 -1.421875 
Q 22.3125 -1.421875 17.546875 -0.640625 
Q 12.796875 0.140625 7.71875 1.703125 
L 7.71875 11.625 
Q 12.109375 9.234375 16.796875 8.0625 
Q 21.484375 6.890625 26.703125 6.890625 
Q 35.15625 6.890625 40.078125 11.328125 
Q 45.015625 15.765625 45.015625 23.390625 
Q 45.015625 31 40.078125 35.4375 
Q 35.15625 39.890625 26.703125 39.890625 
Q 22.75 39.890625 18.8125 39.015625 
Q 14.890625 38.140625 10.796875 36.28125 
z
" id="DejaVuSans-35"/>
      </defs>
      <g transform="translate(54.017956 242.738437)scale(0.1 -0.1)">
       <use xlink:href="#DejaVuSans-2212"/>
       <use x="83.789062" xlink:href="#DejaVuSans-32"/>
       <use x="147.412109" xlink:href="#DejaVuSans-35"/>
      </g>
     </g>
    </g>
    <g id="xtick_2">
     <g id="line2d_2">
      <g>
       <use style="stroke:#000000;stroke-width:0.8;" x="105.343283" xlink:href="#me2d6c57384" y="228.14"/>
      </g>
     </g>
     <g id="text_2">
      <!-- 0 -->
      <defs>
       <path d="M 31.78125 66.40625 
Q 24.171875 66.40625 20.328125 58.90625 
Q 16.5 51.421875 16.5 36.375 
Q 16.5 21.390625 20.328125 13.890625 
Q 24.171875 6.390625 31.78125 6.390625 
Q 39.453125 6.390625 43.28125 13.890625 
Q 47.125 21.390625 47.125 36.375 
Q 47.125 51.421875 43.28125 58.90625 
Q 39.453125 66.40625 31.78125 66.40625 
M 31.78125 74.21875 
Q 44.046875 74.21875 50.515625 64.515625 
Q 56.984375 54.828125 56.984375 36.375 
Q 56.984375 17.96875 50.515625 8.265625 
Q 44.046875 -1.421875 31.78125 -1.421875 
Q 19.53125 -1.421875 13.0625 8.265625 
Q 6.59375 17.96875 6.59375 36.375 
Q 6.59375 54.828125 13.0625 64.515625 
Q 19.53125 74.21875 31.78125 74.21875 
" id="DejaVuSans-30"/>
      </defs>
      <g transform="translate(102.162033 242.738437)scale(0.1 -0.1)">
       <use xlink:href="#DejaVuSans-30"/>
      </g>
     </g>
    </g>
    <g id="xtick_3">
     <g id="line2d_3">
      <g>
       <use style="stroke:#000000;stroke-width:0.8;" x="146.116265" xlink:href="#me2d6c57384" y="228.14"/>
      </g>
     </g>
     <g id="text_3">
      <!-- 25 -->
      <g transform="translate(139.753765 242.738437)scale(0.1 -0.1)">
       <use xlink:href="#DejaVuSans-32"/>
       <use x="63.623047" xlink:href="#DejaVuSans-35"/>
      </g>
     </g>
    </g>
    <g id="xtick_4">
     <g id="line2d_4">
      <g>
       <use style="stroke:#000000;stroke-width:0.8;" x="186.889248" xlink:href="#me2d6c57384" y="228.14"/>
      </g>
     </g>
     <g id="text_4">
      <!-- 50 -->
      <g transform="translate(180.526748 242.738437)scale(0.1 -0.1)">
       <use xlink:href="#DejaVuSans-35"/>
       <use x="63.623047" xlink:href="#DejaVuSans-30"/>
      </g>
     </g>
    </g>
    <g id="xtick_5">
     <g id="line2d_5">
      <g>
       <use style="stroke:#000000;stroke-width:0.8;" x="227.66223" xlink:href="#me2d6c57384" y="228.14"/>
      </g>
     </g>
     <g id="text_5">
      <!-- 75 -->
      <defs>
       <path d="M 8.203125 72.90625 
L 55.078125 72.90625 
L 55.078125 68.703125 
L 28.609375 0 
L 18.3125 0 
L 43.21875 64.59375 
L 8.203125 64.59375 
z
" id="DejaVuSans-37"/>
      </defs>
      <g transform="translate(221.29973 242.738437)scale(0.1 -0.1)">
       <use xlink:href="#DejaVuSans-37"/>
       <use x="63.623047" xlink:href="#DejaVuSans-35"/>
      </g>
     </g>
    </g>
    <g id="xtick_6">
     <g id="line2d_6">
      <g>
       <use style="stroke:#000000;stroke-width:0.8;" x="268.435213" xlink:href="#me2d6c57384" y="228.14"/>
      </g>
     </g>
     <g id="text_6">
      <!-- 100 -->
      <defs>
       <path d="M 12.40625 8.296875 
L 28.515625 8.296875 
L 28.515625 63.921875 
L 10.984375 60.40625 
L 10.984375 69.390625 
L 28.421875 72.90625 
L 38.28125 72.90625 
L 38.28125 8.296875 
L 54.390625 8.296875 
L 54.390625 0 
L 12.40625 0 
z
" id="DejaVuSans-31"/>
      </defs>
      <g transform="translate(258.891463 242.738437)scale(0.1 -0.1)">
       <use xlink:href="#DejaVuSans-31"/>
       <use x="63.623047" xlink:href="#DejaVuSans-30"/>
       <use x="127.246094" xlink:href="#DejaVuSans-30"/>
      </g>
     </g>
    </g>
    <g id="xtick_7">
     <g id="line2d_7">
      <g>
       <use style="stroke:#000000;stroke-width:0.8;" x="309.208195" xlink:href="#me2d6c57384" y="228.14"/>
      </g>
     </g>
     <g id="text_7">
      <!-- 125 -->
      <g transform="translate(299.664445 242.738437)scale(0.1 -0.1)">
       <use xlink:href="#DejaVuSans-31"/>
       <use x="63.623047" xlink:href="#DejaVuSans-32"/>
       <use x="127.246094" xlink:href="#DejaVuSans-35"/>
      </g>
     </g>
    </g>
    <g id="xtick_8">
     <g id="line2d_8">
      <g>
       <use style="stroke:#000000;stroke-width:0.8;" x="349.981178" xlink:href="#me2d6c57384" y="228.14"/>
      </g>
     </g>
     <g id="text_8">
      <!-- 150 -->
      <g transform="translate(340.437428 242.738437)scale(0.1 -0.1)">
       <use xlink:href="#DejaVuSans-31"/>
       <use x="63.623047" xlink:href="#DejaVuSans-35"/>
       <use x="127.246094" xlink:href="#DejaVuSans-30"/>
      </g>
     </g>
    </g>
   </g>
   <g id="matplotlib.axis_2">
    <g id="ytick_1">
     <g id="line2d_9">
      <defs>
       <path d="M 0 0 
L -3.5 0 
" id="mb8fb1a59f4" style="stroke:#000000;stroke-width:0.8;"/>
      </defs>
      <g>
       <use style="stroke:#000000;stroke-width:0.8;" x="31.8" xlink:href="#mb8fb1a59f4" y="218.256364"/>
      </g>
     </g>
     <g id="text_9">
      <!-- ${10^{0}}$ -->
      <g transform="translate(7.2 222.055582)scale(0.1 -0.1)">
       <use transform="translate(0 0.765625)" xlink:href="#DejaVuSans-31"/>
       <use transform="translate(63.623047 0.765625)" xlink:href="#DejaVuSans-30"/>
       <use transform="translate(128.203125 39.046875)scale(0.7)" xlink:href="#DejaVuSans-30"/>
      </g>
     </g>
    </g>
    <g id="ytick_2">
     <g id="line2d_10">
      <g>
       <use style="stroke:#000000;stroke-width:0.8;" x="31.8" xlink:href="#mb8fb1a59f4" y="163.982989"/>
      </g>
     </g>
     <g id="text_10">
      <!-- ${10^{1}}$ -->
      <g transform="translate(7.2 167.782208)scale(0.1 -0.1)">
       <use transform="translate(0 0.684375)" xlink:href="#DejaVuSans-31"/>
       <use transform="translate(63.623047 0.684375)" xlink:href="#DejaVuSans-30"/>
       <use transform="translate(128.203125 38.965625)scale(0.7)" xlink:href="#DejaVuSans-31"/>
      </g>
     </g>
    </g>
    <g id="ytick_3">
     <g id="line2d_11">
      <g>
       <use style="stroke:#000000;stroke-width:0.8;" x="31.8" xlink:href="#mb8fb1a59f4" y="109.709615"/>
      </g>
     </g>
     <g id="text_11">
      <!-- ${10^{2}}$ -->
      <g transform="translate(7.2 113.508834)scale(0.1 -0.1)">
       <use transform="translate(0 0.765625)" xlink:href="#DejaVuSans-31"/>
       <use transform="translate(63.623047 0.765625)" xlink:href="#DejaVuSans-30"/>
       <use transform="translate(128.203125 39.046875)scale(0.7)" xlink:href="#DejaVuSans-32"/>
      </g>
     </g>
    </g>
    <g id="ytick_4">
     <g id="line2d_12">
      <g>
       <use style="stroke:#000000;stroke-width:0.8;" x="31.8" xlink:href="#mb8fb1a59f4" y="55.436241"/>
      </g>
     </g>
     <g id="text_12">
      <!-- ${10^{3}}$ -->
      <defs>
       <path d="M 40.578125 39.3125 
Q 47.65625 37.796875 51.625 33 
Q 55.609375 28.21875 55.609375 21.1875 
Q 55.609375 10.40625 48.1875 4.484375 
Q 40.765625 -1.421875 27.09375 -1.421875 
Q 22.515625 -1.421875 17.65625 -0.515625 
Q 12.796875 0.390625 7.625 2.203125 
L 7.625 11.71875 
Q 11.71875 9.328125 16.59375 8.109375 
Q 21.484375 6.890625 26.8125 6.890625 
Q 36.078125 6.890625 40.9375 10.546875 
Q 45.796875 14.203125 45.796875 21.1875 
Q 45.796875 27.640625 41.28125 31.265625 
Q 36.765625 34.90625 28.71875 34.90625 
L 20.21875 34.90625 
L 20.21875 43.015625 
L 29.109375 43.015625 
Q 36.375 43.015625 40.234375 45.921875 
Q 44.09375 48.828125 44.09375 54.296875 
Q 44.09375 59.90625 40.109375 62.90625 
Q 36.140625 65.921875 28.71875 65.921875 
Q 24.65625 65.921875 20.015625 65.03125 
Q 15.375 64.15625 9.8125 62.3125 
L 9.8125 71.09375 
Q 15.4375 72.65625 20.34375 73.4375 
Q 25.25 74.21875 29.59375 74.21875 
Q 40.828125 74.21875 47.359375 69.109375 
Q 53.90625 64.015625 53.90625 55.328125 
Q 53.90625 49.265625 50.4375 45.09375 
Q 46.96875 40.921875 40.578125 39.3125 
" id="DejaVuSans-33"/>
      </defs>
      <g transform="translate(7.2 59.235459)scale(0.1 -0.1)">
       <use transform="translate(0 0.765625)" xlink:href="#DejaVuSans-31"/>
       <use transform="translate(63.623047 0.765625)" xlink:href="#DejaVuSans-30"/>
       <use transform="translate(128.203125 39.046875)scale(0.7)" xlink:href="#DejaVuSans-33"/>
      </g>
     </g>
    </g>
    <g id="ytick_5">
     <g id="line2d_13">
      <defs>
       <path d="M 0 0 
L -2 0 
" id="m9e8b868cf3" style="stroke:#000000;stroke-width:0.6;"/>
      </defs>
      <g>
       <use style="stroke:#000000;stroke-width:0.6;" x="31.8" xlink:href="#m9e8b868cf3" y="226.663416"/>
      </g>
     </g>
    </g>
    <g id="ytick_6">
     <g id="line2d_14">
      <g>
       <use style="stroke:#000000;stroke-width:0.6;" x="31.8" xlink:href="#m9e8b868cf3" y="223.515997"/>
      </g>
     </g>
    </g>
    <g id="ytick_7">
     <g id="line2d_15">
      <g>
       <use style="stroke:#000000;stroke-width:0.6;" x="31.8" xlink:href="#m9e8b868cf3" y="220.739777"/>
      </g>
     </g>
    </g>
    <g id="ytick_8">
     <g id="line2d_16">
      <g>
       <use style="stroke:#000000;stroke-width:0.6;" x="31.8" xlink:href="#m9e8b868cf3" y="201.91845"/>
      </g>
     </g>
    </g>
    <g id="ytick_9">
     <g id="line2d_17">
      <g>
       <use style="stroke:#000000;stroke-width:0.6;" x="31.8" xlink:href="#m9e8b868cf3" y="192.361383"/>
      </g>
     </g>
    </g>
    <g id="ytick_10">
     <g id="line2d_18">
      <g>
       <use style="stroke:#000000;stroke-width:0.6;" x="31.8" xlink:href="#m9e8b868cf3" y="185.580536"/>
      </g>
     </g>
    </g>
    <g id="ytick_11">
     <g id="line2d_19">
      <g>
       <use style="stroke:#000000;stroke-width:0.6;" x="31.8" xlink:href="#m9e8b868cf3" y="180.320903"/>
      </g>
     </g>
    </g>
    <g id="ytick_12">
     <g id="line2d_20">
      <g>
       <use style="stroke:#000000;stroke-width:0.6;" x="31.8" xlink:href="#m9e8b868cf3" y="176.02347"/>
      </g>
     </g>
    </g>
    <g id="ytick_13">
     <g id="line2d_21">
      <g>
       <use style="stroke:#000000;stroke-width:0.6;" x="31.8" xlink:href="#m9e8b868cf3" y="172.390041"/>
      </g>
     </g>
    </g>
    <g id="ytick_14">
     <g id="line2d_22">
      <g>
       <use style="stroke:#000000;stroke-width:0.6;" x="31.8" xlink:href="#m9e8b868cf3" y="169.242623"/>
      </g>
     </g>
    </g>
    <g id="ytick_15">
     <g id="line2d_23">
      <g>
       <use style="stroke:#000000;stroke-width:0.6;" x="31.8" xlink:href="#m9e8b868cf3" y="166.466403"/>
      </g>
     </g>
    </g>
    <g id="ytick_16">
     <g id="line2d_24">
      <g>
       <use style="stroke:#000000;stroke-width:0.6;" x="31.8" xlink:href="#m9e8b868cf3" y="147.645076"/>
      </g>
     </g>
    </g>
    <g id="ytick_17">
     <g id="line2d_25">
      <g>
       <use style="stroke:#000000;stroke-width:0.6;" x="31.8" xlink:href="#m9e8b868cf3" y="138.088009"/>
      </g>
     </g>
    </g>
    <g id="ytick_18">
     <g id="line2d_26">
      <g>
       <use style="stroke:#000000;stroke-width:0.6;" x="31.8" xlink:href="#m9e8b868cf3" y="131.307162"/>
      </g>
     </g>
    </g>
    <g id="ytick_19">
     <g id="line2d_27">
      <g>
       <use style="stroke:#000000;stroke-width:0.6;" x="31.8" xlink:href="#m9e8b868cf3" y="126.047529"/>
      </g>
     </g>
    </g>
    <g id="ytick_20">
     <g id="line2d_28">
      <g>
       <use style="stroke:#000000;stroke-width:0.6;" x="31.8" xlink:href="#m9e8b868cf3" y="121.750095"/>
      </g>
     </g>
    </g>
    <g id="ytick_21">
     <g id="line2d_29">
      <g>
       <use style="stroke:#000000;stroke-width:0.6;" x="31.8" xlink:href="#m9e8b868cf3" y="118.116667"/>
      </g>
     </g>
    </g>
    <g id="ytick_22">
     <g id="line2d_30">
      <g>
       <use style="stroke:#000000;stroke-width:0.6;" x="31.8" xlink:href="#m9e8b868cf3" y="114.969248"/>
      </g>
     </g>
    </g>
    <g id="ytick_23">
     <g id="line2d_31">
      <g>
       <use style="stroke:#000000;stroke-width:0.6;" x="31.8" xlink:href="#m9e8b868cf3" y="112.193028"/>
      </g>
     </g>
    </g>
    <g id="ytick_24">
     <g id="line2d_32">
      <g>
       <use style="stroke:#000000;stroke-width:0.6;" x="31.8" xlink:href="#m9e8b868cf3" y="93.371701"/>
      </g>
     </g>
    </g>
    <g id="ytick_25">
     <g id="line2d_33">
      <g>
       <use style="stroke:#000000;stroke-width:0.6;" x="31.8" xlink:href="#m9e8b868cf3" y="83.814635"/>
      </g>
     </g>
    </g>
    <g id="ytick_26">
     <g id="line2d_34">
      <g>
       <use style="stroke:#000000;stroke-width:0.6;" x="31.8" xlink:href="#m9e8b868cf3" y="77.033788"/>
      </g>
     </g>
    </g>
    <g id="ytick_27">
     <g id="line2d_35">
      <g>
       <use style="stroke:#000000;stroke-width:0.6;" x="31.8" xlink:href="#m9e8b868cf3" y="71.774154"/>
      </g>
     </g>
    </g>
    <g id="ytick_28">
     <g id="line2d_36">
      <g>
       <use style="stroke:#000000;stroke-width:0.6;" x="31.8" xlink:href="#m9e8b868cf3" y="67.476721"/>
      </g>
     </g>
    </g>
    <g id="ytick_29">
     <g id="line2d_37">
      <g>
       <use style="stroke:#000000;stroke-width:0.6;" x="31.8" xlink:href="#m9e8b868cf3" y="63.843293"/>
      </g>
     </g>
    </g>
    <g id="ytick_30">
     <g id="line2d_38">
      <g>
       <use style="stroke:#000000;stroke-width:0.6;" x="31.8" xlink:href="#m9e8b868cf3" y="60.695874"/>
      </g>
     </g>
    </g>
    <g id="ytick_31">
     <g id="line2d_39">
      <g>
       <use style="stroke:#000000;stroke-width:0.6;" x="31.8" xlink:href="#m9e8b868cf3" y="57.919654"/>
      </g>
     </g>
    </g>
    <g id="ytick_32">
     <g id="line2d_40">
      <g>
       <use style="stroke:#000000;stroke-width:0.6;" x="31.8" xlink:href="#m9e8b868cf3" y="39.098327"/>
      </g>
     </g>
    </g>
    <g id="ytick_33">
     <g id="line2d_41">
      <g>
       <use style="stroke:#000000;stroke-width:0.6;" x="31.8" xlink:href="#m9e8b868cf3" y="29.54126"/>
      </g>
     </g>
    </g>
    <g id="ytick_34">
     <g id="line2d_42">
      <g>
       <use style="stroke:#000000;stroke-width:0.6;" x="31.8" xlink:href="#m9e8b868cf3" y="22.760413"/>
      </g>
     </g>
    </g>
    <g id="ytick_35">
     <g id="line2d_43">
      <g>
       <use style="stroke:#000000;stroke-width:0.6;" x="31.8" xlink:href="#m9e8b868cf3" y="17.50078"/>
      </g>
     </g>
    </g>
    <g id="ytick_36">
     <g id="line2d_44">
      <g>
       <use style="stroke:#000000;stroke-width:0.6;" x="31.8" xlink:href="#m9e8b868cf3" y="13.203347"/>
      </g>
     </g>
    </g>
   </g>
   <g id="patch_103">
    <path d="M 31.8 228.14 
L 31.8 10.7 
" style="fill:none;stroke:#000000;stroke-linecap:square;stroke-linejoin:miter;stroke-width:0.8;"/>
   </g>
   <g id="patch_104">
    <path d="M 31.8 228.14 
L 366.6 228.14 
" style="fill:none;stroke:#000000;stroke-linecap:square;stroke-linejoin:miter;stroke-width:0.8;"/>
   </g>
  </g>
 </g>
 <defs>
  <clipPath id="p7e762299a3">
   <rect height="217.44" width="334.8" x="31.8" y="10.7"/>
  </clipPath>
 </defs>
</svg>
